SplineFontDB: 3.2
FontName: QTFrizQuad
FullName: QTFrizQuad
FamilyName: QTFrizQuad
Weight: Medium
Copyright: Copyright (c) 1992 QualiType 1-800-950-2921 to OrderROE
Version: 001.000
ItalicAngle: 0
UnderlinePosition: -150
UnderlineWidth: 50
Ascent: 800
Descent: 200
InvalidEm: 0
sfntRevision: 0x00010000
LayerCount: 2
Layer: 0 0 "Back" 1
Layer: 1 0 "Fore" 0
XUID: [1021 599 188735959 13948]
UniqueID: 4143263
StyleMap: 0x0040
FSType: 0
OS2Version: 3
OS2_WeightWidthSlopeOnly: 0
OS2_UseTypoMetrics: 0
CreationTime: 716825880
ModificationTime: 1718145667
PfmFamily: 17
TTFWeight: 500
TTFWidth: 5
LineGap: 90
VLineGap: 0
Panose: 2 0 6 3 0 0 0 0 0 0
OS2TypoAscent: 800
OS2TypoAOffset: 0
OS2TypoDescent: -200
OS2TypoDOffset: 0
OS2TypoLinegap: 90
OS2WinAscent: 908
OS2WinAOffset: 0
OS2WinDescent: 240
OS2WinDOffset: 0
HheadAscent: 908
HheadAOffset: 0
HheadDescent: -240
HheadDOffset: 0
OS2SubXSize: 650
OS2SubYSize: 700
OS2SubXOff: 0
OS2SubYOff: 140
OS2SupXSize: 650
OS2SupYSize: 700
OS2SupXOff: 0
OS2SupYOff: 480
OS2StrikeYSize: 49
OS2StrikeYPos: 258
OS2CapHeight: 668
OS2XHeight: 468
OS2Vendor: 'PfEd'
OS2CodePages: 20000001.00d40000
OS2UnicodeRanges: 800000af.40000048.00000000.00000000
Lookup: 258 0 0 "'kern' Horizontal Kerning lookup 0" { "'kern' Horizontal Kerning lookup 0 subtable"  } ['kern' ('DFLT' <'dflt' > ) ]
Lookup: 258 0 0 "'kern' Horizontal Kerning in Latin lookup 1" { "'kern' Horizontal Kerning in Latin lookup 1 subtable"  } ['kern' ('latn' <'dflt' > ) ]
DEI: 91125
LangName: 1033 "" "" "" "FontForge 2.0 : QTFrizQuad : 18-2-2009"
Encoding: UnicodeBmp
UnicodeInterp: none
NameList: AGL For New Fonts
DisplaySize: -48
AntiAlias: 1
FitToEm: 0
WinInfo: 0 38 14
BeginPrivate: 7
BlueValues 31 [-10 0 468 486 666 684 687 690]
BlueScale 9 0.0454545
BlueShift 1 0
StdHW 4 [71]
StdVW 5 [102]
StemSnapH 7 [55 71]
StemSnapV 8 [90 102]
EndPrivate
BeginChars: 65536 323

StartChar: exclam
Encoding: 33 33 2
Width: 252
GlyphClass: 2
Flags: MW
HStem: -16 126<107 141> 678 20
VStem: 78 102
LayerCount: 2
Fore
SplineSet
180 660 m 1
 158 168 l 1
 86 168 l 1
 70 524 l 1
 68 574 l 2
 66 616 70 654 30 678 c 1
 164 678 l 2
 176 678 180 676 180 668 c 2
 180 660 l 1
186 48 m 0
 186 14 158 -16 124 -16 c 0
 90 -16 60 14 60 48 c 0
 60 82 90 110 124 110 c 0
 158 110 186 82 186 48 c 0
EndSplineSet
Validated: 1
EndChar

StartChar: quotedbl
Encoding: 34 34 3
Width: 334
GlyphClass: 2
Flags: MW
HStem: 400 268<54 122 54 54 210 280 210 210>
VStem: 46 84 288 90
LayerCount: 2
Fore
SplineSet
296 668 m 1
 280 400 l 1
 210 400 l 1
 194 668 l 1
 296 668 l 1
138 668 m 1
 122 400 l 1
 54 400 l 1
 38 668 l 1
 138 668 l 1
EndSplineSet
Validated: 1
EndChar

StartChar: numbersign
Encoding: 35 35 4
Width: 550
GlyphClass: 2
Flags: MW
HStem: 224 55 456 55
LayerCount: 2
Fore
SplineSet
491 456 m 1
 483 404 l 1
 395 404 l 1
 375 276 l 1
 463 276 l 1
 455 224 l 1
 367 224 l 1
 335 34 l 1
 279 34 l 1
 309 224 l 1
 185 224 l 1
 155 34 l 1
 97 34 l 1
 127 224 l 1
 39 224 l 1
 47 276 l 1
 137 276 l 1
 157 404 l 1
 69 404 l 1
 77 456 l 1
 165 456 l 1
 193 634 l 1
 249 634 l 1
 221 456 l 1
 347 456 l 1
 375 634 l 1
 431 634 l 1
 403 456 l 1
 491 456 l 1
337 404 m 1
 213 404 l 1
 193 276 l 1
 317 276 l 1
 337 404 l 1
EndSplineSet
Validated: 1
EndChar

StartChar: dollar
Encoding: 36 36 5
Width: 537
GlyphClass: 2
Flags: MW
HStem: 2 71
VStem: 53 90 241 53 495 96
LayerCount: 2
Fore
SplineSet
495 186 m 0
 495 130 461 78 417 46 c 0
 379 22 339 10 297 4 c 1
 297 -88 l 1
 241 -88 l 1
 241 2 l 1
 181 2 121 6 61 16 c 1
 61 134 l 1
 117 90 169 72 241 70 c 1
 241 322 l 1
 159 356 53 400 53 506 c 0
 53 560 87 606 131 632 c 0
 165 652 203 662 241 664 c 1
 241 746 l 1
 297 746 l 1
 297 664 l 1
 339 662 383 656 425 642 c 1
 425 536 l 1
 389 570 345 586 297 592 c 1
 297 406 l 1
 337 386 377 366 413 340 c 0
 467 302 495 252 495 186 c 0
241 426 m 1
 241 592 l 1
 221 590 203 588 185 578 c 0
 165 566 147 542 147 518 c 0
 147 466 203 444 241 426 c 1
399 184 m 0
 399 244 341 274 297 296 c 1
 297 76 l 1
 319 84 341 92 361 108 c 0
 383 128 399 156 399 184 c 0
EndSplineSet
Validated: 1
EndChar

StartChar: percent
Encoding: 37 37 6
Width: 710
GlyphClass: 2
Flags: MW
HStem: -8 55 252 55 416 55 674 55
VStem: 34 77 244 77 466 77 674 77
LayerCount: 2
Fore
SplineSet
320 512 m 0
 320 432 258 360 180 360 c 0
 92 360 34 430 34 516 c 0
 34 600 94 674 182 674 c 0
 270 674 320 594 320 512 c 0
546 666 m 1
 218 0 l 1
 158 0 l 1
 486 666 l 1
 546 666 l 1
674 144 m 0
 674 64 612 -8 534 -8 c 0
 446 -8 388 62 388 148 c 0
 388 232 448 306 536 306 c 0
 624 306 674 226 674 144 c 0
244 516 m 0
 244 560 232 620 176 620 c 0
 124 620 112 556 112 514 c 0
 112 470 124 416 178 416 c 0
 230 416 244 474 244 516 c 0
598 148 m 0
 598 192 586 252 530 252 c 0
 478 252 466 188 466 146 c 0
 466 102 478 48 532 48 c 0
 584 48 598 106 598 148 c 0
EndSplineSet
Validated: 1
EndChar

StartChar: ampersand
Encoding: 38 38 7
Width: 826
GlyphClass: 2
Flags: MW
HStem: -14 71 680 64
VStem: 41 102 323 77
LayerCount: 2
Fore
SplineSet
807 0 m 1
 773 -2 l 2
 753 -2 731 -4 709 -4 c 0
 681 -4 653 -4 627 6 c 0
 571 24 523 70 481 106 c 1
 429 24 367 -14 269 -14 c 0
 145 -14 41 54 41 188 c 0
 41 280 113 346 179 400 c 1
 143 438 99 484 99 542 c 0
 99 626 179 680 257 680 c 0
 333 680 403 630 403 548 c 0
 403 514 393 480 371 452 c 0
 355 430 335 412 315 394 c 1
 407 304 499 212 599 132 c 0
 665 82 733 38 807 0 c 1
323 556 m 0
 323 592 291 618 255 618 c 0
 221 618 185 602 185 564 c 0
 185 518 227 482 257 454 c 1
 289 478 323 512 323 556 c 0
439 142 m 1
 239 338 l 1
 191 302 147 250 147 186 c 0
 147 110 209 58 283 58 c 0
 349 58 401 90 439 142 c 1
EndSplineSet
Validated: 1
EndChar

StartChar: quoteright
Encoding: 8217 8217 8
Width: 222
GlyphClass: 2
Flags: MW
VStem: 47 125
LayerCount: 2
Fore
SplineSet
171 622 m 0
 171 584 141 540 115 508 c 1
 94 472 75 484 75 484 c 1
 53 490 l 1
 63 504 109 548 109 576 c 0
 109 580 103 582 97 584 c 0
 69 588 47 606 47 638 c 0
 47 670 79 692 105 692 c 0
 149 692 171 658 171 622 c 0
EndSplineSet
Validated: 33
PairPos2: "'kern' Horizontal Kerning lookup 0 subtable" quoteright dx=0 dy=0 dh=0 dv=0 dx=0 dy=0 dh=0 dv=0
EndChar

StartChar: parenleft
Encoding: 40 40 9
Width: 314
GlyphClass: 2
Flags: MW
HStem: 668 20
VStem: 56 90
LayerCount: 2
Fore
SplineSet
272 -152 m 1
 194 -152 l 1
 114 -30 56 110 56 258 c 0
 56 405 113 561 194 668 c 1
 272 668 l 1
 194 546 144 406 144 262 c 0
 144 116 186 -34 272 -152 c 1
EndSplineSet
Validated: 1
EndChar

StartChar: parenright
Encoding: 41 41 10
Width: 314
GlyphClass: 2
Flags: MW
HStem: 668 20
VStem: 267 90
LayerCount: 2
Fore
SplineSet
267 258 m 0
 267 110 209 -30 129 -152 c 1
 51 -152 l 1
 137 -34 179 116 179 262 c 0
 179 406 129 546 51 668 c 1
 129 668 l 1
 210 561 267 405 267 258 c 0
EndSplineSet
Validated: 1
EndChar

StartChar: asterisk
Encoding: 42 42 11
Width: 388
GlyphClass: 2
Flags: MW
HStem: 666 20
VStem: 212 39
LayerCount: 2
Fore
SplineSet
334 540 m 1
 310 540 l 2
 288 540 266 534 246 528 c 2
 226 522 l 1
 240 506 l 1
 258 484 l 2
 272 468 288 456 308 448 c 1
 240 400 l 1
 234 430 222 456 204 480 c 2
 192 498 l 1
 178 480 l 2
 162 456 150 428 144 400 c 1
 78 448 l 1
 108 460 130 480 148 504 c 2
 160 522 l 1
 138 528 l 2
 120 534 100 536 82 538 c 0
 70 538 60 536 48 534 c 1
 74 612 l 1
 96 590 122 578 152 568 c 2
 172 562 l 1
 172 584 l 2
 172 612 162 642 148 666 c 1
 232 666 l 1
 216 642 212 612 212 584 c 2
 212 562 l 1
 232 568 l 2
 262 578 288 590 308 616 c 1
 334 540 l 1
EndSplineSet
Validated: 1
EndChar

StartChar: plus
Encoding: 43 43 12
Width: 562
GlyphClass: 2
Flags: MW
HStem: 377 80
VStem: 320 77
LayerCount: 2
Fore
SplineSet
507 391 m 1
 451 313 l 2
 443 301 423 297 409 297 c 0
 403 297 395 299 391 299 c 2
 317 300 l 1
 316 173 l 2
 318 151 322 129 330 107 c 1
 258 165 l 2
 240 179 240 201 240 223 c 2
 240 300 l 1
 115 301 l 2
 93 299 71 295 49 287 c 1
 107 359 l 2
 121 377 143 377 165 377 c 2
 240 377 l 1
 240 501 l 2
 240 523 234 545 226 565 c 1
 304 509 l 2
 316 501 320 481 320 467 c 0
 320 461 318 453 318 449 c 2
 317 377 l 1
 443 377 l 2
 465 377 487 383 507 391 c 1
EndSplineSet
Validated: 1
EndChar

StartChar: comma
Encoding: 44 44 13
Width: 252
GlyphClass: 2
Flags: MW
HStem: 118 116
VStem: 186 125
LayerCount: 2
Fore
SplineSet
186 44 m 0
 186 -6 150 -54 116 -88 c 0
 106 -98 98 -106 82 -106 c 0
 72 -106 60 -104 48 -102 c 1
 60 -92 122 -26 122 -6 c 2
 122 -4 l 2
 120 -2 116 2 112 2 c 2
 102 6 l 1
 76 12 60 36 60 60 c 0
 60 94 90 118 122 118 c 0
 164 118 186 82 186 44 c 0
EndSplineSet
Validated: 1
EndChar

StartChar: hyphen
Encoding: 45 45 14
Width: 314
GlyphClass: 2
Flags: MW
HStem: 212 80<209 219>
LayerCount: 2
Fore
SplineSet
310 306 m 1
 254 228 l 2
 246 216 226 212 212 212 c 0
 206 212 198 214 194 214 c 2
 66 216 l 2
 44 214 22 210 0 202 c 1
 58 274 l 2
 72 292 94 292 116 292 c 2
 246 292 l 2
 268 292 290 298 310 306 c 1
EndSplineSet
Validated: 1
EndChar

StartChar: period
Encoding: 46 46 15
Width: 252
GlyphClass: 2
Flags: MW
HStem: -10 126
VStem: 60 125
LayerCount: 2
Fore
SplineSet
186 54 m 0
 186 20 158 -10 124 -10 c 0
 90 -10 60 20 60 54 c 0
 60 88 90 118 124 118 c 0
 158 118 186 88 186 54 c 0
EndSplineSet
Validated: 1
EndChar

StartChar: slash
Encoding: 47 47 16
Width: 366
GlyphClass: 2
Flags: MW
HStem: 668 20
LayerCount: 2
Fore
SplineSet
350 668 m 1
 32 -140 l 1
 -44 -140 l 1
 276 668 l 1
 350 668 l 1
EndSplineSet
Validated: 1
EndChar

StartChar: zero
Encoding: 48 48 17
Width: 592
GlyphClass: 2
Flags: MW
HStem: -18 86<244 366 235 392> 684 80
VStem: 26 108<272 361 272 389> 564 114
LayerCount: 2
Fore
SplineSet
564 350 m 0
 564 186 486 -18 298 -18 c 0
 190 -18 26 76 26 318 c 0
 26 460 84 684 290 684 c 0
 512 684 564 444 564 350 c 0
454 344 m 0
 454 448 410 602 292 602 c 0
 148 602 134 400 134 322 c 0
 134 222 172 68 298 68 c 0
 434 68 454 242 454 344 c 0
EndSplineSet
Validated: 1
EndChar

StartChar: one
Encoding: 49 49 18
Width: 592
GlyphClass: 2
Flags: MW
HStem: 0 20
VStem: 358 102
LayerCount: 2
Fore
SplineSet
408 0 m 1
 196 0 l 1
 254 36 256 66 256 132 c 2
 256 534 l 1
 138 534 l 1
 228 570 306 632 358 716 c 1
 358 132 l 2
 358 78 360 34 408 0 c 1
EndSplineSet
Validated: 1
EndChar

StartChar: two
Encoding: 50 50 19
Width: 592
GlyphClass: 2
Flags: MW
HStem: 0 71 684 80
VStem: 478 125
LayerCount: 2
Fore
SplineSet
558 120 m 1
 504 0 l 1
 38 0 l 1
 300 380 l 2
 326 418 358 460 358 508 c 0
 358 570 300 602 244 602 c 0
 180 602 124 570 70 540 c 1
 130 664 l 1
 174 676 218 684 264 684 c 0
 378 684 478 628 478 528 c 0
 478 460 396 348 376 318 c 2
 214 84 l 1
 260 78 306 72 354 72 c 0
 424 72 494 88 558 120 c 1
EndSplineSet
Validated: 1
EndChar

StartChar: three
Encoding: 51 51 20
Width: 592
GlyphClass: 2
Flags: MW
HStem: -18 80 402 71 684 80
VStem: 482 108
LayerCount: 2
Fore
SplineSet
532 204 m 0
 532 90 444 -18 206 -18 c 0
 172 -18 136 -14 102 -10 c 1
 52 112 l 1
 108 86 170 66 232 66 c 0
 320 66 420 106 420 208 c 0
 420 266 378 330 256 330 c 0
 228 330 202 326 176 320 c 1
 176 404 l 1
 196 402 216 402 236 402 c 0
 274 402 374 418 374 504 c 0
 374 572 302 604 246 604 c 0
 190 604 138 582 90 554 c 1
 130 660 l 1
 174 678 220 684 266 684 c 0
 360 684 482 638 482 526 c 0
 482 420 384 392 358 382 c 1
 450 362 532 312 532 204 c 0
EndSplineSet
Validated: 1
EndChar

StartChar: four
Encoding: 52 52 21
Width: 592
GlyphClass: 2
Flags: MW
HStem: 0 20 216 80 668 20
VStem: 455 96
LayerCount: 2
Fore
SplineSet
585 260 m 1
 535 138 l 1
 455 138 l 1
 455 98 l 2
 455 60 467 22 501 0 c 1
 309 0 l 1
 351 18 359 42 359 86 c 2
 359 138 l 1
 5 138 l 1
 321 668 l 1
 455 668 l 1
 455 216 l 1
 503 220 545 232 585 260 c 1
359 216 m 1
 359 594 l 1
 145 224 l 1
 205 216 265 216 325 216 c 2
 359 216 l 1
EndSplineSet
Validated: 1
EndChar

StartChar: five
Encoding: 53 53 22
Width: 592
GlyphClass: 2
Flags: MW
HStem: -18 80 428 80 666 80
VStem: 95 102 532 114
LayerCount: 2
Fore
SplineSet
532 218 m 0
 532 54 374 -18 230 -18 c 0
 186 -18 144 -10 100 0 c 1
 52 104 l 1
 106 76 164 60 222 60 c 0
 324 60 420 106 420 212 c 0
 420 312 318 346 234 346 c 0
 182 346 130 336 84 316 c 1
 106 666 l 1
 472 666 l 1
 472 544 l 1
 428 586 364 588 308 588 c 0
 270 588 234 586 198 582 c 1
 188 414 l 1
 220 422 252 428 286 428 c 0
 438 428 532 336 532 218 c 0
EndSplineSet
Validated: 1
EndChar

StartChar: six
Encoding: 54 54 23
Width: 592
GlyphClass: 2
Flags: MW
HStem: -18 71 444 71
VStem: 37 102 561 96
LayerCount: 2
Fore
SplineSet
561 226 m 0
 561 86 445 -18 307 -18 c 0
 121 -18 37 136 37 280 c 0
 37 534 327 672 497 686 c 1
 449 622 l 1
 293 588 143 454 143 268 c 0
 143 162 201 54 317 54 c 0
 405 54 465 118 465 206 c 0
 465 308 403 374 305 374 c 0
 267 374 223 360 191 342 c 1
 255 422 l 1
 283 436 313 444 345 444 c 0
 471 444 561 354 561 226 c 0
EndSplineSet
Validated: 1
EndChar

StartChar: seven
Encoding: 55 55 24
Width: 592
GlyphClass: 2
Flags: MW
HStem: 0 20 668 71
LayerCount: 2
Fore
SplineSet
540 668 m 1
 398 338 l 2
 364 260 330 180 300 100 c 0
 294 82 286 64 284 44 c 1
 282 40 l 1
 282 24 298 10 310 0 c 1
 142 0 l 1
 398 582 l 1
 346 592 294 596 242 596 c 0
 176 596 112 582 56 546 c 1
 102 668 l 1
 540 668 l 1
EndSplineSet
Validated: 1
EndChar

StartChar: eight
Encoding: 56 56 25
Width: 592
GlyphClass: 2
Flags: MW
HStem: -18 71 684 64
VStem: 29 102<137 215 137 219> 569 102
LayerCount: 2
Fore
SplineSet
569 178 m 0
 569 16 377 -18 303 -18 c 0
 173 -18 29 44 29 172 c 0
 29 266 103 318 181 350 c 1
 117 378 53 428 53 504 c 0
 53 630 187 684 295 684 c 0
 397 684 531 636 531 514 c 0
 531 442 467 396 407 366 c 1
 493 324 569 284 569 178 c 0
437 506 m 0
 437 582 357 620 291 620 c 0
 197 620 155 580 155 528 c 0
 155 438 305 402 345 390 c 1
 387 414 437 454 437 506 c 0
465 166 m 0
 465 270 293 306 243 320 c 1
 187 294 131 248 131 182 c 0
 131 92 221 48 305 48 c 0
 377 48 465 82 465 166 c 0
EndSplineSet
Validated: 1
EndChar

StartChar: nine
Encoding: 57 57 26
Width: 592
GlyphClass: 2
Flags: MW
HStem: 226 71 684 71
VStem: 35 102 561 102
LayerCount: 2
Fore
SplineSet
561 398 m 0
 561 164 321 2 99 -22 c 1
 149 42 l 1
 217 50 457 162 457 394 c 0
 457 498 401 612 285 612 c 0
 205 612 135 546 135 464 c 0
 135 376 191 296 285 296 c 0
 325 296 363 306 397 326 c 1
 329 240 l 1
 303 232 277 226 247 226 c 0
 123 226 35 320 35 444 c 0
 35 550 123 684 285 684 c 0
 457 684 561 568 561 398 c 0
EndSplineSet
Validated: 1
EndChar

StartChar: colon
Encoding: 58 58 27
Width: 252
GlyphClass: 2
Flags: MW
HStem: -10 126 452 126
VStem: 60 125
LayerCount: 2
Fore
SplineSet
190 388 m 0
 190 354 162 326 128 326 c 0
 94 326 64 354 64 388 c 0
 64 422 94 452 128 452 c 0
 162 452 190 422 190 388 c 0
186 54 m 0
 186 20 158 -10 124 -10 c 0
 90 -10 60 20 60 54 c 0
 60 88 90 118 124 118 c 0
 158 118 186 88 186 54 c 0
EndSplineSet
Validated: 1
EndChar

StartChar: semicolon
Encoding: 59 59 28
Width: 252
GlyphClass: 2
Flags: MW
HStem: 2 116<112 114> 450 126
VStem: 182 125
LayerCount: 2
Fore
SplineSet
182 388 m 0
 182 354 154 324 120 324 c 0
 86 324 56 354 56 388 c 0
 56 422 86 450 120 450 c 0
 154 450 182 422 182 388 c 0
186 44 m 0
 186 -6 150 -54 116 -88 c 0
 106 -98 98 -106 82 -106 c 0
 72 -106 60 -104 48 -102 c 1
 60 -92 122 -26 122 -6 c 2
 122 -4 l 2
 120 -2 116 2 112 2 c 2
 102 6 l 1
 76 12 60 36 60 60 c 0
 60 94 90 118 122 118 c 0
 164 118 186 82 186 44 c 0
EndSplineSet
Validated: 1
EndChar

StartChar: less
Encoding: 60 60 29
Width: 442
GlyphClass: 2
Flags: W
LayerCount: 2
Fore
SplineSet
384 119 m 1
 38 287 l 1
 38 349 l 1
 384 515 l 1
 384 443 l 1
 116 317 l 1
 384 192 l 1
 384 119 l 1
EndSplineSet
Validated: 1
EndChar

StartChar: equal
Encoding: 61 61 30
Width: 464
GlyphClass: 2
Flags: MW
HStem: 225 80 437 80
LayerCount: 2
Fore
SplineSet
420 451 m 1
 364 373 l 2
 356 361 336 357 322 357 c 0
 316 357 308 359 304 359 c 2
 112 361 l 2
 90 359 68 355 46 347 c 1
 104 419 l 2
 118 437 140 437 162 437 c 2
 356 437 l 2
 378 437 400 443 420 451 c 1
404 317 m 1
 348 239 l 2
 340 227 320 223 306 223 c 0
 300 223 292 225 288 225 c 2
 96 227 l 2
 74 225 52 221 30 213 c 1
 88 285 l 2
 102 303 124 303 146 303 c 2
 340 303 l 2
 362 303 384 309 404 317 c 1
EndSplineSet
Validated: 1
EndChar

StartChar: greater
Encoding: 62 62 31
Width: 442
GlyphClass: 2
Flags: W
LayerCount: 2
Fore
SplineSet
394 287 m 1
 48 119 l 1
 48 192 l 1
 316 317 l 1
 48 443 l 1
 48 515 l 1
 394 349 l 1
 394 287 l 1
EndSplineSet
Validated: 1
EndChar

StartChar: question
Encoding: 63 63 32
Width: 452
GlyphClass: 2
Flags: MW
HStem: -16 126<179 213> 684 71
VStem: 222 90 420 102
LayerCount: 2
Fore
SplineSet
420 504 m 0
 420 348 222 290 222 206 c 0
 222 190 224 174 228 160 c 1
 148 152 l 1
 144 168 144 186 144 204 c 0
 144 258 186 298 228 334 c 0
 274 376 320 418 320 484 c 0
 320 576 230 612 178 612 c 0
 126 612 82 592 38 568 c 1
 94 662 l 1
 126 674 156 684 190 684 c 0
 298 684 420 628 420 504 c 0
258 48 m 0
 258 14 230 -16 196 -16 c 0
 162 -16 132 14 132 48 c 0
 132 82 162 110 196 110 c 0
 230 110 258 82 258 48 c 0
EndSplineSet
Validated: 1
EndChar

StartChar: at
Encoding: 64 64 33
Width: 774
GlyphClass: 2
Flags: MW
HStem: -18 46 134 39 532 32 684 46
VStem: 40 53 190 77 712 53
LayerCount: 2
Fore
SplineSet
712 394 m 0
 712 242 582 134 496 134 c 0
 456 134 424 152 414 184 c 1
 384 156 346 134 304 134 c 0
 230 134 190 200 190 266 c 0
 190 378 272 532 398 532 c 0
 438 532 478 516 494 480 c 1
 506 518 l 1
 588 518 l 1
 498 246 l 2
 494 234 484 212 484 196 c 0
 484 184 492 172 510 172 c 0
 552 172 660 248 660 386 c 0
 660 540 520 636 374 636 c 0
 200 636 92 480 92 334 c 0
 92 150 238 30 374 30 c 0
 490 30 592 80 658 174 c 1
 704 174 l 1
 648 50 506 -18 374 -18 c 0
 188 -18 40 148 40 330 c 0
 40 500 164 684 376 684 c 0
 542 684 712 574 712 394 c 0
474 434 m 2
 474 438 l 2
 474 468 454 500 420 500 c 0
 330 500 268 296 268 224 c 0
 268 192 284 166 318 166 c 0
 370 166 404 222 418 266 c 2
 470 420 l 2
 472 424 474 428 474 434 c 2
EndSplineSet
Validated: 1
EndChar

StartChar: A
Encoding: 65 65 34
Width: 742
GlyphClass: 2
Flags: MW
HStem: 0 20 252 64<252 458 252 484 228 458> 668 20
LayerCount: 2
Fore
SplineSet
732 0 m 1
 524 0 l 1
 538 8 560 18 560 36 c 0
 560 56 550 78 544 96 c 2
 484 252 l 1
 228 252 l 1
 170 96 l 2
 164 82 158 64 158 46 c 0
 158 24 176 10 196 0 c 1
 10 0 l 1
 66 34 80 78 104 136 c 2
 282 582 l 2
 288 598 294 614 294 632 c 0
 294 650 278 660 262 668 c 1
 422 668 l 1
 638 136 l 2
 660 80 678 34 732 0 c 1
458 316 m 1
 356 582 l 1
 252 316 l 1
 458 316 l 1
EndSplineSet
Validated: 1
EndChar

StartChar: B
Encoding: 66 66 35
Width: 628
GlyphClass: 2
Flags: MW
HStem: 0 71 398 64 668 64
VStem: 98 102<102 130 130 332 398 560 560 572> 570 114
LayerCount: 2
Fore
SplineSet
570 216 m 0
 570 112 496 44 416 18 c 0
 368 2 316 0 266 0 c 2
 54 0 l 1
 70 10 82 22 90 40 c 0
 96 60 98 80 98 102 c 2
 98 130 l 1
 98 560 l 2
 98 584 96 612 88 632 c 0
 80 650 68 660 54 668 c 1
 304 668 l 2
 432 668 506 604 506 514 c 0
 506 430 420 396 406 388 c 1
 480 376 570 314 570 216 c 0
396 508 m 0
 396 560 354 604 260 604 c 0
 240 604 200 598 200 598 c 1
 200 398 l 1
 242 398 l 2
 270 398 396 402 396 508 c 0
456 200 m 0
 456 274 408 336 266 336 c 0
 254 336 200 332 200 332 c 1
 200 80 l 1
 230 76 260 72 292 72 c 0
 338 72 456 86 456 200 c 0
EndSplineSet
Validated: 1
EndChar

StartChar: C
Encoding: 67 67 36
Width: 648
GlyphClass: 2
Flags: MW
HStem: -18 80 684 86
VStem: 40 114<262 422 262 442>
LayerCount: 2
Fore
SplineSet
632 132 m 1
 580 14 l 1
 526 -10 472 -18 414 -18 c 0
 210 -18 40 100 40 334 c 0
 40 550 192 684 402 684 c 0
 462 684 522 672 580 658 c 1
 580 542 l 1
 518 578 460 598 386 598 c 0
 256 598 154 488 154 356 c 0
 154 168 286 66 406 66 c 0
 486 66 560 94 632 132 c 1
EndSplineSet
Validated: 1
EndChar

StartChar: D
Encoding: 68 68 37
Width: 722
GlyphClass: 2
Flags: MW
HStem: 4 71 668 71
VStem: 98 102<106 134 134 560 560 572> 678 114
LayerCount: 2
Fore
SplineSet
678 338 m 0
 678 154 550 16 334 4 c 0
 296 2 256 0 216 0 c 2
 54 0 l 1
 68 14 84 26 90 44 c 0
 96 64 98 84 98 106 c 2
 98 134 l 1
 98 560 l 2
 98 584 96 612 88 632 c 0
 80 648 68 660 54 668 c 1
 316 668 l 2
 512 668 678 546 678 338 c 0
562 322 m 0
 562 484 468 600 298 600 c 0
 244 600 200 590 200 590 c 1
 200 84 l 1
 232 78 266 76 298 76 c 0
 436 76 562 158 562 322 c 0
EndSplineSet
Validated: 1
EndChar

StartChar: E
Encoding: 69 69 38
Width: 544
GlyphClass: 2
Flags: MW
HStem: 0 71 400 71 668 71
VStem: 98 102<102 326 400 560 560 572>
LayerCount: 2
Fore
SplineSet
522 132 m 1
 476 0 l 1
 54 0 l 1
 70 10 82 22 90 40 c 0
 96 60 98 82 98 102 c 2
 98 560 l 2
 98 584 96 612 88 632 c 0
 80 648 68 660 54 668 c 1
 390 668 l 2
 404 668 416 668 428 674 c 1
 428 556 l 1
 390 592 350 596 300 596 c 0
 266 596 234 594 200 588 c 1
 200 400 l 1
 336 400 l 2
 348 400 358 400 370 406 c 1
 370 298 l 1
 352 324 320 326 290 326 c 2
 200 326 l 1
 200 86 l 1
 242 78 282 74 324 74 c 0
 396 74 464 88 522 132 c 1
EndSplineSet
Validated: 1
EndChar

StartChar: F
Encoding: 70 70 39
Width: 460
GlyphClass: 2
Flags: MW
HStem: 0 20 400 71 668 71
VStem: 98 102<127 130 130 326 400 560 560 572>
LayerCount: 2
Fore
SplineSet
428 556 m 1
 390 592 350 596 300 596 c 0
 266 596 234 594 200 588 c 1
 200 400 l 1
 336 400 l 2
 348 400 358 400 370 406 c 1
 370 298 l 1
 352 324 320 326 290 326 c 2
 200 326 l 1
 200 130 l 2
 200 124 198 114 198 108 c 0
 198 84 202 56 212 36 c 0
 218 18 230 8 246 0 c 1
 54 0 l 1
 70 10 82 22 90 40 c 0
 96 60 98 82 98 102 c 2
 98 560 l 2
 98 584 96 612 88 632 c 0
 80 648 68 660 54 668 c 1
 390 668 l 2
 404 668 416 668 428 674 c 1
 428 556 l 1
EndSplineSet
Validated: 1
EndChar

StartChar: G
Encoding: 71 71 40
Width: 762
GlyphClass: 2
Flags: MW
HStem: -18 71 684 71
VStem: 40 114<255 418 255 446> 690 102
LayerCount: 2
Fore
SplineSet
694 14 m 1
 684 12 672 10 660 8 c 0
 594 -6 526 -18 458 -18 c 0
 272 -18 40 76 40 322 c 0
 40 570 256 684 452 684 c 0
 508 684 564 676 618 666 c 1
 618 550 l 1
 600 566 548 612 434 612 c 0
 274 612 154 500 154 336 c 0
 154 174 300 56 456 56 c 0
 520 56 578 72 588 76 c 1
 588 230 l 2
 588 254 586 284 576 306 c 0
 570 322 558 332 542 340 c 1
 694 340 l 1
 690 330 690 280 690 280 c 1
 690 50 l 2
 690 38 690 26 694 14 c 1
EndSplineSet
Validated: 1
EndChar

StartChar: H
Encoding: 72 72 41
Width: 774
GlyphClass: 2
Flags: MW
HStem: 0 20 400 80 668 20
VStem: 98 102<127 130 130 322 400 538> 666 102
LayerCount: 2
Fore
SplineSet
712 0 m 1
 520 0 l 1
 536 10 548 22 556 40 c 0
 562 60 564 82 564 102 c 2
 564 322 l 1
 200 322 l 1
 200 130 l 2
 200 124 198 114 198 108 c 0
 198 84 202 56 212 36 c 0
 218 18 230 8 246 0 c 1
 54 0 l 1
 70 10 82 22 90 40 c 0
 96 60 98 82 98 102 c 2
 98 560 l 2
 98 584 96 612 88 632 c 0
 80 648 68 660 54 668 c 1
 246 668 l 1
 228 658 216 646 210 628 c 0
 200 600 200 566 200 538 c 2
 200 400 l 1
 564 400 l 1
 564 560 l 2
 564 584 562 612 554 632 c 0
 546 648 534 660 520 668 c 1
 712 668 l 1
 694 658 682 646 676 628 c 0
 666 600 666 566 666 538 c 2
 666 130 l 2
 666 100 666 64 678 36 c 0
 684 18 696 8 712 0 c 1
EndSplineSet
Validated: 1
EndChar

StartChar: I
Encoding: 73 73 42
Width: 304
GlyphClass: 2
Flags: MW
HStem: 0 20 668 20
VStem: 100 102<127 130 130 538>
LayerCount: 2
Fore
SplineSet
246 0 m 1
 54 0 l 1
 72 10 84 22 90 40 c 0
 98 60 100 84 100 106 c 2
 100 558 l 2
 100 582 98 612 88 632 c 0
 82 648 70 660 54 668 c 1
 246 668 l 1
 230 658 218 646 210 628 c 0
 204 608 200 582 200 562 c 0
 200 554 202 544 202 538 c 2
 202 130 l 2
 202 124 200 114 200 106 c 0
 200 82 204 56 212 36 c 0
 220 18 232 8 246 0 c 1
EndSplineSet
Validated: 1
EndChar

StartChar: J
Encoding: 74 74 43
Width: 294
GlyphClass: 2
Flags: MW
HStem: 668 20
VStem: 194 102
LayerCount: 2
Fore
SplineSet
238 668 m 1
 222 658 210 646 202 628 c 0
 196 608 192 582 192 562 c 0
 192 554 194 544 194 538 c 2
 194 -42 l 2
 194 -106 186 -144 128 -182 c 0
 80 -212 26 -230 -32 -234 c 1
 4 -212 38 -184 62 -148 c 0
 92 -104 92 -52 92 0 c 2
 92 558 l 2
 92 582 90 612 80 632 c 0
 74 650 62 660 46 668 c 1
 238 668 l 1
EndSplineSet
Validated: 1
EndChar

StartChar: K
Encoding: 75 75 44
Width: 638
GlyphClass: 2
Flags: MW
HStem: -6 20 668 20
VStem: 98 102<127 130 130 538>
LayerCount: 2
Fore
SplineSet
652 0 m 1
 620 -4 586 -6 554 -6 c 0
 516 -6 482 6 454 32 c 0
 438 46 426 64 412 82 c 2
 328 196 l 1
 218 348 l 1
 358 534 l 2
 372 554 408 600 408 624 c 0
 408 644 392 658 376 668 c 1
 558 668 l 1
 326 368 l 1
 346 340 l 1
 428 230 l 2
 464 180 502 128 546 84 c 0
 578 52 614 26 652 0 c 1
246 0 m 1
 54 0 l 1
 70 10 82 22 90 40 c 0
 96 60 98 82 98 102 c 2
 98 560 l 2
 98 584 96 612 88 632 c 0
 80 648 68 658 54 668 c 1
 246 668 l 1
 228 658 216 646 210 628 c 0
 200 600 200 566 200 538 c 2
 200 130 l 2
 200 124 198 114 198 108 c 0
 198 84 202 56 212 34 c 0
 218 18 230 8 246 0 c 1
EndSplineSet
Validated: 1
EndChar

StartChar: L
Encoding: 76 76 45
Width: 534
GlyphClass: 2
Flags: MW
HStem: 0 71 668 20
VStem: 98 102<102 538 82 560 82 572>
LayerCount: 2
Fore
SplineSet
520 134 m 1
 468 0 l 1
 54 0 l 1
 70 10 82 22 90 40 c 0
 96 60 98 82 98 102 c 2
 98 560 l 2
 98 584 96 612 88 632 c 0
 80 648 68 660 54 668 c 1
 246 668 l 1
 228 658 216 646 210 628 c 0
 200 600 200 566 200 538 c 2
 200 82 l 1
 250 76 300 72 350 72 c 0
 390 72 434 84 470 102 c 0
 488 112 504 124 520 134 c 1
EndSplineSet
Validated: 1
EndChar

StartChar: M
Encoding: 77 77 46
Width: 972
GlyphClass: 2
Flags: MW
HStem: 668 20
VStem: 148 143 822 143
LayerCount: 2
Fore
SplineSet
940 0 m 1
 744 0 l 1
 776 14 786 44 786 76 c 2
 786 96 l 2
 786 108 784 122 782 134 c 2
 728 568 l 1
 502 -14 l 1
 460 24 440 48 418 98 c 2
 220 568 l 1
 160 120 l 2
 158 106 156 92 156 78 c 0
 156 76 154 72 154 70 c 0
 154 38 168 18 194 0 c 1
 30 0 l 1
 66 38 78 84 84 134 c 2
 84 134 148 596 148 614 c 0
 148 638 132 654 114 668 c 1
 290 668 l 1
 290 654 296 644 300 632 c 2
 494 174 l 1
 668 618 l 2
 674 634 678 650 678 668 c 1
 854 668 l 1
 830 656 822 630 822 604 c 0
 822 592 824 580 824 568 c 2
 890 88 l 2
 896 52 912 24 940 0 c 1
EndSplineSet
Validated: 1
EndChar

StartChar: N
Encoding: 78 78 47
Width: 774
GlyphClass: 2
Flags: MW
HStem: 668 20
VStem: 98 77 666 77
LayerCount: 2
Fore
SplineSet
720 668 m 1
 674 638 666 600 666 548 c 2
 666 -34 l 1
 606 -12 568 24 528 74 c 2
 172 524 l 1
 172 120 l 2
 172 68 180 30 226 0 c 1
 46 0 l 1
 92 30 98 68 98 120 c 2
 98 548 l 2
 98 600 92 638 46 668 c 1
 194 668 l 1
 200 654 210 642 218 630 c 2
 592 152 l 1
 592 548 l 2
 592 600 586 638 540 668 c 1
 720 668 l 1
EndSplineSet
Validated: 1
EndChar

StartChar: O
Encoding: 79 79 48
Width: 826
GlyphClass: 2
Flags: MW
HStem: -18 71 684 71
VStem: 40 114<252 422> 782 114
LayerCount: 2
Fore
SplineSet
782 334 m 0
 782 98 576 -18 404 -18 c 0
 296 -18 40 58 40 336 c 0
 40 508 184 684 418 684 c 0
 598 684 782 564 782 334 c 0
668 326 m 0
 668 516 532 612 410 612 c 0
 280 612 154 526 154 338 c 0
 154 166 286 56 408 56 c 0
 570 56 668 168 668 326 c 0
EndSplineSet
Validated: 1
EndChar

StartChar: P
Encoding: 80 80 49
Width: 564
GlyphClass: 2
Flags: MW
HStem: 0 20 668 71
VStem: 98 102<102 120 120 130 130 560 560 572> 532 114
LayerCount: 2
Fore
SplineSet
532 490 m 0
 532 342 366 300 308 300 c 0
 282 300 258 304 234 314 c 1
 280 320 418 344 418 476 c 0
 418 560 346 598 272 598 c 0
 248 598 224 594 200 590 c 1
 200 120 l 2
 200 68 208 30 254 0 c 1
 54 0 l 1
 70 10 82 22 90 40 c 0
 96 60 98 80 98 102 c 2
 98 130 l 1
 98 560 l 2
 98 584 96 612 88 632 c 0
 80 648 68 660 54 668 c 1
 310 668 l 2
 420 668 532 606 532 490 c 0
EndSplineSet
Validated: 1
EndChar

StartChar: Q
Encoding: 81 81 50
Width: 826
GlyphClass: 2
Flags: MW
HStem: -184 55 -18 71 684 71
VStem: 40 114<289 435 289 442> 784 114
LayerCount: 2
Fore
SplineSet
934 -132 m 1
 896 -166 856 -184 804 -184 c 0
 698 -184 530 -46 482 -8 c 1
 452 -14 422 -18 392 -18 c 0
 296 -18 40 54 40 340 c 0
 40 544 222 684 416 684 c 0
 622 684 784 538 784 338 c 0
 784 146 638 54 602 40 c 1
 662 -16 726 -66 798 -102 c 0
 842 -124 888 -132 934 -132 c 1
668 320 m 0
 668 432 600 612 410 612 c 0
 270 612 154 506 154 364 c 0
 154 214 238 56 394 56 c 0
 574 56 668 170 668 320 c 0
EndSplineSet
Validated: 1
EndChar

StartChar: R
Encoding: 82 82 51
Width: 616
GlyphClass: 2
Flags: MW
HStem: -6 20 668 64
VStem: 98 102<127 130 127 130 130 560 560 572> 508 114
LayerCount: 2
Fore
SplineSet
652 0 m 1
 622 -2 l 2
 604 -4 586 -6 568 -6 c 0
 530 -6 502 0 472 24 c 0
 416 68 348 164 306 222 c 0
 276 262 248 304 224 348 c 1
 306 362 394 398 394 494 c 0
 394 526 378 604 264 604 c 0
 242 604 222 602 200 598 c 1
 200 130 l 2
 200 124 198 114 198 108 c 0
 198 84 202 56 212 36 c 0
 218 20 230 8 246 0 c 1
 54 0 l 1
 70 10 82 22 90 40 c 0
 96 60 98 80 98 102 c 2
 98 130 l 1
 98 560 l 2
 98 584 96 612 88 632 c 0
 80 650 68 660 54 668 c 1
 294 668 l 2
 404 668 508 616 508 504 c 0
 508 378 368 334 342 326 c 1
 448 192 l 2
 502 124 562 52 640 8 c 1
 652 0 l 1
EndSplineSet
Validated: 1
EndChar

StartChar: S
Encoding: 83 83 52
Width: 564
GlyphClass: 2
Flags: MW
HStem: -18 80 684 71
VStem: 54 114<451 553 451 559> 520 114
LayerCount: 2
Fore
SplineSet
520 190 m 0
 520 62 378 -18 260 -18 c 0
 194 -18 130 -8 66 14 c 1
 36 140 l 1
 104 86 180 60 266 60 c 0
 322 60 410 92 410 162 c 0
 410 322 54 290 54 506 c 0
 54 612 148 684 304 684 c 0
 356 684 410 676 462 662 c 1
 462 546 l 1
 420 588 360 612 302 612 c 0
 244 612 168 588 168 518 c 0
 168 384 520 384 520 190 c 0
EndSplineSet
Validated: 1
EndChar

StartChar: T
Encoding: 84 84 53
Width: 522
GlyphClass: 2
Flags: MW
HStem: 0 20 668 71
VStem: 206 102<102 120 120 586>
LayerCount: 2
Fore
SplineSet
524 674 m 1
 490 554 l 1
 472 590 432 592 394 592 c 0
 366 592 338 590 308 586 c 1
 308 120 l 2
 308 68 316 30 362 0 c 1
 160 0 l 1
 178 10 190 22 198 40 c 0
 204 60 206 82 206 102 c 2
 206 586 l 1
 174 590 140 592 108 592 c 0
 82 592 52 588 28 576 c 0
 16 570 4 562 -8 554 c 1
 30 674 l 1
 48 668 66 668 82 668 c 2
 488 668 l 2
 500 670 512 670 524 674 c 1
EndSplineSet
Validated: 1
EndChar

StartChar: U
Encoding: 85 85 54
Width: 732
GlyphClass: 2
Flags: MW
HStem: -18 71 666 20
VStem: 96 102<242 536> 630 102
LayerCount: 2
Fore
SplineSet
674 0 m 1
 528 0 l 1
 528 68 l 1
 482 8 402 -18 330 -18 c 0
 202 -18 96 48 96 242 c 2
 96 556 l 2
 96 580 94 612 84 632 c 0
 78 648 66 658 50 666 c 1
 242 666 l 1
 226 658 214 646 206 628 c 0
 200 608 196 584 196 562 c 0
 196 554 198 544 198 536 c 2
 198 242 l 2
 198 80 310 58 358 58 c 0
 416 58 528 84 528 208 c 2
 528 536 l 2
 528 568 528 604 516 632 c 0
 510 648 498 658 482 666 c 1
 674 666 l 1
 658 658 646 646 638 628 c 0
 632 608 628 586 628 564 c 0
 628 556 630 546 630 536 c 2
 630 130 l 2
 630 124 628 114 628 106 c 0
 628 82 632 56 640 34 c 0
 648 18 660 8 674 0 c 1
EndSplineSet
Validated: 1
EndChar

StartChar: V
Encoding: 86 86 55
Width: 638
GlyphClass: 2
Flags: MW
HStem: 666 20
LayerCount: 2
Fore
SplineSet
618 666 m 1
 352 -30 l 1
 296 6 254 28 232 94 c 2
 66 544 l 2
 50 590 32 634 -6 666 c 1
 144 666 l 1
 142 664 142 662 142 658 c 0
 142 630 156 600 166 574 c 2
 332 120 l 1
 474 496 l 2
 488 532 504 572 504 610 c 0
 504 636 490 658 468 666 c 1
 618 666 l 1
EndSplineSet
Validated: 1
EndChar

StartChar: W
Encoding: 87 87 56
Width: 972
GlyphClass: 2
Flags: MW
HStem: 668 20
VStem: 548 102
LayerCount: 2
Fore
SplineSet
950 668 m 1
 736 -28 l 1
 700 -4 l 2
 638 38 630 54 606 124 c 2
 492 484 l 1
 334 -28 l 1
 320 -18 304 -6 288 4 c 0
 234 42 222 62 204 124 c 2
 76 522 l 2
 58 576 40 636 -6 668 c 1
 142 668 l 1
 142 660 l 2
 142 640 146 624 152 608 c 2
 306 124 l 1
 428 522 l 2
 436 546 444 576 444 602 c 0
 444 632 432 652 408 668 c 1
 552 668 l 1
 550 664 550 660 550 658 c 0
 550 654 548 646 548 642 c 0
 548 620 556 598 562 578 c 2
 708 128 l 1
 826 510 l 2
 834 536 846 566 846 594 c 0
 846 630 826 656 794 668 c 1
 950 668 l 1
EndSplineSet
Validated: 1
EndChar

StartChar: X
Encoding: 88 88 57
Width: 700
GlyphClass: 2
Flags: MW
HStem: -6 20 668 20
LayerCount: 2
Fore
SplineSet
688 0 m 1
 592 -6 l 1
 558 -6 l 2
 528 -6 514 24 498 46 c 2
 336 290 l 1
 188 94 l 2
 178 80 166 62 166 44 c 0
 166 22 186 10 204 0 c 1
 6 0 l 1
 32 28 56 56 80 86 c 2
 288 356 l 1
 126 590 l 2
 104 622 78 650 42 668 c 1
 170 668 l 2
 184 668 196 666 202 654 c 2
 358 430 l 1
 466 576 l 2
 478 592 490 612 490 632 c 0
 490 654 472 660 448 668 c 1
 634 668 l 1
 404 368 l 1
 574 116 l 2
 608 62 630 28 688 0 c 1
EndSplineSet
Validated: 1
EndChar

StartChar: Y
Encoding: 89 89 58
Width: 616
GlyphClass: 2
Flags: MW
HStem: 0 20 668 20
VStem: 362 102
LayerCount: 2
Fore
SplineSet
610 668 m 1
 362 292 l 1
 362 120 l 2
 362 62 368 38 412 0 c 1
 216 0 l 1
 232 10 244 22 250 40 c 0
 260 68 260 100 260 130 c 2
 260 292 l 1
 84 574 l 2
 58 616 38 640 -6 668 c 1
 108 668 l 2
 126 668 146 666 156 650 c 2
 324 374 l 1
 456 574 l 2
 464 586 470 602 470 620 c 0
 470 640 452 658 434 668 c 1
 610 668 l 1
EndSplineSet
Validated: 1
EndChar

StartChar: Z
Encoding: 90 90 59
Width: 638
GlyphClass: 2
Flags: MW
HStem: 0 71 668 71
LayerCount: 2
Fore
SplineSet
612 128 m 1
 560 0 l 1
 24 0 l 1
 392 584 l 1
 332 590 272 594 212 594 c 0
 152 594 118 582 66 552 c 1
 116 668 l 1
 564 668 l 1
 200 86 l 1
 268 80 336 74 406 74 c 0
 452 74 500 80 544 96 c 0
 568 106 590 116 612 128 c 1
EndSplineSet
Validated: 1
EndChar

StartChar: bracketleft
Encoding: 91 91 60
Width: 324
GlyphClass: 2
Flags: MW
HStem: -152 55 668 55
VStem: 92 90
LayerCount: 2
Fore
SplineSet
280 -152 m 1
 52 -152 l 1
 92 -122 92 -82 92 -36 c 2
 92 558 l 2
 92 606 92 634 52 668 c 1
 280 668 l 1
 280 612 l 1
 178 612 l 1
 178 -96 l 1
 280 -96 l 1
 280 -152 l 1
EndSplineSet
Validated: 1
EndChar

StartChar: backslash
Encoding: 92 92 61
Width: 366
GlyphClass: 2
Flags: MW
HStem: 668 20
LayerCount: 2
Fore
SplineSet
378 -140 m 1
 304 -140 l 1
 -14 668 l 1
 60 668 l 1
 378 -140 l 1
EndSplineSet
Validated: 1
EndChar

StartChar: bracketright
Encoding: 93 93 62
Width: 324
GlyphClass: 2
Flags: MW
HStem: -152 55 668 55
VStem: 228 90
LayerCount: 2
Fore
SplineSet
262 -152 m 1
 40 -152 l 1
 40 -96 l 1
 142 -96 l 1
 142 612 l 1
 40 612 l 1
 40 668 l 1
 262 668 l 1
 228 634 228 604 228 558 c 2
 228 -36 l 2
 228 -80 228 -122 262 -152 c 1
EndSplineSet
Validated: 1
EndChar

StartChar: asciicircum
Encoding: 94 94 63
Width: 436
GlyphClass: 2
Flags: W
LayerCount: 2
Fore
SplineSet
394 381 m 1
 315 381 l 1
 208 573 l 1
 101 381 l 1
 24 381 l 1
 160 632 l 1
 258 632 l 1
 394 381 l 1
EndSplineSet
Validated: 1
EndChar

StartChar: underscore
Encoding: 95 95 64
Width: 476
GlyphClass: 2
Flags: MW
HStem: -142 80
LayerCount: 2
Fore
SplineSet
489 -142 m 1
 -11 -142 l 1
 -11 -60 l 1
 489 -60 l 1
 489 -142 l 1
EndSplineSet
Validated: 1
EndChar

StartChar: quoteleft
Encoding: 8216 8216 65
Width: 222
GlyphClass: 2
Flags: MW
VStem: 50 125
LayerCount: 2
Fore
SplineSet
174 540 m 0
 174 508 142 486 116 486 c 0
 72 486 50 520 50 556 c 0
 50 594 80 638 106 670 c 1
 127 706 146 694 146 694 c 1
 168 688 l 1
 158 674 112 630 112 602 c 0
 112 598 118 596 124 594 c 0
 152 590 174 572 174 540 c 0
EndSplineSet
Validated: 33
PairPos2: "'kern' Horizontal Kerning lookup 0 subtable" quoteleft dx=0 dy=0 dh=0 dv=0 dx=0 dy=0 dh=0 dv=0
EndChar

StartChar: a
Encoding: 97 97 66
Width: 534
GlyphClass: 2
Flags: MW
HStem: -14 71 480 71
VStem: 34 102<108 160 108 163> 430 90
LayerCount: 2
Fore
SplineSet
516 60 m 1
 472 -6 l 1
 440 -4 408 -2 380 16 c 0
 340 38 340 82 340 124 c 2
 340 254 l 1
 314 242 290 234 262 228 c 2
 210 216 l 2
 170 206 136 182 136 138 c 0
 136 78 190 56 242 56 c 0
 268 56 294 62 320 68 c 1
 260 -8 l 1
 240 -12 218 -14 196 -14 c 0
 106 -14 34 52 34 144 c 0
 34 182 56 222 90 240 c 0
 182 294 338 268 338 346 c 0
 338 392 286 412 246 412 c 0
 194 412 150 396 102 374 c 1
 170 474 l 1
 196 480 222 480 248 480 c 0
 414 480 430 386 430 292 c 2
 430 162 l 2
 430 160 428 152 428 148 c 0
 428 122 432 96 454 78 c 0
 472 64 494 60 516 60 c 1
EndSplineSet
Validated: 1
EndChar

StartChar: b
Encoding: 98 98 67
Width: 576
GlyphClass: 2
Flags: MW
HStem: -14 71 480 71
VStem: 80 90<76 568 568 593> 532 102
LayerCount: 2
Fore
SplineSet
532 260 m 0
 532 178 508 104 442 50 c 0
 382 2 308 -14 232 -14 c 0
 172 -14 108 -10 48 6 c 1
 76 22 80 46 80 76 c 2
 80 568 l 2
 80 618 80 634 40 664 c 1
 110 664 l 2
 132 664 154 670 170 686 c 1
 170 70 l 1
 202 64 234 60 266 60 c 0
 366 60 428 134 428 232 c 0
 428 322 374 406 278 406 c 0
 246 406 220 396 194 382 c 1
 248 468 l 1
 270 476 292 480 314 480 c 0
 432 480 532 380 532 260 c 0
EndSplineSet
Validated: 1
EndChar

StartChar: c
Encoding: 99 99 68
Width: 502
GlyphClass: 2
Flags: MW
HStem: -14 71 480 71
VStem: 29 102<182 297 182 314>
LayerCount: 2
Fore
SplineSet
493 104 m 1
 441 8 l 1
 401 -8 357 -14 313 -14 c 0
 203 -14 29 40 29 228 c 0
 29 400 185 480 317 480 c 0
 355 480 391 476 427 468 c 1
 427 364 l 1
 391 398 347 412 297 412 c 0
 199 412 131 346 131 248 c 0
 131 116 247 56 333 56 c 0
 391 56 445 72 493 104 c 1
EndSplineSet
Validated: 1
EndChar

StartChar: d
Encoding: 100 100 69
Width: 616
GlyphClass: 2
Flags: MW
HStem: -14 71 480 64
VStem: 40 102<194 292 194 296> 526 90
LayerCount: 2
Fore
SplineSet
564 0 m 1
 436 0 l 1
 436 230 l 2
 436 274 436 320 410 356 c 0
 382 394 336 416 290 416 c 0
 204 416 142 342 142 242 c 0
 142 146 218 58 316 58 c 0
 350 58 380 66 408 84 c 1
 350 -8 l 1
 328 -12 306 -14 284 -14 c 0
 148 -14 40 90 40 228 c 0
 40 364 136 480 266 480 c 0
 332 480 384 464 436 422 c 1
 436 580 l 2
 436 620 434 638 398 664 c 1
 468 664 l 2
 488 664 510 670 526 686 c 1
 526 100 l 2
 526 96 524 88 524 86 c 0
 524 48 528 28 564 0 c 1
EndSplineSet
Validated: 1
EndChar

StartChar: e
Encoding: 101 101 70
Width: 564
GlyphClass: 2
Flags: MW
HStem: -14 71 308 64 480 55
VStem: 38 114<159 308>
LayerCount: 2
Fore
SplineSet
520 108 m 1
 470 12 l 1
 422 -6 374 -14 324 -14 c 0
 164 -14 38 80 38 238 c 0
 38 368 142 480 278 480 c 0
 436 480 520 380 520 244 c 1
 148 244 l 1
 148 156 210 58 346 58 c 0
 410 58 466 72 520 108 c 1
414 308 m 1
 400 380 358 420 282 420 c 0
 216 420 166 372 152 308 c 1
 414 308 l 1
EndSplineSet
Validated: 1
EndChar

StartChar: f
Encoding: 102 102 71
Width: 324
GlyphClass: 2
Flags: MW
HStem: 0 20 397 21G 690 71
VStem: 88 90<135 136 136 400 468 516 516 532>
LayerCount: 2
Fore
SplineSet
374 684 m 1
 302 604 l 1
 284 616 268 622 248 622 c 0
 184 622 176 568 176 542 c 0
 176 538 178 534 178 532 c 2
 178 468 l 1
 282 468 l 2
 292 468 306 470 316 472 c 1
 316 384 l 1
 302 400 284 400 262 400 c 2
 178 400 l 1
 178 136 l 2
 178 134 176 126 176 124 c 0
 176 80 180 24 222 0 c 1
 50 0 l 1
 86 28 88 48 88 86 c 2
 88 400 l 1
 38 400 l 1
 88 468 l 1
 88 516 l 2
 88 566 102 604 140 638 c 0
 182 678 242 690 300 690 c 0
 324 690 350 688 374 684 c 1
EndSplineSet
Validated: 1
EndChar

StartChar: g
Encoding: 103 103 72
Width: 606
GlyphClass: 2
Flags: MW
HStem: -240 64<258 313 258 343> 26 64 472 71
VStem: 70 102 506 114
LayerCount: 2
Fore
SplineSet
594 480 m 1
 566 416 l 2
 562 408 552 404 544 404 c 0
 506 404 470 410 434 416 c 1
 476 386 506 346 506 294 c 0
 506 202 414 154 330 140 c 0
 306 136 248 136 248 110 c 0
 248 90 278 88 290 88 c 2
 334 88 l 2
 468 88 578 44 578 -60 c 0
 578 -206 382 -240 304 -240 c 0
 158 -240 12 -194 12 -88 c 0
 12 -34 64 -14 112 -14 c 0
 132 -14 150 -18 166 -26 c 1
 140 -32 128 -48 128 -76 c 0
 128 -154 228 -176 288 -176 c 0
 338 -176 468 -164 468 -68 c 0
 468 20 334 26 272 26 c 2
 220 26 l 2
 210 24 198 24 188 24 c 0
 152 28 128 58 124 94 c 1
 122 96 l 1
 122 124 184 144 204 152 c 1
 178 154 70 202 70 302 c 0
 70 416 162 480 294 480 c 0
 320 480 346 478 372 476 c 0
 406 474 440 472 476 472 c 0
 514 472 554 476 594 480 c 1
394 302 m 0
 394 364 340 416 276 416 c 0
 222 416 176 382 176 324 c 0
 176 256 232 202 308 202 c 0
 360 202 394 248 394 302 c 0
EndSplineSet
Validated: 1
EndChar

StartChar: h
Encoding: 104 104 73
Width: 576
GlyphClass: 2
Flags: MW
HStem: 0 20 480 71
VStem: 80 90<100 286 416 580 580 600> 492 90
LayerCount: 2
Fore
SplineSet
532 0 m 1
 362 0 l 1
 400 28 402 50 402 88 c 2
 402 280 l 2
 402 310 402 340 382 366 c 0
 360 394 322 408 286 408 c 0
 252 408 212 398 188 368 c 0
 170 344 170 316 170 286 c 2
 170 100 l 2
 170 96 168 88 168 86 c 0
 168 46 172 28 210 0 c 1
 40 0 l 1
 72 32 80 22 80 100 c 2
 80 580 l 2
 80 620 78 636 40 664 c 1
 110 664 l 2
 132 664 154 670 170 686 c 1
 170 416 l 1
 204 460 266 480 318 480 c 0
 374 480 434 462 468 414 c 0
 490 384 492 346 492 310 c 2
 492 100 l 2
 492 50 492 32 532 0 c 1
EndSplineSet
Validated: 1
EndChar

StartChar: i
Encoding: 105 105 74
Width: 262
GlyphClass: 2
Flags: MW
HStem: 0 20 654 126
VStem: 82 102
LayerCount: 2
Fore
SplineSet
188 592 m 0
 188 558 160 528 126 528 c 0
 92 528 62 558 62 592 c 0
 62 626 92 654 126 654 c 0
 160 654 188 626 188 592 c 0
212 0 m 1
 44 0 l 1
 80 28 82 48 82 86 c 2
 82 380 l 2
 82 418 80 440 44 468 c 1
 114 468 l 2
 136 468 158 470 174 486 c 1
 174 100 l 2
 174 96 172 90 172 86 c 0
 172 46 176 28 212 0 c 1
EndSplineSet
Validated: 1
EndChar

StartChar: j
Encoding: 106 106 75
Width: 252
GlyphClass: 2
Flags: MW
HStem: 658 126
VStem: 82 102
LayerCount: 2
Fore
SplineSet
186 594 m 0
 186 560 158 532 124 532 c 0
 88 532 60 560 60 594 c 0
 60 628 88 658 124 658 c 0
 158 658 186 628 186 594 c 0
174 -50 m 2
 174 -90 170 -136 140 -166 c 0
 96 -208 36 -222 -22 -230 c 1
 8 -212 34 -192 52 -164 c 0
 82 -124 82 -66 82 -18 c 2
 82 380 l 2
 82 418 80 440 44 468 c 1
 114 468 l 2
 136 468 158 470 174 486 c 1
 174 -50 l 2
EndSplineSet
Validated: 1
EndChar

StartChar: k
Encoding: 107 107 76
Width: 512
GlyphClass: 2
Flags: MW
HStem: -4 20
VStem: 80 90<98 100 100 578 578 597>
LayerCount: 2
Fore
SplineSet
522 0 m 1
 502 -2 482 -4 462 -4 c 0
 364 -4 368 18 288 128 c 2
 200 246 l 2
 196 254 192 256 188 262 c 1
 280 362 l 2
 298 382 324 406 324 432 c 0
 324 448 316 458 306 468 c 1
 460 468 l 1
 290 272 l 1
 304 256 318 240 330 222 c 2
 420 106 l 2
 450 66 480 28 522 0 c 1
210 0 m 1
 40 0 l 1
 78 28 80 46 80 86 c 2
 80 578 l 2
 80 616 78 636 40 664 c 1
 110 664 l 2
 132 664 154 670 170 686 c 1
 170 100 l 2
 170 96 168 88 168 86 c 0
 168 46 172 28 210 0 c 1
EndSplineSet
Validated: 1
EndChar

StartChar: l
Encoding: 108 108 77
Width: 252
GlyphClass: 2
Flags: MW
HStem: 0 20
VStem: 80 90<98 100 100 578 578 597>
LayerCount: 2
Fore
SplineSet
210 0 m 1
 40 0 l 1
 78 28 80 50 80 88 c 2
 80 578 l 2
 80 616 78 636 40 664 c 1
 110 664 l 2
 132 664 154 670 170 686 c 1
 170 100 l 2
 170 96 168 88 168 86 c 0
 168 46 172 28 210 0 c 1
EndSplineSet
Validated: 1
EndChar

StartChar: m
Encoding: 109 109 78
Width: 898
GlyphClass: 2
Flags: MW
HStem: 0 20 480 71
VStem: 82 90<66 100 66 380> 402 90<86 88 66 266 289 302> 812 90
LayerCount: 2
Fore
SplineSet
856 0 m 1
 682 0 l 1
 718 28 720 48 720 86 c 2
 720 256 l 2
 720 294 718 336 694 366 c 0
 674 392 638 406 606 406 c 0
 566 406 524 388 504 352 c 0
 496 334 492 312 492 292 c 0
 492 286 494 278 494 272 c 2
 494 100 l 2
 494 96 492 90 492 86 c 0
 492 46 496 28 532 0 c 1
 364 0 l 1
 400 28 402 48 402 86 c 2
 402 266 l 2
 402 346 370 402 284 402 c 0
 208 402 174 350 174 280 c 2
 174 100 l 2
 174 96 172 90 172 86 c 0
 172 46 176 28 212 0 c 1
 44 0 l 1
 80 26 82 52 82 88 c 2
 82 100 l 1
 82 380 l 2
 82 420 80 440 44 468 c 1
 114 468 l 2
 136 468 158 470 174 486 c 1
 174 400 l 1
 208 448 248 480 312 480 c 0
 388 480 432 454 472 392 c 1
 512 446 558 480 628 480 c 0
 686 480 752 460 784 410 c 0
 810 372 812 326 812 282 c 2
 812 100 l 2
 812 98 810 90 810 88 c 0
 810 50 814 18 856 0 c 1
EndSplineSet
Validated: 1
EndChar

StartChar: n
Encoding: 110 110 79
Width: 586
GlyphClass: 2
Flags: MW
HStem: 0 20 480 71
VStem: 82 90<86 88 66 380> 494 90
LayerCount: 2
Fore
SplineSet
534 0 m 1
 368 0 l 1
 404 28 406 48 406 86 c 2
 406 262 l 2
 406 294 406 332 386 360 c 0
 364 390 322 406 286 406 c 0
 250 406 210 394 188 364 c 0
 176 346 174 326 174 304 c 2
 174 100 l 2
 174 96 172 90 172 86 c 0
 172 46 176 28 212 0 c 1
 44 0 l 1
 80 28 82 48 82 86 c 2
 82 380 l 2
 82 418 80 440 44 468 c 1
 108 468 l 2
 130 468 152 470 168 486 c 1
 168 402 l 1
 210 450 254 480 318 480 c 0
 374 480 436 458 470 412 c 0
 494 378 496 328 496 288 c 2
 496 100 l 2
 496 96 494 90 494 86 c 0
 494 46 498 28 534 0 c 1
EndSplineSet
Validated: 1
EndChar

StartChar: o
Encoding: 111 111 80
Width: 606
GlyphClass: 2
Flags: MW
HStem: -14 71 482 71
VStem: 40 102<191 293 191 306> 560 102
LayerCount: 2
Fore
SplineSet
560 232 m 0
 560 72 418 -14 296 -14 c 0
 158 -14 40 86 40 230 c 0
 40 382 162 482 308 482 c 0
 436 482 560 388 560 232 c 0
458 212 m 0
 458 310 410 414 298 414 c 0
 204 414 142 338 142 248 c 0
 142 134 216 54 302 54 c 0
 384 54 458 116 458 212 c 0
EndSplineSet
Validated: 1
EndChar

StartChar: p
Encoding: 112 112 81
Width: 616
GlyphClass: 2
Flags: MW
HStem: -14 71 480 71
VStem: 80 90<-112 264> 570 102
LayerCount: 2
Fore
SplineSet
570 232 m 0
 570 94 462 -14 326 -14 c 0
 300 -14 274 -10 250 0 c 1
 196 82 l 1
 230 66 266 54 306 54 c 0
 418 54 466 128 466 234 c 0
 466 326 410 408 312 408 c 0
 270 408 226 390 198 358 c 0
 174 332 170 298 170 264 c 2
 170 -112 l 2
 170 -154 170 -186 210 -210 c 1
 40 -210 l 1
 80 -186 80 -152 80 -112 c 2
 80 378 l 2
 80 418 78 440 40 466 c 1
 110 466 l 2
 132 466 154 470 170 486 c 1
 170 408 l 1
 210 456 276 480 338 480 c 0
 496 480 570 354 570 232 c 0
EndSplineSet
Validated: 1
EndChar

StartChar: q
Encoding: 113 113 82
Width: 606
GlyphClass: 2
Flags: MW
HStem: -14 71 468 64
VStem: 40 102<187 282 187 295> 524 90
LayerCount: 2
Fore
SplineSet
564 -210 m 1
 394 -210 l 1
 432 -180 434 -162 434 -122 c 2
 434 384 l 1
 394 394 356 404 316 404 c 0
 206 404 142 324 142 240 c 0
 142 134 212 54 322 54 c 0
 352 54 380 58 406 72 c 1
 358 -2 l 1
 334 -10 312 -14 288 -14 c 0
 168 -14 40 56 40 220 c 0
 40 370 168 468 312 468 c 2
 564 468 l 1
 526 440 522 418 522 378 c 0
 522 376 524 370 524 366 c 2
 524 -110 l 2
 524 -114 522 -120 522 -122 c 0
 522 -162 526 -180 564 -210 c 1
EndSplineSet
Validated: 1
EndChar

StartChar: r
Encoding: 114 114 83
Width: 366
GlyphClass: 2
Flags: MW
HStem: 0 20 480 80
VStem: 82 90<86 88 66 380>
LayerCount: 2
Fore
SplineSet
330 384 m 1
 316 396 298 400 280 400 c 0
 248 400 216 386 196 362 c 0
 176 336 174 300 174 268 c 2
 174 100 l 2
 174 96 172 90 172 86 c 0
 172 46 176 28 212 0 c 1
 44 0 l 1
 80 28 82 48 82 86 c 2
 82 380 l 2
 82 418 80 440 44 468 c 1
 114 468 l 2
 136 468 158 470 174 486 c 1
 174 404 l 1
 196 446 240 480 292 480 c 0
 304 480 318 480 330 478 c 1
 330 384 l 1
EndSplineSet
Validated: 1
EndChar

StartChar: s
Encoding: 115 115 84
Width: 450
GlyphClass: 2
Flags: MW
HStem: -14 64<182 237 182 256> 482 55
VStem: 56 90 424 96
LayerCount: 2
Fore
SplineSet
424 136 m 0
 424 34 302 -14 210 -14 c 0
 120 -14 78 8 64 12 c 1
 30 112 l 1
 86 78 148 50 216 50 c 0
 258 50 328 66 328 120 c 0
 328 222 56 192 56 346 c 0
 56 452 168 482 256 482 c 0
 294 482 332 478 368 468 c 1
 368 382 l 1
 332 404 290 422 248 422 c 0
 212 422 150 412 150 368 c 0
 150 266 424 316 424 136 c 0
EndSplineSet
Validated: 1
EndChar

StartChar: t
Encoding: 116 116 85
Width: 346
GlyphClass: 2
Flags: MW
HStem: 397 21G
VStem: 100 90<184 186 186 402>
LayerCount: 2
Fore
SplineSet
328 66 m 1
 276 -8 l 1
 266 -10 256 -14 246 -14 c 0
 206 -14 164 6 136 34 c 0
 102 68 98 116 98 162 c 0
 98 166 100 174 100 178 c 2
 100 402 l 1
 30 402 l 1
 30 438 l 1
 120 450 152 524 152 606 c 2
 152 618 l 1
 190 618 l 1
 190 468 l 1
 270 468 l 2
 276 468 282 466 288 466 c 0
 300 466 318 470 328 474 c 1
 328 382 l 1
 310 400 290 402 266 402 c 2
 190 402 l 1
 190 186 l 2
 190 182 188 174 188 170 c 0
 188 144 192 114 208 94 c 0
 226 70 256 56 284 56 c 0
 300 56 314 60 328 66 c 1
EndSplineSet
Validated: 1
EndChar

StartChar: u
Encoding: 117 117 86
Width: 576
GlyphClass: 2
Flags: MW
HStem: -14 80<269 288> 486 20
VStem: 80 90<187 204 204 368 368 392> 494 90
LayerCount: 2
Fore
SplineSet
532 0 m 1
 406 0 l 1
 406 66 l 1
 364 10 322 -14 254 -14 c 0
 202 -14 142 10 110 56 c 0
 84 94 80 140 80 186 c 2
 80 368 l 2
 80 416 80 436 40 468 c 1
 110 468 l 2
 132 468 154 470 170 486 c 1
 170 204 l 2
 170 170 174 132 196 104 c 0
 218 76 252 66 286 66 c 0
 358 66 402 116 402 186 c 2
 402 380 l 2
 402 418 400 440 364 468 c 1
 434 468 l 2
 456 468 478 470 494 486 c 1
 494 100 l 2
 494 96 492 90 492 86 c 0
 492 46 496 28 532 0 c 1
EndSplineSet
Validated: 1
EndChar

StartChar: v
Encoding: 118 118 87
Width: 576
GlyphClass: 2
Flags: MW
HStem: 486 20
LayerCount: 2
Fore
SplineSet
556 468 m 1
 326 -38 l 1
 286 -16 242 12 222 56 c 2
 208 90 l 1
 88 362 l 2
 62 422 56 434 2 468 c 1
 70 468 l 2
 98 468 120 470 144 486 c 1
 146 470 150 454 156 438 c 2
 308 86 l 1
 428 358 l 2
 436 376 446 396 446 416 c 0
 446 442 430 454 412 468 c 1
 556 468 l 1
EndSplineSet
Validated: 1
EndChar

StartChar: w
Encoding: 119 119 88
Width: 836
GlyphClass: 2
Flags: MW
HStem: 486 20
VStem: 476 102
LayerCount: 2
Fore
SplineSet
810 468 m 1
 608 -28 l 1
 550 4 532 22 510 84 c 2
 418 334 l 1
 280 -28 l 1
 220 4 198 20 174 84 c 2
 52 404 l 2
 42 430 26 450 6 468 c 1
 66 468 l 2
 88 468 108 472 128 486 c 1
 128 468 132 450 138 434 c 2
 260 112 l 1
 358 368 l 2
 364 386 372 406 372 426 c 0
 372 446 358 456 344 468 c 1
 476 468 l 1
 476 460 l 2
 476 444 480 430 486 416 c 2
 594 112 l 1
 694 368 l 2
 700 382 706 398 708 416 c 2
 708 418 l 2
 708 438 690 456 674 468 c 1
 810 468 l 1
EndSplineSet
Validated: 1
EndChar

StartChar: x
Encoding: 120 120 89
Width: 564
GlyphClass: 2
Flags: MW
HStem: -6 20 468 20
LayerCount: 2
Fore
SplineSet
548 0 m 1
 458 -6 l 1
 428 -6 l 2
 406 -4 394 14 382 32 c 2
 270 184 l 1
 166 64 l 2
 158 54 150 44 150 30 c 0
 150 16 160 8 172 0 c 1
 8 0 l 1
 226 244 l 1
 104 402 l 2
 84 426 60 448 34 468 c 1
 126 468 l 2
 168 468 172 464 194 434 c 2
 288 308 l 1
 362 396 l 2
 370 406 380 420 380 434 c 0
 380 450 366 460 354 468 c 1
 522 468 l 1
 332 250 l 1
 452 94 l 2
 478 58 508 22 548 0 c 1
EndSplineSet
Validated: 1
EndChar

StartChar: y
Encoding: 121 121 90
Width: 576
GlyphClass: 2
Flags: MW
HStem: -210 71 468 20
LayerCount: 2
Fore
SplineSet
546 468 m 1
 330 -48 l 2
 312 -92 266 -210 120 -210 c 0
 76 -210 34 -200 -8 -184 c 1
 84 -118 l 1
 100 -128 120 -136 140 -136 c 0
 206 -136 240 -72 260 -18 c 2
 272 10 l 1
 260 22 l 2
 240 42 230 60 218 86 c 2
 84 378 l 2
 66 418 52 448 8 468 c 1
 108 468 l 2
 132 468 146 468 158 438 c 2
 312 90 l 1
 420 360 l 2
 428 380 434 402 434 424 c 0
 434 444 422 454 404 468 c 1
 546 468 l 1
EndSplineSet
Validated: 1
EndChar

StartChar: z
Encoding: 122 122 91
Width: 522
GlyphClass: 2
Flags: MW
HStem: 0 71 397 21G
LayerCount: 2
Fore
SplineSet
508 112 m 1
 452 0 l 1
 22 0 l 1
 302 392 l 1
 274 396 246 398 218 398 c 0
 160 398 102 398 52 364 c 1
 102 468 l 1
 462 468 l 1
 196 80 l 1
 244 74 294 72 344 72 c 0
 406 72 454 80 508 112 c 1
EndSplineSet
Validated: 1
EndChar

StartChar: braceleft
Encoding: 123 123 92
Width: 324
GlyphClass: 2
Flags: MW
HStem: -152 55 668 55
VStem: 90 90
LayerCount: 2
Fore
SplineSet
280 -152 m 1
 130 -152 l 2
 96 -152 90 -128 90 -104 c 0
 90 -98 92 -90 92 -84 c 2
 92 168 l 2
 92 204 72 212 42 222 c 1
 42 294 l 1
 70 304 92 314 92 348 c 2
 92 598 l 2
 92 604 90 612 90 618 c 0
 90 644 96 668 130 668 c 2
 280 668 l 1
 280 612 l 1
 230 612 l 2
 184 612 178 606 178 560 c 2
 178 340 l 2
 178 296 168 276 132 258 c 1
 168 240 178 220 178 176 c 2
 178 -44 l 2
 178 -90 184 -98 230 -98 c 2
 280 -98 l 1
 280 -152 l 1
EndSplineSet
Validated: 1
EndChar

StartChar: bar
Encoding: 124 124 93
Width: 500
GlyphClass: 2
Flags: MW
HStem: 666 20
VStem: 204 90
LayerCount: 2
Fore
SplineSet
296 -168 m 1
 204 -168 l 1
 204 666 l 1
 296 666 l 1
 296 -168 l 1
EndSplineSet
Validated: 1
EndChar

StartChar: braceright
Encoding: 125 125 94
Width: 324
GlyphClass: 2
Flags: MW
HStem: -152 55 668 55
VStem: 228 90
LayerCount: 2
Fore
SplineSet
278 222 m 1
 250 212 228 202 228 168 c 2
 228 -104 l 2
 228 -128 224 -152 190 -152 c 2
 40 -152 l 1
 40 -98 l 1
 90 -98 l 2
 136 -98 142 -90 142 -44 c 2
 142 176 l 2
 142 220 152 240 188 258 c 1
 152 276 142 296 142 340 c 2
 142 560 l 2
 142 606 136 612 90 612 c 2
 40 612 l 1
 40 668 l 1
 190 668 l 2
 224 668 228 646 228 620 c 2
 228 348 l 2
 228 312 248 304 278 294 c 1
 278 222 l 1
EndSplineSet
Validated: 1
EndChar

StartChar: asciitilde
Encoding: 126 126 95
Width: 502
GlyphClass: 2
Flags: MW
HStem: 300 86
LayerCount: 2
Fore
SplineSet
484 420 m 1
 468 386 428 300 334 300 c 0
 272 300 190 360 138 360 c 0
 94 360 70 326 52 292 c 1
 0 326 l 1
 28 386 64 448 138 448 c 0
 214 448 284 388 346 388 c 0
 386 388 410 418 430 450 c 1
 484 420 l 1
EndSplineSet
Validated: 1
EndChar

StartChar: exclamdown
Encoding: 161 161 96
Width: 252
GlyphClass: 2
Flags: MW
HStem: 0 20 694 126
VStem: 74 102
LayerCount: 2
Fore
SplineSet
183 630 m 0
 183 596 153 568 119 568 c 0
 85 568 57 596 57 630 c 0
 57 664 85 694 119 694 c 0
 153 694 183 664 183 630 c 0
213 0 m 1
 79 0 l 2
 67 0 63 2 63 10 c 2
 63 18 l 1
 85 510 l 1
 157 510 l 1
 173 154 l 1
 175 104 l 2
 177 62 173 24 213 0 c 1
EndSplineSet
Validated: 1
EndChar

StartChar: cent
Encoding: 162 162 97
Width: 501
GlyphClass: 2
Flags: MW
HStem: 572 71 670 20
VStem: 54 102 324 63
LayerCount: 2
Fore
SplineSet
444 220 m 1
 420 116 l 1
 390 104 356 100 324 98 c 1
 324 4 l 1
 264 4 l 1
 264 98 l 1
 136 120 54 204 54 340 c 0
 54 412 92 482 148 526 c 0
 182 552 222 566 264 572 c 1
 264 670 l 1
 324 670 l 1
 324 572 l 1
 354 572 384 568 414 562 c 1
 414 468 l 1
 390 492 358 502 324 504 c 1
 324 166 l 1
 372 170 408 192 444 220 c 1
264 172 m 1
 264 502 l 1
 188 488 152 424 152 348 c 0
 152 270 182 192 264 172 c 1
EndSplineSet
Validated: 1
EndChar

StartChar: sterling
Encoding: 163 163 98
Width: 550
GlyphClass: 2
Flags: MW
HStem: -14 55 88 55 378 55 682 71
VStem: 45 53 103 108<505 554 505 569> 249 102
LayerCount: 2
Fore
SplineSet
477 6 m 1
 443 -8 405 -14 369 -14 c 0
 325 -14 289 6 255 30 c 1
 223 4 187 -14 145 -14 c 0
 95 -14 45 8 45 64 c 0
 45 120 109 144 151 144 c 0
 179 144 211 136 237 132 c 1
 247 154 249 172 249 184 c 0
 249 238 225 284 201 320 c 1
 127 320 l 2
 113 320 101 314 89 310 c 1
 89 388 l 1
 101 382 113 378 127 378 c 2
 159 378 l 1
 159 378 103 446 103 516 c 0
 103 622 199 682 297 682 c 0
 341 682 383 670 423 654 c 1
 427 552 l 1
 395 578 357 608 311 608 c 0
 265 608 211 580 211 528 c 0
 211 482 245 440 269 404 c 2
 287 378 l 1
 383 378 l 2
 395 378 407 382 419 388 c 1
 419 310 l 1
 407 314 395 320 383 320 c 2
 321 320 l 1
 335 292 349 252 349 212 c 0
 349 178 339 140 315 98 c 1
 325 96 l 1
 343 88 359 84 379 84 c 0
 413 84 447 96 477 114 c 1
 477 6 l 1
201 66 m 1
 185 78 161 88 139 88 c 0
 125 88 99 82 99 64 c 0
 99 40 123 36 139 36 c 0
 165 36 185 48 201 66 c 1
EndSplineSet
Validated: 1
EndChar

StartChar: fraction
Encoding: 8260 8260 99
Width: 366
GlyphClass: 2
Flags: MW
HStem: 668 20
LayerCount: 2
Fore
SplineSet
350 668 m 1
 32 -140 l 1
 -44 -140 l 1
 276 668 l 1
 350 668 l 1
EndSplineSet
Validated: 1
EndChar

StartChar: yen
Encoding: 165 165 100
Width: 616
GlyphClass: 2
Flags: MW
HStem: 0 20 240 55 414 55 668 20
VStem: 362 90
LayerCount: 2
Fore
SplineSet
586 668 m 1
 434 414 l 1
 510 414 l 2
 522 414 534 418 546 424 c 1
 546 350 l 1
 534 356 522 360 510 360 c 2
 402 360 l 1
 362 294 l 1
 490 294 l 2
 502 294 514 298 526 304 c 1
 526 230 l 1
 514 236 502 240 490 240 c 2
 362 240 l 1
 362 106 l 2
 362 62 370 26 410 0 c 1
 226 0 l 1
 266 24 270 56 270 100 c 2
 270 240 l 1
 142 240 l 2
 128 240 118 236 106 230 c 1
 106 304 l 1
 116 298 130 294 142 294 c 2
 270 294 l 1
 232 364 l 1
 122 364 l 2
 108 364 98 360 86 354 c 1
 86 428 l 1
 96 422 110 418 122 418 c 2
 202 418 l 1
 106 594 l 2
 88 628 60 650 28 668 c 1
 136 668 l 2
 160 668 176 668 186 646 c 2
 332 372 l 1
 448 582 l 2
 454 592 458 606 458 618 c 0
 458 640 444 656 426 668 c 1
 586 668 l 1
EndSplineSet
Validated: 1
EndChar

StartChar: florin
Encoding: 402 402 101
Width: 486
GlyphClass: 2
Flags: MW
HStem: -139 71 522 55 751 71
LayerCount: 2
Fore
SplineSet
515 724 m 1
 450 661 l 1
 438 674 421 684 402 684 c 0
 377 684 356 675 342 654 c 0
 323 626 316 576 310 542 c 2
 306 522 l 1
 390 522 l 2
 404 522 416 527 429 532 c 1
 412 454 l 1
 401 460 390 464 378 464 c 2
 295 464 l 1
 224 82 l 2
 212 20 198 -48 150 -92 c 0
 111 -128 56 -139 5 -139 c 0
 -31 -139 -65 -129 -97 -114 c 1
 -29 -48 l 1
 -11 -62 6 -69 29 -69 c 0
 57 -69 80 -54 93 -29 c 0
 112 9 120 53 128 95 c 2
 198 464 l 1
 148 464 l 2
 134 464 121 460 109 454 c 1
 125 532 l 1
 136 527 148 522 160 522 c 2
 209 522 l 1
 216 559 l 2
 226 614 238 672 283 710 c 0
 319 739 364 751 410 751 c 0
 447 751 482 741 515 724 c 1
EndSplineSet
Validated: 1
EndChar

StartChar: section
Encoding: 167 167 102
Width: 544
GlyphClass: 2
Flags: MW
HStem: -152 80 684 71
VStem: 110 102 436 102
LayerCount: 2
Fore
SplineSet
474 278 m 0
 474 216 444 172 398 132 c 1
 424 104 436 70 436 30 c 0
 436 -74 348 -152 222 -152 c 0
 166 -152 112 -142 60 -122 c 1
 60 -14 l 1
 60 -14 144 -70 216 -70 c 0
 248 -70 336 -58 336 20 c 0
 336 76 280 98 216 134 c 0
 144 172 62 216 62 310 c 0
 62 370 104 412 148 446 c 1
 124 470 110 502 110 536 c 0
 110 648 216 684 310 684 c 0
 354 684 396 676 436 660 c 1
 436 556 l 1
 406 596 356 614 306 614 c 0
 266 614 208 598 208 548 c 0
 208 498 258 480 296 462 c 0
 378 426 474 382 474 278 c 0
386 254 m 0
 386 320 294 356 264 370 c 0
 242 380 220 390 200 402 c 1
 176 382 158 358 158 324 c 0
 158 268 242 232 268 218 c 0
 296 204 324 188 352 172 c 1
 372 194 386 222 386 254 c 0
EndSplineSet
Validated: 1
EndChar

StartChar: currency
Encoding: 164 164 103
Width: 616
GlyphClass: 2
Flags: MW
HStem: 126 80 606 80
VStem: 66 84<340 392> 548 84
LayerCount: 2
Fore
SplineSet
598 128 m 1
 548 78 l 1
 450 174 l 1
 408 144 360 126 308 126 c 0
 256 126 208 146 164 174 c 1
 68 78 l 1
 18 128 l 1
 114 226 l 1
 84 266 66 314 66 366 c 0
 66 418 84 464 114 506 c 1
 16 604 l 1
 66 656 l 1
 164 558 l 1
 208 588 256 606 310 606 c 0
 360 606 406 588 448 558 c 1
 546 654 l 1
 596 604 l 1
 500 508 l 1
 528 464 548 418 548 366 c 0
 548 314 530 268 500 226 c 1
 598 128 l 1
464 366 m 0
 464 452 394 524 308 524 c 0
 222 524 150 452 150 366 c 0
 150 280 222 208 308 208 c 0
 392 208 464 280 464 366 c 0
EndSplineSet
Validated: 1
EndChar

StartChar: quotesingle
Encoding: 39 39 104
Width: 178
GlyphClass: 2
Flags: MW
HStem: 400 268<54 122 54 54>
VStem: 46 84
LayerCount: 2
Fore
SplineSet
138 668 m 5
 122 400 l 5
 54 400 l 5
 38 668 l 5
 138 668 l 5
EndSplineSet
Validated: 1
EndChar

StartChar: quotedblleft
Encoding: 8220 8220 105
Width: 398
GlyphClass: 2
Flags: MW
VStem: 50 125 341 125
LayerCount: 2
Fore
SplineSet
341 540 m 0
 341 508 309 486 283 486 c 0
 239 486 217 520 217 556 c 0
 217 594 247 638 273 670 c 1
 294 706 313 694 313 694 c 1
 335 688 l 1
 325 674 279 630 279 602 c 0
 279 598 285 596 291 594 c 0
 319 590 341 572 341 540 c 0
174 540 m 0
 174 508 142 486 116 486 c 0
 72 486 50 520 50 556 c 0
 50 594 80 638 106 670 c 1
 127 706 146 694 146 694 c 1
 168 688 l 1
 158 674 112 630 112 602 c 0
 112 598 118 596 124 594 c 0
 152 590 174 572 174 540 c 0
EndSplineSet
Validated: 33
EndChar

StartChar: guillemotleft
Encoding: 171 171 106
Width: 356
GlyphClass: 2
Flags: W
LayerCount: 2
Fore
SplineSet
306 86 m 1
 274 86 l 1
 170 246 l 1
 274 410 l 1
 306 410 l 1
 246 246 l 1
 306 86 l 1
178 86 m 1
 146 86 l 1
 40 246 l 1
 146 410 l 1
 178 410 l 1
 118 246 l 1
 178 86 l 1
EndSplineSet
Validated: 1
EndChar

StartChar: guilsinglleft
Encoding: 8249 8249 107
Width: 235
GlyphClass: 2
Flags: W
LayerCount: 2
Fore
SplineSet
178 86 m 1
 146 86 l 1
 40 246 l 1
 146 410 l 1
 178 410 l 1
 118 246 l 1
 178 86 l 1
EndSplineSet
Validated: 1
EndChar

StartChar: guilsinglright
Encoding: 8250 8250 108
Width: 235
GlyphClass: 2
Flags: W
LayerCount: 2
Fore
SplineSet
187 248 m 1
 81 86 l 1
 49 86 l 1
 109 248 l 1
 49 410 l 1
 81 410 l 1
 187 248 l 1
EndSplineSet
Validated: 1
EndChar

StartChar: fi
Encoding: 64257 64257 109
Width: 577
GlyphClass: 2
Flags: MW
HStem: 0 20 467 64 690 55
VStem: 83 90 498 90
LayerCount: 2
Fore
SplineSet
537 0 m 1
 368 0 l 1
 409 31 407 51 407 100 c 2
 407 367 l 2
 407 394 396 402 370 402 c 2
 174 402 l 1
 174 100 l 2
 174 50 172 31 212 0 c 1
 45 0 l 1
 85 31 83 51 83 100 c 2
 83 402 l 1
 33 402 l 1
 83 467 l 1
 83 500 l 2
 83 554 90 599 132 638 c 0
 175 677 234 690 290 690 c 0
 334 690 381 688 420 668 c 0
 451 653 478 628 478 590 c 0
 478 561 454 533 424 533 c 0
 396 533 370 552 370 582 c 0
 370 595 374 606 380 617 c 1
 353 631 324 637 293 637 c 0
 221 637 174 620 174 539 c 2
 174 467 l 1
 420 467 l 2
 448 467 477 466 498 486 c 1
 498 100 l 2
 498 50 496 31 537 0 c 1
EndSplineSet
Validated: 33
EndChar

StartChar: fl
Encoding: 64258 64258 110
Width: 578
GlyphClass: 2
Flags: MW
HStem: 0 20 467 64 690 64
VStem: 85 90 499 90
LayerCount: 2
Fore
SplineSet
537 0 m 1
 370 0 l 1
 410 31 408 51 408 100 c 2
 408 609 l 1
 374 625 337 629 299 629 c 0
 266 629 230 629 202 608 c 0
 174 586 176 552 176 520 c 2
 176 467 l 1
 315 467 l 1
 315 386 l 1
 302 401 284 402 266 402 c 2
 176 402 l 1
 176 100 l 2
 176 50 175 31 215 0 c 1
 46 0 l 1
 87 31 85 51 85 100 c 2
 85 402 l 1
 36 402 l 1
 85 467 l 1
 85 515 l 2
 85 577 102 620 156 656 c 0
 201 685 253 690 306 690 c 0
 343 690 379 687 416 680 c 0
 429 678 443 674 456 675 c 0
 473 676 486 683 499 693 c 1
 499 100 l 2
 499 50 497 31 537 0 c 1
EndSplineSet
Validated: 33
EndChar

StartChar: endash
Encoding: 8211 8211 111
Width: 454
GlyphClass: 2
Flags: MW
HStem: 214 80
LayerCount: 2
Fore
SplineSet
427 306 m 1
 369 228 l 2
 361 216 341 212 327 212 c 0
 321 212 313 214 309 214 c 2
 83 214 l 2
 59 214 39 210 17 202 c 1
 75 274 l 2
 87 292 109 292 131 292 c 2
 361 292 l 2
 383 292 405 298 427 306 c 1
EndSplineSet
Validated: 1
EndChar

StartChar: dagger
Encoding: 8224 8224 112
Width: 613
GlyphClass: 2
Flags: MW
HStem: 430 80 667 20
VStem: 350 90
LayerCount: 2
Fore
SplineSet
543 323 m 1
 507 341 475 349 434 349 c 2
 350 349 l 1
 350 -16 l 2
 350 -61 349 -101 375 -139 c 1
 237 -139 l 1
 264 -98 263 -64 263 -16 c 2
 263 349 l 1
 180 349 l 2
 137 349 107 344 69 323 c 1
 69 453 l 1
 109 434 137 430 180 430 c 2
 263 430 l 1
 263 561 l 2
 263 598 259 636 237 667 c 1
 375 667 l 1
 356 634 350 599 350 561 c 2
 350 430 l 1
 434 430 l 2
 472 430 508 439 543 453 c 1
 543 323 l 1
EndSplineSet
Validated: 33
EndChar

StartChar: daggerdbl
Encoding: 8225 8225 113
Width: 613
GlyphClass: 2
Flags: MW
HStem: 101 80<158.5 263 187 263 187 263 350 431> 466 80 667 20
VStem: 350 90
LayerCount: 2
Fore
SplineSet
543 77 m 1
 510 97 469 101 431 101 c 2
 350 101 l 1
 350 -16 l 2
 350 -61 349 -101 375 -139 c 1
 237 -139 l 1
 264 -98 263 -64 263 -16 c 2
 263 101 l 1
 181 101 l 2
 136 101 110 97 69 77 c 1
 69 206 l 1
 105 184 145 181 187 181 c 2
 263 181 l 1
 263 384 l 1
 180 384 l 2
 137 384 107 380 69 359 c 1
 69 489 l 1
 109 469 137 466 180 466 c 2
 263 466 l 1
 263 561 l 2
 263 598 259 636 237 667 c 1
 375 667 l 1
 356 634 350 599 350 561 c 2
 350 466 l 1
 434 466 l 2
 472 466 508 475 543 489 c 1
 543 359 l 1
 507 377 475 384 434 384 c 2
 350 384 l 1
 350 181 l 1
 433 181 l 2
 473 181 508 188 543 206 c 1
 543 77 l 1
EndSplineSet
Validated: 33
EndChar

StartChar: periodcentered
Encoding: 183 183 114
Width: 252
GlyphClass: 2
Flags: MW
HStem: 198 126<107 141>
VStem: 60 125
LayerCount: 2
Fore
SplineSet
186 262 m 0
 186 228 158 198 124 198 c 0
 90 198 60 228 60 262 c 0
 60 296 90 324 124 324 c 0
 158 324 186 296 186 262 c 0
EndSplineSet
Validated: 1
EndChar

StartChar: paragraph
Encoding: 182 182 115
Width: 616
GlyphClass: 2
Flags: MW
HStem: 666 39
VStem: 336 77 498 77
LayerCount: 2
Fore
SplineSet
542 626 m 1
 500 626 l 1
 500 -108 l 2
 500 -112 498 -118 498 -122 c 0
 498 -152 502 -180 524 -208 c 1
 402 -208 l 1
 424 -180 426 -154 426 -122 c 2
 426 626 l 1
 336 626 l 1
 336 -108 l 2
 336 -112 334 -118 334 -122 c 0
 334 -154 338 -180 362 -208 c 1
 236 -208 l 1
 260 -180 262 -154 262 -122 c 2
 262 314 l 1
 250 314 l 2
 146 314 66 382 66 488 c 0
 66 550 94 610 150 640 c 0
 190 662 240 666 286 666 c 2
 542 666 l 1
 542 626 l 1
EndSplineSet
Validated: 1
EndChar

StartChar: bullet
Encoding: 8226 8226 116
Width: 667
GlyphClass: 2
Flags: MW
HStem: 200 279<289 365>
VStem: 189 275<302.5 377 302.5 378>
LayerCount: 2
Fore
SplineSet
464 340 m 0
 464 265 403 200 327 200 c 0
 251 200 189 264 189 340 c 0
 189 416 251 479 327 479 c 0
 403 479 464 414 464 340 c 0
EndSplineSet
Validated: 1
EndChar

StartChar: quotesinglbase
Encoding: 8218 8218 117
Width: 340
GlyphClass: 2
Flags: W
LayerCount: 2
Fore
SplineSet
240 44 m 0
 240 -6 204 -54 170 -88 c 0
 160 -98 152 -106 136 -106 c 0
 126 -106 114 -104 102 -102 c 1
 114 -92 176 -26 176 -6 c 2
 176 -4 l 2
 174 -2 170 2 166 2 c 2
 156 6 l 1
 130 12 114 36 114 60 c 0
 114 94 144 118 176 118 c 0
 218 118 240 82 240 44 c 0
EndSplineSet
Validated: 1
EndChar

StartChar: quotedblbase
Encoding: 8222 8222 118
Width: 396
GlyphClass: 2
Flags: MW
VStem: 48 125 338 125
LayerCount: 2
Fore
SplineSet
338 49 m 0
 338 7 309 -35 283 -66 c 0
 275 -76 265 -92 250 -92 c 2
 250 -92 246 -91 242 -91 c 2
 219 -85 l 1
 229 -74 l 2
 241 -61 280 -20 277 0 c 0
 276 5 270 7 265 8 c 0
 237 13 214 32 214 63 c 0
 214 94 245 118 276 118 c 0
 315 118 338 78 338 49 c 0
172 49 m 0
 172 7 143 -35 117 -66 c 0
 109 -76 99 -92 84 -92 c 2
 84 -92 80 -91 76 -91 c 2
 53 -85 l 1
 63 -74 l 2
 75 -61 114 -20 111 0 c 0
 110 5 104 7 99 8 c 0
 71 13 48 32 48 63 c 0
 48 94 79 118 110 118 c 0
 149 118 172 78 172 49 c 0
EndSplineSet
Validated: 33
EndChar

StartChar: quotedblright
Encoding: 8221 8221 119
Width: 398
GlyphClass: 2
Flags: MW
VStem: 47 125 338 125
LayerCount: 2
Fore
SplineSet
338 622 m 0
 338 584 308 540 282 508 c 1
 261 472 242 484 242 484 c 1
 220 490 l 1
 230 504 276 548 276 576 c 0
 276 580 270 582 264 584 c 0
 236 588 214 606 214 638 c 0
 214 670 246 692 272 692 c 0
 316 692 338 658 338 622 c 0
171 622 m 0
 171 584 141 540 115 508 c 1
 94 472 75 484 75 484 c 1
 53 490 l 1
 63 504 109 548 109 576 c 0
 109 580 103 582 97 584 c 0
 69 588 47 606 47 638 c 0
 47 670 79 692 105 692 c 0
 149 692 171 658 171 622 c 0
EndSplineSet
Validated: 33
EndChar

StartChar: guillemotright
Encoding: 187 187 120
Width: 356
GlyphClass: 2
Flags: W
LayerCount: 2
Fore
SplineSet
312 248 m 1
 206 86 l 1
 176 86 l 1
 236 248 l 1
 176 410 l 1
 206 410 l 1
 312 248 l 1
184 248 m 1
 78 86 l 1
 46 86 l 1
 106 248 l 1
 46 410 l 1
 78 410 l 1
 184 248 l 1
EndSplineSet
Validated: 1
EndChar

StartChar: ellipsis
Encoding: 8230 8230 121
Width: 738
GlyphClass: 2
Flags: MW
HStem: -9 126<106 140 352 386.5 598 632.5>
VStem: 60 125 306 125 678 125
LayerCount: 2
Fore
SplineSet
678 54 m 0
 678 20 650 -9 615 -9 c 0
 581 -9 552 20 552 54 c 0
 552 88 581 117 615 117 c 0
 650 117 678 88 678 54 c 0
432 54 m 0
 432 20 404 -9 369 -9 c 0
 335 -9 306 20 306 54 c 0
 306 88 335 117 369 117 c 0
 404 117 432 88 432 54 c 0
186 54 m 0
 186 20 157 -9 123 -9 c 0
 89 -9 60 20 60 54 c 0
 60 88 89 117 123 117 c 0
 157 117 186 88 186 54 c 0
EndSplineSet
Validated: 1
EndChar

StartChar: perthousand
Encoding: 8240 8240 122
Width: 1012
GlyphClass: 2
Flags: MW
HStem: -8 55<505 558 505 572.5 810 863> 252 55 415 55 673 55
VStem: 33 77 243 77<495 538> 387 77 674 77 770 77 979 77
LayerCount: 2
Fore
SplineSet
979 144 m 0
 979 63 916 -8 839 -8 c 0
 750 -8 692 62 692 148 c 0
 692 232 753 305 840 305 c 0
 929 305 979 226 979 144 c 0
320 512 m 0
 320 431 257 360 180 360 c 0
 91 360 33 430 33 516 c 0
 33 600 94 673 181 673 c 0
 270 673 320 594 320 512 c 0
545 666 m 1
 218 0 l 1
 158 0 l 1
 486 666 l 1
 545 666 l 1
674 144 m 0
 674 63 611 -8 534 -8 c 0
 445 -8 387 62 387 148 c 0
 387 232 448 305 535 305 c 0
 624 305 674 226 674 144 c 0
902 148 m 0
 902 192 890 252 835 252 c 0
 782 252 770 188 770 145 c 0
 770 101 783 47 837 47 c 0
 889 47 902 106 902 148 c 0
243 516 m 0
 243 560 231 620 176 620 c 0
 123 620 111 556 111 513 c 0
 111 469 124 415 178 415 c 0
 230 415 243 474 243 516 c 0
597 148 m 0
 597 192 585 252 530 252 c 0
 477 252 465 188 465 145 c 0
 465 101 478 47 532 47 c 0
 584 47 597 106 597 148 c 0
EndSplineSet
Validated: 1
EndChar

StartChar: questiondown
Encoding: 191 191 123
Width: 452
GlyphClass: 2
Flags: MW
HStem: -10 71 690 126
VStem: 35 102 233 90
LayerCount: 2
Fore
SplineSet
323 626 m 0
 323 592 293 564 259 564 c 0
 225 564 197 592 197 626 c 0
 197 660 225 690 259 690 c 0
 293 690 323 660 323 626 c 0
417 106 m 1
 361 12 l 1
 329 0 299 -10 265 -10 c 0
 157 -10 35 46 35 170 c 0
 35 326 233 384 233 468 c 0
 233 484 231 500 227 514 c 1
 307 522 l 1
 311 506 311 488 311 470 c 0
 311 416 269 376 227 340 c 0
 181 298 135 256 135 190 c 0
 135 98 225 62 277 62 c 0
 329 62 373 82 417 106 c 1
EndSplineSet
Validated: 1
EndChar

StartChar: grave
Encoding: 96 96 124
Width: 502
GlyphClass: 2
Flags: MW
HStem: 690 20
LayerCount: 2
Fore
SplineSet
336 534 m 1
 60 616 l 1
 116 690 l 1
 336 534 l 1
EndSplineSet
Validated: 1
EndChar

StartChar: acute
Encoding: 180 180 125
Width: 502
GlyphClass: 2
Flags: MW
HStem: 690 20
LayerCount: 2
Fore
SplineSet
358 616 m 1
 82 534 l 1
 302 690 l 1
 358 616 l 1
EndSplineSet
Validated: 1
EndChar

StartChar: circumflex
Encoding: 710 710 126
Width: 500
GlyphClass: 2
Flags: MW
HStem: 688 20
LayerCount: 2
Fore
SplineSet
413 534 m 1
 353 536 299 564 249 596 c 1
 197 562 143 536 81 534 c 1
 249 688 l 1
 413 534 l 1
EndSplineSet
Validated: 1
EndChar

StartChar: tilde
Encoding: 732 732 127
Width: 500
GlyphClass: 2
Flags: MW
HStem: 558 71 674 20
LayerCount: 2
Fore
SplineSet
430 674 m 1
 412 620 396 558 328 558 c 0
 274 558 206 578 152 578 c 0
 122 578 98 568 74 552 c 1
 90 594 106 654 160 654 c 0
 202 654 282 634 330 634 c 0
 368 634 404 646 430 674 c 1
EndSplineSet
Validated: 1
EndChar

StartChar: macron
Encoding: 175 175 128
Width: 500
GlyphClass: 2
Flags: MW
HStem: 562 64<113 375 119 375>
VStem: 83 330<552 636 552 636>
LayerCount: 2
Fore
SplineSet
413 552 m 1
 401 556 389 562 375 562 c 2
 119 562 l 2
 107 562 95 556 83 552 c 1
 83 636 l 1
 95 630 107 626 119 626 c 2
 375 626 l 2
 389 626 401 630 413 636 c 1
 413 552 l 1
EndSplineSet
Validated: 1
EndChar

StartChar: breve
Encoding: 728 728 129
Width: 500
GlyphClass: 2
Flags: MW
HStem: 550 71 673 20
LayerCount: 2
Fore
SplineSet
425 673 m 1
 415 649 403 626 385 607 c 0
 348 570 295 550 244 550 c 0
 186 550 127 574 92 620 c 0
 79 636 71 654 64 673 c 1
 126 673 l 1
 153 631 198 616 247 616 c 0
 294 616 337 633 363 673 c 1
 425 673 l 1
EndSplineSet
Validated: 1
EndChar

StartChar: dotaccent
Encoding: 729 729 130
Width: 262
GlyphClass: 2
Flags: MW
HStem: 528 126<109 143>
VStem: 62 125
LayerCount: 2
Fore
SplineSet
188 592 m 0
 188 558 160 528 126 528 c 0
 92 528 62 558 62 592 c 0
 62 626 92 654 126 654 c 0
 160 654 188 626 188 592 c 0
EndSplineSet
Validated: 1
EndChar

StartChar: dieresis
Encoding: 168 168 131
Width: 512
GlyphClass: 2
Flags: MW
HStem: 550 126
VStem: 98 125 406 125
LayerCount: 2
Fore
SplineSet
406 612 m 0
 406 578 378 550 344 550 c 0
 312 550 284 578 284 612 c 0
 284 644 312 672 344 672 c 0
 378 672 406 644 406 612 c 0
218 612 m 0
 218 578 192 550 158 550 c 0
 126 550 98 578 98 612 c 0
 98 644 126 672 158 672 c 0
 192 672 218 644 218 612 c 0
EndSplineSet
Validated: 1
EndChar

StartChar: ring
Encoding: 730 730 132
Width: 500
GlyphClass: 2
Flags: MW
HStem: 534 46 728 46
VStem: 153 46 347 46
LayerCount: 2
Fore
SplineSet
347 631 m 0
 347 578 302 534 250 534 c 0
 197 534 153 578 153 631 c 0
 153 684 197 728 250 728 c 0
 303 728 347 684 347 631 c 0
305 630 m 0
 305 660 280 684 250 684 c 0
 221 684 196 660 196 630 c 0
 196 600 221 576 250 576 c 0
 280 576 305 600 305 630 c 0
EndSplineSet
Validated: 1
EndChar

StartChar: cedilla
Encoding: 184 184 133
Width: 500
GlyphClass: 2
Flags: MW
HStem: -192 55
VStem: 345 68
LayerCount: 2
Fore
SplineSet
345 -118 m 0
 345 -164 293 -192 253 -192 c 0
 211 -192 173 -182 139 -156 c 1
 171 -118 l 1
 193 -132 213 -142 241 -142 c 0
 257 -142 277 -134 277 -114 c 0
 277 -98 263 -88 247 -88 c 0
 237 -88 227 -92 219 -96 c 1
 185 -50 l 1
 205 0 l 1
 255 0 l 1
 237 -50 l 1
 249 -48 261 -44 273 -44 c 0
 317 -44 345 -76 345 -118 c 0
EndSplineSet
Validated: 1
EndChar

StartChar: hungarumlaut
Encoding: 733 733 134
Width: 500
GlyphClass: 2
Flags: W
LayerCount: 2
Fore
SplineSet
440 682 m 1
 198 526 l 1
 366 738 l 1
 440 682 l 1
273 682 m 1
 31 526 l 1
 199 738 l 1
 273 682 l 1
EndSplineSet
Validated: 1
EndChar

StartChar: ogonek
Encoding: 731 731 135
Width: 500
GlyphClass: 2
Flags: MW
HStem: -178 55
VStem: 174 77
LayerCount: 2
Fore
SplineSet
312 -120 m 5
 270 -178 l 5
 258 -178 l 6
 215 -178 174 -150 174 -105 c 4
 174 -60 200 -27 231 0 c 5
 301 0 l 5
 277 -21 247 -49 247 -84 c 4
 247 -112 277 -120 300 -120 c 6
 312 -120 l 5
EndSplineSet
Validated: 1
EndChar

StartChar: caron
Encoding: 711 711 136
Width: 500
GlyphClass: 2
Flags: MW
HStem: 687 20
LayerCount: 2
Fore
SplineSet
421 687 m 1
 257 532 l 1
 90 687 l 1
 152 685 206 659 257 626 c 1
 307 657 361 685 421 687 c 1
EndSplineSet
Validated: 1
EndChar

StartChar: emdash
Encoding: 8212 8212 137
Width: 776
GlyphClass: 2
Flags: MW
HStem: 214 80
LayerCount: 2
Fore
SplineSet
766 306 m 1
 708 228 l 2
 700 216 676 212 660 212 c 0
 656 212 650 214 648 214 c 2
 78 214 l 2
 54 214 34 210 10 202 c 1
 70 274 l 2
 82 292 104 292 126 292 c 2
 700 292 l 2
 722 292 744 298 766 306 c 1
EndSplineSet
Validated: 1
EndChar

StartChar: AE
Encoding: 198 198 138
Width: 962
GlyphClass: 2
Flags: MW
HStem: 0 71 400 71 668 71
VStem: 622 102
LayerCount: 2
Fore
SplineSet
944 132 m 1
 898 0 l 1
 476 0 l 1
 492 10 504 22 512 40 c 0
 518 60 520 82 520 102 c 2
 520 326 l 1
 356 326 l 1
 188 94 l 2
 180 80 162 62 162 44 c 1
 164 42 l 1
 164 22 180 12 194 0 c 1
 -12 0 l 1
 42 34 80 84 118 134 c 2
 452 584 l 2
 464 598 478 618 478 636 c 0
 478 652 466 662 454 668 c 1
 812 668 l 2
 826 668 838 668 850 674 c 1
 850 556 l 1
 812 592 772 596 722 596 c 0
 688 596 656 594 622 588 c 1
 622 400 l 1
 758 400 l 2
 770 400 780 400 792 406 c 1
 792 298 l 1
 774 324 742 326 712 326 c 2
 622 326 l 1
 622 86 l 1
 662 78 704 74 746 74 c 0
 818 74 886 88 944 132 c 1
522 392 m 1
 522 564 l 1
 404 392 l 1
 522 392 l 1
EndSplineSet
Validated: 1
EndChar

StartChar: ordfeminine
Encoding: 170 170 139
Width: 388
GlyphClass: 2
Flags: MW
HStem: 298 46 394 46 674 46
VStem: 55 63 287 63
LayerCount: 2
Fore
SplineSet
337 440 m 1
 309 398 l 1
 289 398 269 400 253 410 c 0
 229 422 229 448 229 472 c 2
 229 542 l 1
 215 536 199 530 183 526 c 0
 153 520 119 514 119 480 c 0
 119 450 149 438 175 438 c 0
 193 438 211 442 227 446 c 1
 187 396 l 1
 175 394 163 394 151 394 c 0
 99 394 55 430 55 484 c 0
 55 542 121 554 165 562 c 0
 183 566 227 570 227 598 c 0
 227 622 199 630 179 630 c 0
 147 630 117 620 89 606 c 1
 133 672 l 1
 149 674 163 674 179 674 c 0
 213 674 253 666 273 638 c 0
 287 616 287 590 287 566 c 2
 287 494 l 2
 287 492 285 484 285 482 c 0
 285 470 289 456 299 448 c 0
 309 440 325 440 337 440 c 1
353 298 m 1
 39 298 l 1
 39 345 l 1
 353 345 l 1
 353 298 l 1
EndSplineSet
Validated: 1
EndChar

StartChar: Lslash
Encoding: 321 321 140
Width: 532
GlyphClass: 2
Flags: MW
HStem: 0 71 667 20
VStem: 92 102
LayerCount: 2
Fore
SplineSet
513 134 m 1
 460 0 l 1
 46 0 l 1
 64 9 76 21 83 40 c 0
 93 68 92 100 92 130 c 2
 92 263 l 1
 15 209 l 1
 22 258 l 2
 25 277 34 292 51 304 c 2
 92 333 l 1
 92 537 l 2
 92 568 93 603 81 632 c 0
 74 648 62 659 46 667 c 1
 238 667 l 1
 221 657 209 646 202 627 c 0
 192 599 193 566 193 537 c 2
 193 404 l 1
 373 529 l 1
 366 481 l 2
 363 460 354 449 337 437 c 2
 193 335 l 1
 193 82 l 1
 242 75 292 72 342 72 c 0
 383 72 427 83 463 102 c 0
 481 111 497 123 513 134 c 1
EndSplineSet
Validated: 33
EndChar

StartChar: Oslash
Encoding: 216 216 141
Width: 826
GlyphClass: 2
Flags: MW
HStem: -18 71 684 71
VStem: 40 114<268 417 268 427> 784 114
LayerCount: 2
Fore
SplineSet
784 338 m 0
 784 106 576 -18 402 -18 c 0
 374 -18 346 -14 318 -10 c 1
 290 -94 l 1
 222 -94 l 1
 256 12 l 1
 166 54 40 152 40 324 c 0
 40 530 206 684 412 684 c 0
 436 684 460 682 484 680 c 1
 516 776 l 1
 584 776 l 1
 546 666 l 1
 666 626 784 518 784 338 c 0
670 324 m 0
 670 478 570 568 520 588 c 1
 344 66 l 1
 364 60 384 56 406 56 c 0
 568 56 670 164 670 324 c 0
458 608 m 1
 442 612 424 614 406 614 c 0
 248 614 154 490 154 344 c 0
 154 192 254 110 284 92 c 1
 458 608 l 1
EndSplineSet
Validated: 1
EndChar

StartChar: OE
Encoding: 338 338 142
Width: 1076
GlyphClass: 2
Flags: MW
HStem: -17 71 396 71 683 71
VStem: 39 114 744 102
LayerCount: 2
Fore
SplineSet
1064 127 m 1
 1015 0 l 1
 604 0 l 1
 629 20 649 46 651 79 c 0
 651 87 651 94 650 102 c 1
 601 36 531 -17 393 -17 c 0
 227 -17 39 101 39 319 c 0
 39 555 201 683 401 683 c 0
 545 683 630 588 650 568 c 1
 648 606 634 641 604 666 c 1
 909 666 l 1
 936 668 l 2
 947 668 957 669 968 671 c 1
 968 550 l 1
 935 594 876 593 826 593 c 0
 799 593 771 590 744 587 c 1
 744 396 l 1
 861 396 l 2
 877 396 893 397 909 403 c 1
 909 306 l 1
 890 324 866 327 840 327 c 2
 744 327 l 1
 744 84 l 1
 788 77 831 73 876 73 c 0
 920 73 963 81 1004 97 c 0
 1025 106 1044 116 1064 127 c 1
643 322 m 0
 643 471 566 610 402 610 c 0
 232 610 154 502 154 340 c 0
 154 137 281 59 410 59 c 0
 548 59 643 151 643 322 c 0
EndSplineSet
Validated: 33
EndChar

StartChar: ordmasculine
Encoding: 186 186 143
Width: 388
GlyphClass: 2
Flags: MW
HStem: 298 46 394 46 676 46
VStem: 44 63 348 63
LayerCount: 2
Fore
SplineSet
348 532 m 0
 348 452 270 394 194 394 c 0
 116 394 44 450 44 532 c 0
 44 620 118 676 200 676 c 0
 282 676 348 616 348 532 c 0
356 298 m 1
 42 298 l 1
 42 345 l 1
 356 345 l 1
 356 298 l 1
282 522 m 0
 282 576 256 632 194 632 c 0
 144 632 108 590 108 542 c 0
 108 492 140 436 196 436 c 0
 244 436 282 474 282 522 c 0
EndSplineSet
Validated: 1
EndChar

StartChar: ae
Encoding: 230 230 144
Width: 856
GlyphClass: 2
Flags: MW
HStem: -14 71 310 55 480 71
VStem: 34 102<111 168 111 185> 350 102
LayerCount: 2
Fore
SplineSet
812 110 m 1
 762 18 l 1
 718 -6 672 -14 622 -14 c 0
 532 -14 434 20 386 102 c 0
 358 148 350 198 350 250 c 1
 326 238 300 232 272 226 c 0
 230 216 136 198 136 138 c 0
 136 84 196 58 242 58 c 0
 286 58 324 74 360 96 c 1
 316 10 l 1
 286 -6 252 -14 218 -14 c 0
 128 -14 34 38 34 138 c 0
 34 232 106 256 232 280 c 0
 262 286 354 296 354 350 c 0
 354 400 280 410 242 410 c 0
 198 410 150 392 110 374 c 1
 180 468 l 1
 204 474 232 480 256 480 c 0
 358 480 392 440 420 412 c 1
 466 454 522 480 586 480 c 0
 726 480 808 386 812 250 c 1
 454 250 l 1
 454 224 456 198 466 174 c 0
 494 102 562 56 640 56 c 0
 740 56 792 98 812 110 c 1
706 310 m 1
 700 348 672 418 586 418 c 0
 522 418 470 370 462 310 c 1
 706 310 l 1
EndSplineSet
Validated: 1
EndChar

StartChar: dotlessi
Encoding: 305 305 145
Width: 262
GlyphClass: 2
Flags: MW
HStem: 0 20 486 20
VStem: 82 90<86 88 66 380>
LayerCount: 2
Fore
SplineSet
212 0 m 1
 44 0 l 1
 80 28 82 48 82 86 c 2
 82 380 l 2
 82 418 80 440 44 468 c 1
 114 468 l 2
 136 468 158 470 174 486 c 1
 174 100 l 2
 174 96 172 90 172 86 c 0
 172 46 176 28 212 0 c 1
EndSplineSet
Validated: 1
EndChar

StartChar: lslash
Encoding: 322 322 146
Width: 298
GlyphClass: 2
Flags: MW
HStem: 0 20
VStem: 108 90
LayerCount: 2
Fore
SplineSet
273 498 m 2
 273 485 272 473 265 461 c 2
 253 442 l 1
 200 395 l 1
 200 100 l 2
 200 50 198 31 238 0 c 1
 70 0 l 1
 110 31 108 51 108 100 c 2
 108 318 l 1
 36 247 l 1
 36 285 l 2
 36 303 40 317 53 330 c 2
 108 386 l 1
 108 567 l 2
 108 616 110 635 70 667 c 1
 140 667 l 2
 162 667 184 669 200 686 c 1
 200 465 l 1
 273 535 l 1
 273 498 l 2
EndSplineSet
Validated: 33
EndChar

StartChar: oslash
Encoding: 248 248 147
Width: 606
GlyphClass: 2
Flags: MW
HStem: -14 71 480 71
VStem: 41 102 563 102
LayerCount: 2
Fore
SplineSet
563 244 m 0
 563 98 445 -14 301 -14 c 0
 281 -14 263 -12 245 -10 c 1
 209 -114 l 1
 147 -114 l 1
 191 8 l 1
 139 28 41 100 41 226 c 0
 41 398 183 480 297 480 c 0
 319 480 339 480 359 476 c 1
 391 562 l 1
 447 562 l 1
 411 462 l 1
 443 448 563 380 563 244 c 0
459 230 m 0
 459 292 431 352 385 388 c 1
 269 58 l 1
 283 56 295 54 309 54 c 0
 349 54 459 80 459 230 c 0
335 408 m 1
 321 412 307 412 295 412 c 0
 207 412 145 344 145 242 c 0
 145 178 169 124 219 82 c 1
 335 408 l 1
EndSplineSet
Validated: 1
EndChar

StartChar: oe
Encoding: 339 339 148
Width: 967
GlyphClass: 2
Flags: MW
HStem: -13 71 308 64 480 71
VStem: 38 102 568 102
LayerCount: 2
Fore
SplineSet
928 111 m 1
 877 14 l 1
 835 -4 790 -13 744 -13 c 0
 649 -13 571 13 517 92 c 1
 464 28 393 -13 308 -13 c 0
 202 -13 38 44 38 232 c 0
 38 371 146 480 309 480 c 0
 396 480 468 443 517 372 c 1
 564 443 631 480 717 480 c 0
 854 480 928 371 928 245 c 1
 568 245 l 1
 573 127 642 57 762 57 c 0
 822 57 879 78 928 111 c 1
822 308 m 1
 817 344 795 414 707 414 c 0
 635 414 594 373 573 308 c 1
 822 308 l 1
471 216 m 0
 471 315 415 414 306 414 c 0
 202 414 141 344 141 243 c 0
 141 139 197 54 308 54 c 0
 407 54 471 117 471 216 c 0
EndSplineSet
Validated: 1
EndChar

StartChar: germandbls
Encoding: 223 223 149
Width: 586
GlyphClass: 2
Flags: MW
HStem: -14 71 680 55
VStem: 83 90<98 100 100 366 366 366 432 482 482 486> 231 102<390 406> 449 90 449 90
LayerCount: 2
Fore
SplineSet
541 160 m 0xfc
 541 56 461 -14 367 -14 c 0
 323 -14 283 -4 245 18 c 1
 217 114 l 1
 257 84 299 60 351 60 c 0
 405 60 447 108 447 160 c 0
 447 240 365 292 283 326 c 0
 257 336 231 350 231 384 c 0
 231 428 355 462 355 550 c 0
 355 596 309 622 269 622 c 0
 191 622 173 548 173 486 c 2
 173 100 l 2
 173 96 171 90 171 88 c 0
 171 50 175 28 213 0 c 1
 43 0 l 1
 81 28 83 50 83 88 c 2
 83 366 l 1
 33 366 l 1
 83 432 l 1
 83 482 l 2
 83 528 93 576 121 612 c 0
 157 660 219 680 277 680 c 0
 357 680 449 636 449 546 c 0
 449 448 333 424 333 396 c 0
 333 384 349 376 359 372 c 0
 453 332 541 274 541 160 c 0xfc
EndSplineSet
Validated: 8388609
EndChar

StartChar: Eth
Encoding: 208 208 150
Width: 742
GlyphClass: 2
Flags: MW
HStem: 4 71 380 71 668 71
VStem: 114 102 692 114
LayerCount: 2
Fore
SplineSet
692 338 m 0
 692 210 616 86 498 34 c 0
 452 12 402 6 350 4 c 0
 310 2 270 0 232 0 c 2
 68 0 l 1
 82 14 98 26 104 44 c 0
 114 72 114 104 114 134 c 2
 114 314 l 1
 90 314 l 2
 78 314 66 310 54 304 c 1
 54 390 l 1
 66 386 78 380 90 380 c 2
 114 380 l 1
 114 538 l 2
 114 568 114 604 102 632 c 0
 96 648 84 660 68 668 c 1
 330 668 l 2
 526 668 692 546 692 338 c 0
578 322 m 0
 578 484 482 600 314 600 c 0
 280 600 248 596 214 590 c 1
 214 380 l 1
 354 380 l 2
 366 380 378 386 390 390 c 1
 390 304 l 1
 378 310 366 314 354 314 c 2
 214 314 l 1
 214 84 l 1
 248 78 280 76 314 76 c 0
 386 76 456 98 508 148 c 0
 554 194 578 258 578 322 c 0
EndSplineSet
Validated: 1
EndChar

StartChar: eth
Encoding: 240 240 151
Width: 606
GlyphClass: 2
Flags: MW
HStem: -14 71 480 71
VStem: 40 102<222 271> 560 102
LayerCount: 2
Fore
SplineSet
560 240 m 0
 560 94 440 -14 296 -14 c 0
 154 -14 40 90 40 234 c 0
 40 308 76 378 132 424 c 0
 184 464 246 480 308 480 c 0
 334 480 360 476 384 472 c 1
 346 578 l 1
 306 560 l 2
 294 554 286 546 278 536 c 1
 248 602 l 1
 260 602 272 604 284 608 c 2
 328 628 l 1
 304 698 l 1
 356 718 l 1
 386 654 l 1
 434 676 l 2
 446 680 454 690 464 700 c 1
 494 632 l 1
 480 632 468 632 456 626 c 2
 410 606 l 1
 492 440 l 1
 516 392 l 2
 540 344 560 294 560 240 c 0
458 212 m 0
 458 310 410 414 298 414 c 0
 204 414 142 338 142 248 c 0
 142 196 158 142 196 102 c 0
 222 72 260 54 302 54 c 0
 344 54 384 72 414 100 c 0
 442 130 458 172 458 212 c 0
EndSplineSet
Validated: 1
EndChar

StartChar: Scaron
Encoding: 352 352 152
Width: 564
GlyphClass: 2
Flags: MW
HStem: -18 80 684 71 867 20
VStem: 54 114<451 553 451 559> 520 114
LayerCount: 2
Fore
SplineSet
520 190 m 0
 520 62 378 -18 260 -18 c 0
 194 -18 130 -8 66 14 c 1
 36 140 l 1
 104 86 180 60 266 60 c 0
 322 60 410 92 410 162 c 0
 410 322 54 290 54 506 c 0
 54 612 148 684 304 684 c 0
 356 684 410 676 462 662 c 1
 462 546 l 1
 420 588 360 612 302 612 c 0
 244 612 168 588 168 518 c 0
 168 384 520 384 520 190 c 0
451 867 m 5
 287 712 l 5
 120 867 l 5
 182 865 236 839 287 806 c 5
 337 837 391 865 451 867 c 5
EndSplineSet
Validated: 1
EndChar

StartChar: scaron
Encoding: 353 353 153
Width: 450
GlyphClass: 2
Flags: MW
HStem: -14 64<182 237 182 256> 482 55 684 20
VStem: 56 90 424 96
LayerCount: 2
Fore
SplineSet
424 136 m 0
 424 34 302 -14 210 -14 c 0
 120 -14 78 8 64 12 c 1
 30 112 l 1
 86 78 148 50 216 50 c 0
 258 50 328 66 328 120 c 0
 328 222 56 192 56 346 c 0
 56 452 168 482 256 482 c 0
 294 482 332 478 368 468 c 1
 368 382 l 1
 332 404 290 422 248 422 c 0
 212 422 150 412 150 368 c 0
 150 266 424 316 424 136 c 0
400 684 m 5
 236 529 l 5
 69 684 l 5
 131 682 185 656 236 623 c 5
 286 654 340 682 400 684 c 5
EndSplineSet
Validated: 1
EndChar

StartChar: Yacute
Encoding: 221 221 154
Width: 616
GlyphClass: 2
Flags: MW
HStem: 0 20 668 20 864 20
VStem: 362 102
LayerCount: 2
Fore
SplineSet
610 668 m 1
 362 292 l 1
 362 120 l 2
 362 62 368 38 412 0 c 1
 216 0 l 1
 232 10 244 22 250 40 c 0
 260 68 260 100 260 130 c 2
 260 292 l 1
 84 574 l 2
 58 616 38 640 -6 668 c 1
 108 668 l 2
 126 668 146 666 156 650 c 2
 324 374 l 1
 456 574 l 2
 464 586 470 602 470 620 c 0
 470 640 452 658 434 668 c 1
 610 668 l 1
436 790 m 1
 160 708 l 1
 380 864 l 1
 436 790 l 1
EndSplineSet
Validated: 1
EndChar

StartChar: yacute
Encoding: 253 253 155
Width: 576
GlyphClass: 2
Flags: MW
HStem: -210 71 468 20 687 20
LayerCount: 2
Fore
SplineSet
546 468 m 1
 330 -48 l 2
 312 -92 266 -210 120 -210 c 0
 76 -210 34 -200 -8 -184 c 1
 84 -118 l 1
 100 -128 120 -136 140 -136 c 0
 206 -136 240 -72 260 -18 c 2
 272 10 l 1
 260 22 l 2
 240 42 230 60 218 86 c 2
 84 378 l 2
 66 418 52 448 8 468 c 1
 108 468 l 2
 132 468 146 468 158 438 c 2
 312 90 l 1
 420 360 l 2
 428 380 434 402 434 424 c 0
 434 444 422 454 404 468 c 1
 546 468 l 1
418 613 m 1
 142 531 l 1
 362 687 l 1
 418 613 l 1
EndSplineSet
Validated: 1
EndChar

StartChar: Thorn
Encoding: 222 222 156
Width: 564
GlyphClass: 2
Flags: MW
HStem: 0 20 534 71 668 20
VStem: 87 102<102 120 120 456 534 537> 521 114
LayerCount: 2
Fore
SplineSet
521 358 m 0
 521 302 489 250 447 218 c 0
 405 184 351 166 297 166 c 0
 271 166 247 170 223 180 c 1
 269 186 315 198 351 228 c 0
 387 256 407 296 407 344 c 0
 407 428 335 464 261 464 c 0
 237 464 213 462 189 456 c 1
 189 120 l 2
 189 68 197 30 243 0 c 1
 43 0 l 1
 59 10 71 22 79 40 c 0
 85 60 87 82 87 102 c 2
 87 560 l 2
 87 584 85 612 77 632 c 0
 69 648 57 660 43 668 c 1
 235 668 l 1
 217 658 205 646 199 628 c 0
 191 606 187 578 187 556 c 0
 187 550 189 540 189 534 c 1
 253 534 l 2
 307 534 361 534 413 512 c 0
 473 486 521 424 521 358 c 0
EndSplineSet
Validated: 1
EndChar

StartChar: thorn
Encoding: 254 254 157
Width: 616
GlyphClass: 2
Flags: MW
HStem: -14 71 480 71
VStem: 80 90<-110 -108 -108 264 408 580 580 600> 570 102
LayerCount: 2
Fore
SplineSet
570 232 m 0
 570 96 462 -14 326 -14 c 0
 300 -14 274 -8 250 0 c 1
 196 84 l 1
 230 66 266 56 306 56 c 0
 418 56 466 130 466 234 c 0
 466 326 410 410 312 410 c 0
 270 410 226 392 198 358 c 0
 174 332 170 298 170 264 c 2
 170 -108 l 2
 170 -112 168 -118 168 -120 c 0
 168 -160 172 -182 210 -208 c 1
 40 -208 l 1
 78 -182 80 -160 80 -120 c 2
 80 580 l 2
 80 620 78 640 40 668 c 1
 110 668 l 2
 132 668 154 670 170 686 c 1
 170 408 l 1
 210 456 276 480 338 480 c 0
 400 480 462 454 506 410 c 0
 552 362 570 298 570 232 c 0
EndSplineSet
Validated: 1
EndChar

StartChar: Zcaron
Encoding: 381 381 158
Width: 638
GlyphClass: 2
Flags: MW
HStem: 0 71 668 71 867 20
LayerCount: 2
Fore
SplineSet
612 128 m 1
 560 0 l 1
 24 0 l 1
 392 584 l 1
 332 590 272 594 212 594 c 0
 152 594 118 582 66 552 c 1
 116 668 l 1
 564 668 l 1
 200 86 l 1
 268 80 336 74 406 74 c 0
 452 74 500 80 544 96 c 0
 568 106 590 116 612 128 c 1
493 867 m 1
 329 712 l 1
 162 867 l 1
 224 865 278 839 329 806 c 1
 379 837 433 865 493 867 c 1
EndSplineSet
Validated: 1
EndChar

StartChar: zcaron
Encoding: 382 382 159
Width: 522
GlyphClass: 2
Flags: MW
HStem: 0 71 397 71 687 20
LayerCount: 2
Fore
SplineSet
508 112 m 1
 452 0 l 1
 22 0 l 1
 302 392 l 1
 274 396 246 398 218 398 c 0
 160 398 102 398 52 364 c 1
 102 468 l 1
 462 468 l 1
 196 80 l 1
 244 74 294 72 344 72 c 0
 406 72 454 80 508 112 c 1
436 687 m 1
 272 532 l 1
 105 687 l 1
 167 685 221 659 272 626 c 1
 322 657 376 685 436 687 c 1
EndSplineSet
Validated: 1
EndChar

StartChar: onehalf
Encoding: 189 189 160
Width: 857
GlyphClass: 2
Flags: MW
HStem: 0 55 410 55
VStem: 102 77 774 77
LayerCount: 2
Fore
SplineSet
828 82 m 1
 788 0 l 1
 486 0 l 1
 656 230 l 2
 672 252 692 276 692 304 c 0
 692 340 654 354 624 354 c 0
 580 354 542 334 506 314 c 1
 550 398 l 1
 578 406 606 410 636 410 c 0
 666 410 698 404 726 390 c 0
 754 374 774 346 774 314 c 0
 774 288 760 266 746 244 c 2
 710 190 l 1
 610 56 l 1
 638 52 664 50 692 50 c 0
 740 50 786 60 828 82 c 1
586 668 m 1
 258 0 l 1
 198 0 l 1
 526 668 l 1
 586 668 l 1
214 268 m 1
 56 268 l 1
 96 290 102 300 102 348 c 2
 102 582 l 1
 14 582 l 1
 70 602 134 640 174 704 c 1
 174 348 l 2
 174 312 178 288 214 268 c 1
EndSplineSet
Validated: 1
EndChar

StartChar: onequarter
Encoding: 188 188 161
Width: 864
GlyphClass: 2
Flags: MW
HStem: 0 20 134 55
VStem: 95 77 749 68
LayerCount: 2
Fore
SplineSet
835 166 m 1
 797 82 l 1
 749 82 l 1
 749 62 l 2
 749 32 759 14 785 0 c 1
 637 0 l 1
 667 12 681 20 681 54 c 2
 681 82 l 1
 455 82 l 1
 659 400 l 1
 749 400 l 1
 749 136 l 1
 783 138 807 146 835 166 c 1
579 668 m 1
 251 0 l 1
 191 0 l 1
 519 668 l 1
 579 668 l 1
207 268 m 1
 49 268 l 1
 89 290 95 300 95 348 c 2
 95 582 l 1
 7 582 l 1
 63 602 127 640 167 704 c 1
 167 348 l 2
 167 312 171 288 207 268 c 1
681 134 m 1
 681 342 l 1
 555 138 l 1
 591 134 627 134 663 134 c 2
 681 134 l 1
EndSplineSet
Validated: 1
EndChar

StartChar: onesuperior
Encoding: 185 185 162
Width: 408
GlyphClass: 2
Flags: MW
VStem: 246 77
LayerCount: 2
Fore
SplineSet
286 268 m 1
 128 268 l 1
 168 290 174 302 174 348 c 2
 174 582 l 1
 86 582 l 1
 154 606 206 642 246 704 c 1
 246 348 l 2
 246 308 250 288 286 268 c 1
EndSplineSet
Validated: 1
EndChar

StartChar: threequarters
Encoding: 190 190 163
Width: 912
GlyphClass: 2
Flags: MW
HStem: 0 20 134 55 258 55 510 46 676 55
VStem: 250 77 804 68
LayerCount: 2
Fore
SplineSet
890 166 m 1
 852 82 l 1
 804 82 l 1
 804 62 l 2
 804 32 814 14 840 0 c 1
 692 0 l 1
 722 12 736 20 736 54 c 2
 736 82 l 1
 510 82 l 1
 714 400 l 1
 804 400 l 1
 804 136 l 1
 838 138 862 146 890 166 c 1
634 668 m 1
 306 0 l 1
 246 0 l 1
 574 668 l 1
 634 668 l 1
328 390 m 0
 328 286 204 258 120 258 c 0
 96 258 74 260 52 262 c 1
 16 344 l 1
 54 326 94 312 136 312 c 0
 186 312 250 334 250 394 c 0
 250 446 194 462 150 462 c 0
 132 462 114 460 96 454 c 1
 96 512 l 1
 110 510 124 510 138 510 c 0
 174 510 222 528 222 572 c 0
 222 608 176 624 144 624 c 0
 106 624 72 608 40 590 c 1
 70 662 l 1
 98 674 126 676 156 676 c 0
 214 676 296 650 296 580 c 0
 296 538 264 510 228 496 c 1
 280 484 328 450 328 390 c 0
736 134 m 1
 736 342 l 1
 610 138 l 1
 646 134 682 134 718 134 c 2
 736 134 l 1
EndSplineSet
Validated: 1
EndChar

StartChar: threesuperior
Encoding: 179 179 164
Width: 408
GlyphClass: 2
Flags: MW
HStem: 258 55 510 46 678 55
VStem: 355 77
LayerCount: 2
Fore
SplineSet
355 392 m 0
 355 286 231 258 147 258 c 0
 123 258 101 260 79 262 c 1
 43 344 l 1
 81 326 121 314 163 314 c 0
 213 314 277 334 277 394 c 0
 277 446 221 462 177 462 c 0
 159 462 141 460 123 454 c 1
 123 512 l 1
 137 512 151 510 165 510 c 0
 201 510 249 528 249 572 c 0
 249 608 203 624 171 624 c 0
 133 624 99 608 67 590 c 1
 97 664 l 1
 125 674 153 678 183 678 c 0
 241 678 323 650 323 580 c 0
 323 538 291 510 255 496 c 1
 307 484 355 452 355 392 c 0
EndSplineSet
Validated: 1
EndChar

StartChar: twosuperior
Encoding: 178 178 165
Width: 408
GlyphClass: 2
Flags: MW
HStem: 268 46 678 55
VStem: 322 77
LayerCount: 2
Fore
SplineSet
376 348 m 1
 336 268 l 1
 34 268 l 1
 204 498 l 2
 220 518 240 542 240 570 c 0
 240 606 202 622 172 622 c 0
 128 622 90 600 54 580 c 1
 98 666 l 1
 126 672 154 678 184 678 c 0
 214 678 246 672 274 656 c 0
 302 642 322 612 322 580 c 0
 322 554 308 532 294 510 c 2
 258 456 l 1
 158 322 l 1
 186 320 212 316 240 316 c 0
 288 316 334 328 376 348 c 1
EndSplineSet
Validated: 1
EndChar

StartChar: brokenbar
Encoding: 166 166 166
Width: 500
GlyphClass: 2
Flags: MW
HStem: 666 20
VStem: 197 90
LayerCount: 2
Fore
SplineSet
289 333 m 1
 197 291 l 1
 197 666 l 1
 289 666 l 1
 289 333 l 1
289 -168 m 1
 197 -168 l 1
 197 202 l 1
 289 244 l 1
 289 -168 l 1
EndSplineSet
Validated: 1
EndChar

StartChar: minus
Encoding: 8722 8722 167
Width: 374
GlyphClass: 2
Flags: MW
HStem: 297 80<238 248>
LayerCount: 2
Fore
SplineSet
339 391 m 1
 283 313 l 2
 275 301 255 297 241 297 c 0
 235 297 227 299 223 299 c 2
 95 301 l 2
 73 299 51 295 29 287 c 1
 87 359 l 2
 101 377 123 377 145 377 c 2
 275 377 l 2
 297 377 319 383 339 391 c 1
EndSplineSet
Validated: 1
EndChar

StartChar: multiply
Encoding: 215 215 168
Width: 454
GlyphClass: 2
Flags: W
LayerCount: 2
Fore
SplineSet
403 174 m 1
 343 170 l 1
 323 170 l 2
 307 172 300 183 291 196 c 2
 217 298 l 1
 146 217 l 2
 141 210 136 203 136 194 c 0
 136 184 143 179 150 174 c 1
 40 174 l 1
 186 338 l 1
 105 445 l 2
 92 460 76 474 58 488 c 1
 119 488 l 2
 147 488 150 486 165 466 c 2
 228 381 l 1
 277 440 l 2
 284 447 290 456 290 466 c 0
 290 476 281 482 273 488 c 1
 386 488 l 1
 258 342 l 1
 338 237 l 2
 356 213 376 189 403 174 c 1
EndSplineSet
Validated: 1
EndChar

StartChar: Adieresis
Encoding: 196 196 169
Width: 742
GlyphClass: 2
Flags: MW
HStem: 0 20 252 64<252 458 252 484 228 458> 668 20 712 126
VStem: 194 125 502 125
LayerCount: 2
Fore
SplineSet
732 0 m 1
 524 0 l 1
 538 8 560 18 560 36 c 0
 560 56 550 78 544 96 c 2
 484 252 l 1
 228 252 l 1
 170 96 l 2
 164 82 158 64 158 46 c 0
 158 24 176 10 196 0 c 1
 10 0 l 1
 66 34 80 78 104 136 c 2
 282 582 l 2
 288 598 294 614 294 632 c 0
 294 650 278 660 262 668 c 1
 422 668 l 1
 638 136 l 2
 660 80 678 34 732 0 c 1
458 316 m 1
 356 582 l 1
 252 316 l 1
 458 316 l 1
502 774 m 0
 502 740 474 712 440 712 c 0
 408 712 380 740 380 774 c 0
 380 806 408 834 440 834 c 0
 474 834 502 806 502 774 c 0
314 774 m 0
 314 740 288 712 254 712 c 0
 222 712 194 740 194 774 c 0
 194 806 222 834 254 834 c 0
 288 834 314 806 314 774 c 0
EndSplineSet
Validated: 1
EndChar

StartChar: Aring
Encoding: 197 197 170
Width: 742
GlyphClass: 2
Flags: MW
HStem: 0 20 252 64<252 458 252 484 228 458> 668 20 714 46 908 46
VStem: 252 46 446 46
LayerCount: 2
Fore
SplineSet
732 0 m 1
 524 0 l 1
 538 8 560 18 560 36 c 0
 560 56 550 78 544 96 c 2
 484 252 l 1
 228 252 l 1
 170 96 l 2
 164 82 158 64 158 46 c 0
 158 24 176 10 196 0 c 1
 10 0 l 1
 66 34 80 78 104 136 c 2
 282 582 l 2
 288 598 294 614 294 632 c 0
 294 650 278 660 262 668 c 1
 422 668 l 1
 638 136 l 2
 660 80 678 34 732 0 c 1
458 316 m 1
 356 582 l 1
 252 316 l 1
 458 316 l 1
446 811 m 4
 446 758 401 714 349 714 c 4
 296 714 252 758 252 811 c 4
 252 864 296 908 349 908 c 4
 402 908 446 864 446 811 c 4
404 810 m 4
 404 840 379 864 349 864 c 4
 320 864 295 840 295 810 c 4
 295 780 320 756 349 756 c 4
 379 756 404 780 404 810 c 4
EndSplineSet
Validated: 1
EndChar

StartChar: Ccedilla
Encoding: 199 199 171
Width: 648
GlyphClass: 2
Flags: MW
HStem: -204 46 -102 46 -16 80 684 86
VStem: 37 114<263 418 263 442> 535 63
LayerCount: 2
Fore
SplineSet
629 132 m 1
 577 14 l 1
 535 -4 491 -14 445 -16 c 1
 427 -64 l 1
 439 -60 451 -58 463 -58 c 0
 507 -58 535 -90 535 -130 c 0
 535 -176 485 -204 443 -204 c 0
 401 -204 363 -194 329 -170 c 1
 361 -130 l 1
 383 -144 401 -156 425 -156 c 0
 449 -156 469 -148 469 -126 c 0
 469 -110 453 -102 437 -102 c 0
 427 -102 419 -106 409 -110 c 1
 375 -64 l 1
 393 -16 l 1
 261 -12 37 62 37 334 c 0
 37 550 189 684 399 684 c 0
 459 684 519 672 577 658 c 1
 577 542 l 1
 515 578 457 598 383 598 c 0
 243 598 151 480 151 356 c 0
 151 170 283 66 403 66 c 0
 483 66 557 96 629 132 c 1
EndSplineSet
Validated: 1
EndChar

StartChar: Eacute
Encoding: 201 201 172
Width: 544
GlyphClass: 2
Flags: MW
HStem: 0 71 400 71 668 71 873 20
VStem: 98 102<102 326 400 560 560 572>
LayerCount: 2
Fore
SplineSet
522 132 m 1
 476 0 l 1
 54 0 l 1
 70 10 82 22 90 40 c 0
 96 60 98 82 98 102 c 2
 98 560 l 2
 98 584 96 612 88 632 c 0
 80 648 68 660 54 668 c 1
 390 668 l 2
 404 668 416 668 428 674 c 1
 428 556 l 1
 390 592 350 596 300 596 c 0
 266 596 234 594 200 588 c 1
 200 400 l 1
 336 400 l 2
 348 400 358 400 370 406 c 1
 370 298 l 1
 352 324 320 326 290 326 c 2
 200 326 l 1
 200 86 l 1
 242 78 282 74 324 74 c 0
 396 74 464 88 522 132 c 1
415 799 m 5
 139 717 l 5
 359 873 l 5
 415 799 l 5
EndSplineSet
Validated: 1
EndChar

StartChar: Ntilde
Encoding: 209 209 173
Width: 774
GlyphClass: 2
Flags: MW
HStem: 668 20 723 71 839 20
VStem: 98 77 666 77
LayerCount: 2
Fore
SplineSet
720 668 m 1
 674 638 666 600 666 548 c 2
 666 -34 l 1
 606 -12 568 24 528 74 c 2
 172 524 l 1
 172 120 l 2
 172 68 180 30 226 0 c 1
 46 0 l 1
 92 30 98 68 98 120 c 2
 98 548 l 2
 98 600 92 638 46 668 c 1
 194 668 l 1
 200 654 210 642 218 630 c 2
 592 152 l 1
 592 548 l 2
 592 600 586 638 540 668 c 1
 720 668 l 1
529 839 m 1
 511 785 495 723 427 723 c 0
 373 723 305 743 251 743 c 0
 221 743 197 733 173 717 c 1
 189 759 205 819 259 819 c 0
 301 819 381 799 429 799 c 0
 467 799 503 811 529 839 c 1
EndSplineSet
Validated: 1
EndChar

StartChar: Odieresis
Encoding: 214 214 174
Width: 826
GlyphClass: 2
Flags: MW
HStem: -18 71 684 71 730 126
VStem: 40 114<252 422> 263 125 571 125 782 114
LayerCount: 2
Fore
SplineSet
782 334 m 0xd2
 782 98 576 -18 404 -18 c 0
 296 -18 40 58 40 336 c 0
 40 508 184 684 418 684 c 0
 598 684 782 564 782 334 c 0xd2
668 326 m 0
 668 516 532 612 410 612 c 0
 280 612 154 526 154 338 c 0
 154 166 286 56 408 56 c 0
 570 56 668 168 668 326 c 0
571 792 m 0x2c
 571 758 543 730 509 730 c 0
 477 730 449 758 449 792 c 0
 449 824 477 852 509 852 c 0
 543 852 571 824 571 792 c 0x2c
383 792 m 0
 383 758 357 730 323 730 c 0
 291 730 263 758 263 792 c 0
 263 824 291 852 323 852 c 0
 357 852 383 824 383 792 c 0
EndSplineSet
Validated: 1
EndChar

StartChar: Udieresis
Encoding: 220 220 175
Width: 732
GlyphClass: 2
Flags: MW
HStem: -18 71 666 20 718 126
VStem: 96 102<242 536> 203 125 511 125 630 102
LayerCount: 2
Fore
SplineSet
674 0 m 1xd2
 528 0 l 1
 528 68 l 1
 482 8 402 -18 330 -18 c 0
 202 -18 96 48 96 242 c 2
 96 556 l 2
 96 580 94 612 84 632 c 0
 78 648 66 658 50 666 c 1
 242 666 l 1
 226 658 214 646 206 628 c 0
 200 608 196 584 196 562 c 0
 196 554 198 544 198 536 c 2
 198 242 l 2
 198 80 310 58 358 58 c 0
 416 58 528 84 528 208 c 2
 528 536 l 2
 528 568 528 604 516 632 c 0
 510 648 498 658 482 666 c 1
 674 666 l 1
 658 658 646 646 638 628 c 0
 632 608 628 586 628 564 c 0
 628 556 630 546 630 536 c 2
 630 130 l 2
 630 124 628 114 628 106 c 0
 628 82 632 56 640 34 c 0
 648 18 660 8 674 0 c 1xd2
511 780 m 0x2c
 511 746 483 718 449 718 c 0
 417 718 389 746 389 780 c 0
 389 812 417 840 449 840 c 0
 483 840 511 812 511 780 c 0x2c
323 780 m 0
 323 746 297 718 263 718 c 0
 231 718 203 746 203 780 c 0
 203 812 231 840 263 840 c 0
 297 840 323 812 323 780 c 0
EndSplineSet
Validated: 1
EndChar

StartChar: aacute
Encoding: 225 225 176
Width: 534
GlyphClass: 2
Flags: MW
HStem: -14 71 480 71 693 20
VStem: 34 102<108 160 108 163> 430 90
LayerCount: 2
Fore
SplineSet
516 60 m 1
 472 -6 l 1
 440 -4 408 -2 380 16 c 0
 340 38 340 82 340 124 c 2
 340 254 l 1
 314 242 290 234 262 228 c 2
 210 216 l 2
 170 206 136 182 136 138 c 0
 136 78 190 56 242 56 c 0
 268 56 294 62 320 68 c 1
 260 -8 l 1
 240 -12 218 -14 196 -14 c 0
 106 -14 34 52 34 144 c 0
 34 182 56 222 90 240 c 0
 182 294 338 268 338 346 c 0
 338 392 286 412 246 412 c 0
 194 412 150 396 102 374 c 1
 170 474 l 1
 196 480 222 480 248 480 c 0
 414 480 430 386 430 292 c 2
 430 162 l 2
 430 160 428 152 428 148 c 0
 428 122 432 96 454 78 c 0
 472 64 494 60 516 60 c 1
394 619 m 5
 118 537 l 5
 338 693 l 5
 394 619 l 5
EndSplineSet
Validated: 1
EndChar

StartChar: agrave
Encoding: 224 224 177
Width: 534
GlyphClass: 2
Flags: MW
HStem: -14 71 480 71 690 20
VStem: 34 102<108 160 108 163> 430 90
LayerCount: 2
Fore
SplineSet
516 60 m 1
 472 -6 l 1
 440 -4 408 -2 380 16 c 0
 340 38 340 82 340 124 c 2
 340 254 l 1
 314 242 290 234 262 228 c 2
 210 216 l 2
 170 206 136 182 136 138 c 0
 136 78 190 56 242 56 c 0
 268 56 294 62 320 68 c 1
 260 -8 l 1
 240 -12 218 -14 196 -14 c 0
 106 -14 34 52 34 144 c 0
 34 182 56 222 90 240 c 0
 182 294 338 268 338 346 c 0
 338 392 286 412 246 412 c 0
 194 412 150 396 102 374 c 1
 170 474 l 1
 196 480 222 480 248 480 c 0
 414 480 430 386 430 292 c 2
 430 162 l 2
 430 160 428 152 428 148 c 0
 428 122 432 96 454 78 c 0
 472 64 494 60 516 60 c 1
378 534 m 1
 102 616 l 1
 158 690 l 1
 378 534 l 1
EndSplineSet
Validated: 1
EndChar

StartChar: acircumflex
Encoding: 226 226 178
Width: 534
GlyphClass: 2
Flags: HMW
HStem: -14 71 480 71 691 20
VStem: 34 102<108 160 108 163> 430 90
LayerCount: 2
Fore
SplineSet
516 60 m 1
 472 -6 l 1
 440 -4 408 -2 380 16 c 0
 340 38 340 82 340 124 c 2
 340 254 l 1
 314 242 290 234 262 228 c 2
 210 216 l 2
 170 206 136 182 136 138 c 0
 136 78 190 56 242 56 c 0
 268 56 294 62 320 68 c 1
 260 -8 l 1
 240 -12 218 -14 196 -14 c 0
 106 -14 34 52 34 144 c 0
 34 182 56 222 90 240 c 0
 182 294 338 268 338 346 c 0
 338 392 286 412 246 412 c 0
 194 412 150 396 102 374 c 1
 170 474 l 1
 196 480 222 480 248 480 c 0
 414 480 430 386 430 292 c 2
 430 162 l 2
 430 160 428 152 428 148 c 0
 428 122 432 96 454 78 c 0
 472 64 494 60 516 60 c 1
422 537 m 5
 362 539 308 567 258 599 c 5
 206 565 152 539 90 537 c 5
 258 691 l 5
 422 537 l 5
EndSplineSet
Validated: 1
EndChar

StartChar: adieresis
Encoding: 228 228 179
Width: 534
GlyphClass: 2
Flags: MW
HStem: -14 71 480 71 550 126
VStem: 34 102<108 160 108 163> 98 125 406 125 430 90
LayerCount: 2
Fore
SplineSet
516 60 m 1xd2
 472 -6 l 1
 440 -4 408 -2 380 16 c 0
 340 38 340 82 340 124 c 2
 340 254 l 1
 314 242 290 234 262 228 c 2
 210 216 l 2
 170 206 136 182 136 138 c 0
 136 78 190 56 242 56 c 0
 268 56 294 62 320 68 c 1
 260 -8 l 1
 240 -12 218 -14 196 -14 c 0
 106 -14 34 52 34 144 c 0
 34 182 56 222 90 240 c 0
 182 294 338 268 338 346 c 0
 338 392 286 412 246 412 c 0
 194 412 150 396 102 374 c 1
 170 474 l 1
 196 480 222 480 248 480 c 0
 414 480 430 386 430 292 c 2
 430 162 l 2
 430 160 428 152 428 148 c 0
 428 122 432 96 454 78 c 0
 472 64 494 60 516 60 c 1xd2
406 612 m 0x2c
 406 578 378 550 344 550 c 0
 312 550 284 578 284 612 c 0
 284 644 312 672 344 672 c 0
 378 672 406 644 406 612 c 0x2c
218 612 m 0
 218 578 192 550 158 550 c 0
 126 550 98 578 98 612 c 0
 98 644 126 672 158 672 c 0
 192 672 218 644 218 612 c 0
EndSplineSet
Validated: 1
EndChar

StartChar: atilde
Encoding: 227 227 180
Width: 534
GlyphClass: 2
Flags: MW
HStem: -14 71 480 71 558 71 674 20
VStem: 34 102<108 160 108 163> 430 90
LayerCount: 2
Fore
SplineSet
516 60 m 1
 472 -6 l 1
 440 -4 408 -2 380 16 c 0
 340 38 340 82 340 124 c 2
 340 254 l 1
 314 242 290 234 262 228 c 2
 210 216 l 2
 170 206 136 182 136 138 c 0
 136 78 190 56 242 56 c 0
 268 56 294 62 320 68 c 1
 260 -8 l 1
 240 -12 218 -14 196 -14 c 0
 106 -14 34 52 34 144 c 0
 34 182 56 222 90 240 c 0
 182 294 338 268 338 346 c 0
 338 392 286 412 246 412 c 0
 194 412 150 396 102 374 c 1
 170 474 l 1
 196 480 222 480 248 480 c 0
 414 480 430 386 430 292 c 2
 430 162 l 2
 430 160 428 152 428 148 c 0
 428 122 432 96 454 78 c 0
 472 64 494 60 516 60 c 1
439 674 m 1
 421 620 405 558 337 558 c 0
 283 558 215 578 161 578 c 0
 131 578 107 568 83 552 c 1
 99 594 115 654 169 654 c 0
 211 654 291 634 339 634 c 0
 377 634 413 646 439 674 c 1
EndSplineSet
Validated: 1
EndChar

StartChar: aring
Encoding: 229 229 181
Width: 534
GlyphClass: 2
Flags: MW
HStem: -14 71 480 71 534 46 728 46
VStem: 34 102<108 160 108 163> 159 46 353 46 430 90
LayerCount: 2
Fore
SplineSet
516 60 m 1xc9
 472 -6 l 1
 440 -4 408 -2 380 16 c 0
 340 38 340 82 340 124 c 2
 340 254 l 1
 314 242 290 234 262 228 c 2
 210 216 l 2
 170 206 136 182 136 138 c 0
 136 78 190 56 242 56 c 0
 268 56 294 62 320 68 c 1
 260 -8 l 1
 240 -12 218 -14 196 -14 c 0
 106 -14 34 52 34 144 c 0
 34 182 56 222 90 240 c 0
 182 294 338 268 338 346 c 0
 338 392 286 412 246 412 c 0
 194 412 150 396 102 374 c 1
 170 474 l 1
 196 480 222 480 248 480 c 0
 414 480 430 386 430 292 c 2
 430 162 l 2
 430 160 428 152 428 148 c 0
 428 122 432 96 454 78 c 0
 472 64 494 60 516 60 c 1xc9
353 631 m 4x36
 353 578 308 534 256 534 c 4
 203 534 159 578 159 631 c 4
 159 684 203 728 256 728 c 4
 309 728 353 684 353 631 c 4x36
311 630 m 4
 311 660 286 684 256 684 c 4
 227 684 202 660 202 630 c 4
 202 600 227 576 256 576 c 4
 286 576 311 600 311 630 c 4
EndSplineSet
Validated: 1
EndChar

StartChar: ccedilla
Encoding: 231 231 182
Width: 502
GlyphClass: 2
Flags: MW
HStem: -186 46 -86 32 -16 71 480 71
VStem: 33 102<179 297 179 305> 401 63
LayerCount: 2
Fore
SplineSet
497 104 m 1
 445 8 l 1
 405 -12 361 -16 317 -16 c 1
 303 -52 l 1
 315 -52 317 -50 327 -50 c 0
 365 -50 401 -72 401 -114 c 0
 401 -160 353 -186 313 -186 c 0
 273 -186 237 -174 205 -150 c 1
 235 -112 l 1
 255 -128 279 -142 305 -142 c 0
 323 -142 339 -130 339 -110 c 0
 339 -94 323 -86 307 -86 c 0
 299 -86 291 -88 283 -92 c 1
 255 -52 l 1
 269 -16 l 1
 139 0 33 90 33 228 c 0
 33 382 165 480 321 480 c 0
 359 480 395 476 431 468 c 1
 431 364 l 1
 395 398 351 412 301 412 c 0
 203 412 135 346 135 248 c 0
 135 110 259 56 337 56 c 0
 395 56 449 72 497 104 c 1
EndSplineSet
Validated: 1
EndChar

StartChar: eacute
Encoding: 233 233 183
Width: 564
GlyphClass: 2
Flags: MW
HStem: -14 71 308 64 480 55 693 20
VStem: 38 114<159 308>
LayerCount: 2
Fore
SplineSet
520 108 m 1
 470 12 l 1
 422 -6 374 -14 324 -14 c 0
 164 -14 38 80 38 238 c 0
 38 368 142 480 278 480 c 0
 436 480 520 380 520 244 c 1
 148 244 l 1
 148 156 210 58 346 58 c 0
 410 58 466 72 520 108 c 1
414 308 m 1
 400 380 358 420 282 420 c 0
 216 420 166 372 152 308 c 1
 414 308 l 1
421 619 m 5
 145 537 l 5
 365 693 l 5
 421 619 l 5
EndSplineSet
Validated: 1
EndChar

StartChar: egrave
Encoding: 232 232 184
Width: 564
GlyphClass: 2
Flags: MW
HStem: -14 71 308 64 480 55 690 20
VStem: 38 114<159 308>
LayerCount: 2
Fore
SplineSet
520 108 m 1
 470 12 l 1
 422 -6 374 -14 324 -14 c 0
 164 -14 38 80 38 238 c 0
 38 368 142 480 278 480 c 0
 436 480 520 380 520 244 c 1
 148 244 l 1
 148 156 210 58 346 58 c 0
 410 58 466 72 520 108 c 1
414 308 m 1
 400 380 358 420 282 420 c 0
 216 420 166 372 152 308 c 1
 414 308 l 1
411 534 m 1
 135 616 l 1
 191 690 l 1
 411 534 l 1
EndSplineSet
Validated: 1
EndChar

StartChar: ecircumflex
Encoding: 234 234 185
Width: 564
GlyphClass: 2
Flags: MW
HStem: -14 71 308 64 480 55 688 20
VStem: 38 114<159 308>
LayerCount: 2
Fore
SplineSet
520 108 m 1
 470 12 l 1
 422 -6 374 -14 324 -14 c 0
 164 -14 38 80 38 238 c 0
 38 368 142 480 278 480 c 0
 436 480 520 380 520 244 c 1
 148 244 l 1
 148 156 210 58 346 58 c 0
 410 58 466 72 520 108 c 1
414 308 m 1
 400 380 358 420 282 420 c 0
 216 420 166 372 152 308 c 1
 414 308 l 1
455 534 m 1
 395 536 341 564 291 596 c 1
 239 562 185 536 123 534 c 1
 291 688 l 1
 455 534 l 1
EndSplineSet
Validated: 1
EndChar

StartChar: edieresis
Encoding: 235 235 186
Width: 564
GlyphClass: 2
Flags: MW
HStem: -14 71 308 64 480 55 553 126
VStem: 38 114<159 308> 134 125 442 125
LayerCount: 2
Fore
SplineSet
520 108 m 1xe8
 470 12 l 1
 422 -6 374 -14 324 -14 c 0
 164 -14 38 80 38 238 c 0
 38 368 142 480 278 480 c 0
 436 480 520 380 520 244 c 1
 148 244 l 1
 148 156 210 58 346 58 c 0
 410 58 466 72 520 108 c 1xe8
414 308 m 1
 400 380 358 420 282 420 c 0
 216 420 166 372 152 308 c 1
 414 308 l 1
442 615 m 0x16
 442 581 414 553 380 553 c 0
 348 553 320 581 320 615 c 0
 320 647 348 675 380 675 c 0
 414 675 442 647 442 615 c 0x16
254 615 m 0
 254 581 228 553 194 553 c 0
 162 553 134 581 134 615 c 0
 134 647 162 675 194 675 c 0
 228 675 254 647 254 615 c 0
EndSplineSet
Validated: 1
EndChar

StartChar: iacute
Encoding: 237 237 187
Width: 262
GlyphClass: 2
Flags: MW
HStem: 0 20 486 20 687 20
VStem: 82 90<86 88 66 380>
LayerCount: 2
Fore
SplineSet
212 0 m 1
 44 0 l 1
 80 28 82 48 82 86 c 2
 82 380 l 2
 82 418 80 440 44 468 c 1
 114 468 l 2
 136 468 158 470 174 486 c 1
 174 100 l 2
 174 96 172 90 172 86 c 0
 172 46 176 28 212 0 c 1
265 613 m 1
 -11 531 l 1
 209 687 l 1
 265 613 l 1
EndSplineSet
Validated: 1
EndChar

StartChar: igrave
Encoding: 236 236 188
Width: 262
GlyphClass: 2
Flags: MW
HStem: 0 20 486 20 690 20
VStem: 82 90<86 88 66 380>
LayerCount: 2
Fore
SplineSet
212 0 m 1
 44 0 l 1
 80 28 82 48 82 86 c 2
 82 380 l 2
 82 418 80 440 44 468 c 1
 114 468 l 2
 136 468 158 470 174 486 c 1
 174 100 l 2
 174 96 172 90 172 86 c 0
 172 46 176 28 212 0 c 1
240 534 m 1
 -36 616 l 1
 20 690 l 1
 240 534 l 1
EndSplineSet
Validated: 1
EndChar

StartChar: icircumflex
Encoding: 238 238 189
Width: 262
GlyphClass: 2
Flags: MW
HStem: 0 20 486 20 688 20
VStem: 82 90<86 88 66 380>
LayerCount: 2
Fore
SplineSet
212 0 m 1
 44 0 l 1
 80 28 82 48 82 86 c 2
 82 380 l 2
 82 418 80 440 44 468 c 1
 114 468 l 2
 136 468 158 470 174 486 c 1
 174 100 l 2
 174 96 172 90 172 86 c 0
 172 46 176 28 212 0 c 1
287 534 m 1
 227 536 173 564 123 596 c 1
 71 562 17 536 -45 534 c 1
 123 688 l 1
 287 534 l 1
EndSplineSet
Validated: 1
EndChar

StartChar: idieresis
Encoding: 239 239 190
Width: 262
GlyphClass: 2
Flags: MW
HStem: 0 20 486 20 550 126
VStem: -34 125 82 90<86 88 66 380> 274 125
LayerCount: 2
Fore
SplineSet
212 0 m 1xc8
 44 0 l 1
 80 28 82 48 82 86 c 2
 82 380 l 2
 82 418 80 440 44 468 c 1
 114 468 l 2
 136 468 158 470 174 486 c 1
 174 100 l 2
 174 96 172 90 172 86 c 0
 172 46 176 28 212 0 c 1xc8
274 612 m 0x34
 274 578 246 550 212 550 c 0
 180 550 152 578 152 612 c 0
 152 644 180 672 212 672 c 0
 246 672 274 644 274 612 c 0x34
86 612 m 0
 86 578 60 550 26 550 c 0
 -6 550 -34 578 -34 612 c 0
 -34 644 -6 672 26 672 c 0
 60 672 86 644 86 612 c 0
EndSplineSet
Validated: 1
EndChar

StartChar: ntilde
Encoding: 241 241 191
Width: 586
GlyphClass: 2
Flags: HMW
HStem: 0 20 480 71 561 71 677 20
VStem: 82 90<86 88 66 380> 494 90
LayerCount: 2
Fore
SplineSet
534 0 m 1
 368 0 l 1
 404 28 406 48 406 86 c 2
 406 262 l 2
 406 294 406 332 386 360 c 0
 364 390 322 406 286 406 c 0
 250 406 210 394 188 364 c 0
 176 346 174 326 174 304 c 2
 174 100 l 2
 174 96 172 90 172 86 c 0
 172 46 176 28 212 0 c 1
 44 0 l 1
 80 28 82 48 82 86 c 2
 82 380 l 2
 82 418 80 440 44 468 c 1
 108 468 l 2
 130 468 152 470 168 486 c 1
 168 402 l 1
 210 450 254 480 318 480 c 0
 374 480 436 458 470 412 c 0
 494 378 496 328 496 288 c 2
 496 100 l 2
 496 96 494 90 494 86 c 0
 494 46 498 28 534 0 c 1
457 677 m 5
 439 623 423 561 355 561 c 4
 301 561 233 581 179 581 c 4
 149 581 125 571 101 555 c 5
 117 597 133 657 187 657 c 4
 229 657 309 637 357 637 c 4
 395 637 431 649 457 677 c 5
EndSplineSet
Validated: 1
EndChar

StartChar: oacute
Encoding: 243 243 192
Width: 606
GlyphClass: 2
Flags: MW
HStem: -14 71 482 71 690 20
VStem: 40 102<191 293 191 306> 560 102
LayerCount: 2
Fore
SplineSet
560 232 m 0
 560 72 418 -14 296 -14 c 0
 158 -14 40 86 40 230 c 0
 40 382 162 482 308 482 c 0
 436 482 560 388 560 232 c 0
458 212 m 0
 458 310 410 414 298 414 c 0
 204 414 142 338 142 248 c 0
 142 134 216 54 302 54 c 0
 384 54 458 116 458 212 c 0
433 616 m 1
 157 534 l 1
 377 690 l 1
 433 616 l 1
EndSplineSet
Validated: 1
EndChar

StartChar: ograve
Encoding: 242 242 193
Width: 606
GlyphClass: 2
Flags: MW
HStem: -14 71 482 71 690 20
VStem: 40 102<191 293 191 306> 560 102
LayerCount: 2
Fore
SplineSet
560 232 m 0
 560 72 418 -14 296 -14 c 0
 158 -14 40 86 40 230 c 0
 40 382 162 482 308 482 c 0
 436 482 560 388 560 232 c 0
458 212 m 0
 458 310 410 414 298 414 c 0
 204 414 142 338 142 248 c 0
 142 134 216 54 302 54 c 0
 384 54 458 116 458 212 c 0
429 534 m 1
 153 616 l 1
 209 690 l 1
 429 534 l 1
EndSplineSet
Validated: 1
EndChar

StartChar: ocircumflex
Encoding: 244 244 194
Width: 606
GlyphClass: 2
Flags: MW
HStem: -14 71 482 71 688 20
VStem: 40 102<191 293 191 306> 560 102
LayerCount: 2
Fore
SplineSet
560 232 m 0
 560 72 418 -14 296 -14 c 0
 158 -14 40 86 40 230 c 0
 40 382 162 482 308 482 c 0
 436 482 560 388 560 232 c 0
458 212 m 0
 458 310 410 414 298 414 c 0
 204 414 142 338 142 248 c 0
 142 134 216 54 302 54 c 0
 384 54 458 116 458 212 c 0
476 534 m 1
 416 536 362 564 312 596 c 1
 260 562 206 536 144 534 c 1
 312 688 l 1
 476 534 l 1
EndSplineSet
Validated: 1
EndChar

StartChar: odieresis
Encoding: 246 246 195
Width: 606
GlyphClass: 2
Flags: MW
HStem: -14 71 482 71<196 372> 553 126
VStem: 40 102<191 293 191 306> 152 125 460 125 560 102
LayerCount: 2
Fore
SplineSet
560 232 m 0xd2
 560 72 418 -14 296 -14 c 0
 158 -14 40 86 40 230 c 0
 40 382 162 482 308 482 c 0
 436 482 560 388 560 232 c 0xd2
458 212 m 0
 458 310 410 414 298 414 c 0
 204 414 142 338 142 248 c 0
 142 134 216 54 302 54 c 0
 384 54 458 116 458 212 c 0
460 615 m 0x2c
 460 581 432 553 398 553 c 0
 366 553 338 581 338 615 c 0
 338 647 366 675 398 675 c 0
 432 675 460 647 460 615 c 0x2c
272 615 m 0
 272 581 246 553 212 553 c 0
 180 553 152 581 152 615 c 0
 152 647 180 675 212 675 c 0
 246 675 272 647 272 615 c 0
EndSplineSet
Validated: 1
EndChar

StartChar: otilde
Encoding: 245 245 196
Width: 606
GlyphClass: 2
Flags: MW
HStem: -14 71 482 71 558 71 674 20
VStem: 40 102<191 293 191 306> 560 102
LayerCount: 2
Fore
SplineSet
560 232 m 0
 560 72 418 -14 296 -14 c 0
 158 -14 40 86 40 230 c 0
 40 382 162 482 308 482 c 0
 436 482 560 388 560 232 c 0
458 212 m 0
 458 310 410 414 298 414 c 0
 204 414 142 338 142 248 c 0
 142 134 216 54 302 54 c 0
 384 54 458 116 458 212 c 0
472 674 m 1
 454 620 438 558 370 558 c 0
 316 558 248 578 194 578 c 0
 164 578 140 568 116 552 c 1
 132 594 148 654 202 654 c 0
 244 654 324 634 372 634 c 0
 410 634 446 646 472 674 c 1
EndSplineSet
Validated: 1
EndChar

StartChar: uacute
Encoding: 250 250 197
Width: 576
GlyphClass: 2
Flags: MW
HStem: -14 80<269 288> 486 20 690 20
VStem: 80 90<187 204 204 368 368 392> 494 90
LayerCount: 2
Fore
SplineSet
532 0 m 1
 406 0 l 1
 406 66 l 1
 364 10 322 -14 254 -14 c 0
 202 -14 142 10 110 56 c 0
 84 94 80 140 80 186 c 2
 80 368 l 2
 80 416 80 436 40 468 c 1
 110 468 l 2
 132 468 154 470 170 486 c 1
 170 204 l 2
 170 170 174 132 196 104 c 0
 218 76 252 66 286 66 c 0
 358 66 402 116 402 186 c 2
 402 380 l 2
 402 418 400 440 364 468 c 1
 434 468 l 2
 456 468 478 470 494 486 c 1
 494 100 l 2
 494 96 492 90 492 86 c 0
 492 46 496 28 532 0 c 1
412 616 m 5
 136 534 l 5
 356 690 l 5
 412 616 l 5
EndSplineSet
Validated: 1
EndChar

StartChar: ugrave
Encoding: 249 249 198
Width: 576
GlyphClass: 2
Flags: MW
HStem: -14 80<269 288> 486 20 690 20
VStem: 80 90<187 204 204 368 368 392> 494 90
LayerCount: 2
Fore
SplineSet
532 0 m 1
 406 0 l 1
 406 66 l 1
 364 10 322 -14 254 -14 c 0
 202 -14 142 10 110 56 c 0
 84 94 80 140 80 186 c 2
 80 368 l 2
 80 416 80 436 40 468 c 1
 110 468 l 2
 132 468 154 470 170 486 c 1
 170 204 l 2
 170 170 174 132 196 104 c 0
 218 76 252 66 286 66 c 0
 358 66 402 116 402 186 c 2
 402 380 l 2
 402 418 400 440 364 468 c 1
 434 468 l 2
 456 468 478 470 494 486 c 1
 494 100 l 2
 494 96 492 90 492 86 c 0
 492 46 496 28 532 0 c 1
408 534 m 1
 132 616 l 1
 188 690 l 1
 408 534 l 1
EndSplineSet
Validated: 1
EndChar

StartChar: ucircumflex
Encoding: 251 251 199
Width: 576
GlyphClass: 2
Flags: MW
HStem: -14 80<269 288> 486 20 691 20
VStem: 80 90<187 204 204 368 368 392> 494 90
LayerCount: 2
Fore
SplineSet
532 0 m 1
 406 0 l 1
 406 66 l 1
 364 10 322 -14 254 -14 c 0
 202 -14 142 10 110 56 c 0
 84 94 80 140 80 186 c 2
 80 368 l 2
 80 416 80 436 40 468 c 1
 110 468 l 2
 132 468 154 470 170 486 c 1
 170 204 l 2
 170 170 174 132 196 104 c 0
 218 76 252 66 286 66 c 0
 358 66 402 116 402 186 c 2
 402 380 l 2
 402 418 400 440 364 468 c 1
 434 468 l 2
 456 468 478 470 494 486 c 1
 494 100 l 2
 494 96 492 90 492 86 c 0
 492 46 496 28 532 0 c 1
443 537 m 1
 383 539 329 567 279 599 c 1
 227 565 173 539 111 537 c 1
 279 691 l 1
 443 537 l 1
EndSplineSet
Validated: 1
EndChar

StartChar: udieresis
Encoding: 252 252 200
Width: 576
GlyphClass: 2
Flags: MW
HStem: -14 80<269 288> 486 20 553 126
VStem: 80 90<187 204 204 368 368 392> 125 125 433 125 494 90
LayerCount: 2
Fore
SplineSet
532 0 m 1xd2
 406 0 l 1
 406 66 l 1
 364 10 322 -14 254 -14 c 0
 202 -14 142 10 110 56 c 0
 84 94 80 140 80 186 c 2
 80 368 l 2
 80 416 80 436 40 468 c 1
 110 468 l 2
 132 468 154 470 170 486 c 1
 170 204 l 2
 170 170 174 132 196 104 c 0
 218 76 252 66 286 66 c 0
 358 66 402 116 402 186 c 2
 402 380 l 2
 402 418 400 440 364 468 c 1
 434 468 l 2
 456 468 478 470 494 486 c 1
 494 100 l 2
 494 96 492 90 492 86 c 0
 492 46 496 28 532 0 c 1xd2
433 615 m 0x2c
 433 581 405 553 371 553 c 0
 339 553 311 581 311 615 c 0
 311 647 339 675 371 675 c 0
 405 675 433 647 433 615 c 0x2c
245 615 m 0
 245 581 219 553 185 553 c 0
 153 553 125 581 125 615 c 0
 125 647 153 675 185 675 c 0
 219 675 245 647 245 615 c 0
EndSplineSet
Validated: 1
EndChar

StartChar: degree
Encoding: 176 176 201
Width: 376
GlyphClass: 2
Flags: MW
HStem: 410 46 678 46
VStem: 54 46<520 567 520 580> 320 46
LayerCount: 2
Fore
SplineSet
320 544 m 0
 320 472 260 410 188 410 c 0
 116 410 54 470 54 544 c 0
 54 616 112 678 184 678 c 0
 258 678 320 618 320 544 c 0
274 544 m 0
 274 592 232 630 186 630 c 0
 138 630 100 590 100 544 c 0
 100 496 140 458 188 458 c 0
 234 458 274 498 274 544 c 0
EndSplineSet
Validated: 1
EndChar

StartChar: registered
Encoding: 174 174 202
Width: 742
GlyphClass: 2
Flags: MW
HStem: -18 46 530 46 684 46
VStem: 19 46<250 418 250 430> 245 63 503 77 721 46
LayerCount: 2
Fore
SplineSet
721 334 m 0
 721 140 563 -18 371 -18 c 0
 177 -18 19 140 19 334 c 0
 19 526 177 684 371 684 c 0
 563 684 721 526 721 334 c 0
675 334 m 0
 675 502 539 642 371 642 c 0
 201 642 65 502 65 334 c 0
 65 166 201 24 371 24 c 0
 539 24 675 166 675 334 c 0
589 144 m 1
 571 142 555 138 539 138 c 0
 537 138 531 136 529 136 c 0
 491 136 463 164 437 192 c 0
 405 224 377 260 349 296 c 0
 339 310 329 326 321 340 c 1
 367 348 427 366 427 424 c 0
 427 468 389 486 349 486 c 0
 337 486 325 484 313 482 c 1
 313 210 l 2
 313 208 311 200 311 198 c 0
 311 166 315 146 353 130 c 1
 205 130 l 1
 241 142 245 168 245 194 c 2
 245 210 l 1
 245 450 l 2
 245 492 245 512 205 530 c 1
 339 530 l 2
 349 530 359 532 369 532 c 0
 401 532 435 526 461 508 c 0
 485 490 503 460 503 430 c 0
 503 358 427 330 405 324 c 1
 437 282 471 240 509 202 c 0
 533 178 559 160 589 144 c 1
EndSplineSet
Validated: 1
EndChar

StartChar: copyright
Encoding: 169 169 203
Width: 748
GlyphClass: 2
Flags: MW
HStem: -18 46 128 55 546 55 684 46
VStem: 22 46<250 418 250 430> 178 77 724 46
LayerCount: 2
Fore
SplineSet
724 334 m 0
 724 140 566 -18 374 -18 c 0
 180 -18 22 140 22 334 c 0
 22 526 180 684 374 684 c 0
 566 684 724 526 724 334 c 0
678 334 m 0
 678 502 542 642 374 642 c 0
 204 642 68 502 68 334 c 0
 68 166 204 24 374 24 c 0
 542 24 678 166 678 334 c 0
556 224 m 1
 518 146 l 1
 484 132 450 128 414 128 c 0
 272 128 178 208 178 338 c 0
 178 470 280 546 406 546 c 0
 444 546 482 540 520 530 c 1
 520 454 l 1
 482 476 442 490 396 490 c 0
 318 490 256 428 256 350 c 0
 256 264 316 182 408 182 c 0
 460 182 508 202 556 224 c 1
EndSplineSet
Validated: 1
EndChar

StartChar: trademark
Encoding: 8482 8482 204
Width: 930
GlyphClass: 2
Flags: MW
HStem: 666 55
VStem: 155 63 531 90 834 90
LayerCount: 2
Fore
SplineSet
908 286 m 1
 771 286 l 1
 801 297 809 310 807 343 c 0
 806 350 805 357 805 364 c 2
 776 594 l 1
 649 277 l 1
 625 297 610 314 597 343 c 2
 489 595 l 1
 457 356 l 1
 454 333 l 2
 453 309 466 298 484 286 c 1
 371 286 l 1
 394 308 403 334 407 365 c 2
 442 618 l 2
 442 623 443 628 443 633 c 0
 443 650 428 659 416 666 c 1
 531 666 l 1
 531 658 533 652 536 645 c 2
 644 396 l 1
 740 637 l 2
 743 646 745 659 745 666 c 1
 863 666 l 1
 844 659 834 649 834 628 c 0
 834 621 835 615 835 608 c 2
 873 340 l 2
 876 315 889 301 908 286 c 1
343 672 m 1
 321 591 l 1
 310 616 292 618 265 618 c 0
 252 618 231 616 220 615 c 1
 220 357 l 2
 220 321 227 305 258 286 c 1
 119 286 l 1
 160 303 155 333 155 363 c 2
 155 615 l 1
 137 616 120 618 102 618 c 0
 72 618 54 608 31 591 c 1
 56 671 l 1
 66 667 77 666 88 666 c 2
 305 666 l 1
 319 667 l 2
 328 668 335 669 343 672 c 1
EndSplineSet
Validated: 33
EndChar

StartChar: plusminus
Encoding: 177 177 205
Width: 562
GlyphClass: 2
Flags: MW
HStem: 25 80 402 80
VStem: 320 77
LayerCount: 2
Fore
SplineSet
507 416 m 1
 451 338 l 2
 443 326 423 322 409 322 c 0
 403 322 395 324 391 324 c 2
 317 325 l 1
 316 198 l 2
 318 176 322 154 330 132 c 1
 258 190 l 2
 240 204 240 226 240 248 c 2
 240 325 l 1
 115 326 l 2
 93 324 71 320 49 312 c 1
 107 384 l 2
 121 402 143 402 165 402 c 2
 240 402 l 1
 240 526 l 2
 240 548 234 570 226 590 c 1
 304 534 l 2
 316 526 320 506 320 492 c 0
 320 486 318 478 318 474 c 2
 317 402 l 1
 443 402 l 2
 465 402 487 408 507 416 c 1
507 116 m 1
 451 38 l 2
 443 26 423 22 409 22 c 0
 403 22 395 24 391 24 c 2
 115 26 l 2
 93 24 71 20 49 12 c 1
 107 84 l 2
 121 102 143 102 165 102 c 2
 443 102 l 2
 465 102 487 108 507 116 c 1
EndSplineSet
Validated: 1
EndChar

StartChar: mu
Encoding: 956 956 206
Width: 576
GlyphClass: 2
Flags: MW
HStem: -14 80<269 297> 486 20
VStem: 80 90<-72 -70 -72 -70 -70 6 187 204 204 368 368 392> 494 90
LayerCount: 2
Fore
SplineSet
532 0 m 1
 406 0 l 1
 406 66 l 1
 364 10 332 -14 262 -14 c 0
 234 -14 194 -6 170 6 c 1
 170 -70 l 2
 170 -74 168 -80 168 -82 c 0
 168 -122 172 -144 210 -170 c 1
 40 -170 l 1
 78 -144 80 -122 80 -82 c 2
 80 -70 l 1
 80 368 l 2
 80 416 80 436 40 466 c 1
 110 466 l 2
 132 466 154 470 170 486 c 1
 170 204 l 2
 170 170 174 132 196 104 c 0
 218 76 252 66 286 66 c 0
 358 66 402 116 402 186 c 2
 402 380 l 2
 402 418 400 440 364 466 c 1
 434 466 l 2
 456 466 478 470 494 486 c 1
 494 100 l 2
 494 96 492 90 492 86 c 0
 492 46 496 28 532 0 c 1
EndSplineSet
Validated: 1
EndChar

StartChar: logicalnot
Encoding: 172 172 207
Width: 502
GlyphClass: 2
Flags: MW
HStem: 0 20 268 86
VStem: 466 90
LayerCount: 2
Fore
SplineSet
466 0 m 1
 376 0 l 1
 376 182 l 1
 34 182 l 1
 34 268 l 1
 466 268 l 1
 466 0 l 1
EndSplineSet
Validated: 1
EndChar

StartChar: Agrave
Encoding: 192 192 209
Width: 742
GlyphClass: 2
Flags: MW
HStem: 0 20 252 64<252 458 252 484 228 458> 668 20 867 20
LayerCount: 2
Fore
SplineSet
732 0 m 1
 524 0 l 1
 538 8 560 18 560 36 c 0
 560 56 550 78 544 96 c 2
 484 252 l 1
 228 252 l 1
 170 96 l 2
 164 82 158 64 158 46 c 0
 158 24 176 10 196 0 c 1
 10 0 l 1
 66 34 80 78 104 136 c 2
 282 582 l 2
 288 598 294 614 294 632 c 0
 294 650 278 660 262 668 c 1
 422 668 l 1
 638 136 l 2
 660 80 678 34 732 0 c 1
458 316 m 1
 356 582 l 1
 252 316 l 1
 458 316 l 1
474 711 m 1
 198 793 l 1
 254 867 l 1
 474 711 l 1
EndSplineSet
Validated: 1
EndChar

StartChar: Atilde
Encoding: 195 195 210
Width: 742
GlyphClass: 2
Flags: MW
HStem: 0 20 252 64<252 458 252 484 228 458> 668 20 723 71 839 20
LayerCount: 2
Fore
SplineSet
732 0 m 1
 524 0 l 1
 538 8 560 18 560 36 c 0
 560 56 550 78 544 96 c 2
 484 252 l 1
 228 252 l 1
 170 96 l 2
 164 82 158 64 158 46 c 0
 158 24 176 10 196 0 c 1
 10 0 l 1
 66 34 80 78 104 136 c 2
 282 582 l 2
 288 598 294 614 294 632 c 0
 294 650 278 660 262 668 c 1
 422 668 l 1
 638 136 l 2
 660 80 678 34 732 0 c 1
458 316 m 1
 356 582 l 1
 252 316 l 1
 458 316 l 1
532 839 m 1
 514 785 498 723 430 723 c 0
 376 723 308 743 254 743 c 0
 224 743 200 733 176 717 c 1
 192 759 208 819 262 819 c 0
 304 819 384 799 432 799 c 0
 470 799 506 811 532 839 c 1
EndSplineSet
Validated: 1
EndChar

StartChar: Otilde
Encoding: 213 213 211
Width: 826
GlyphClass: 2
Flags: MW
HStem: -18 71 684 71<301 329 287 508> 735 71 851 20
VStem: 40 114<252 422> 782 114
LayerCount: 2
Fore
SplineSet
782 334 m 0xcc
 782 98 576 -18 404 -18 c 0
 296 -18 40 58 40 336 c 0
 40 508 184 684 418 684 c 0
 598 684 782 564 782 334 c 0xcc
668 326 m 0
 668 516 532 612 410 612 c 0
 280 612 154 526 154 338 c 0
 154 166 286 56 408 56 c 0
 570 56 668 168 668 326 c 0
580 851 m 1x30
 562 797 546 735 478 735 c 0
 424 735 356 755 302 755 c 0
 272 755 248 745 224 729 c 1
 240 771 256 831 310 831 c 0
 352 831 432 811 480 811 c 0
 518 811 554 823 580 851 c 1x30
EndSplineSet
Validated: 1
EndChar

StartChar: divide
Encoding: 247 247 212
Width: 440
GlyphClass: 2
Flags: MW
HStem: 163 80 299 80 512 80
VStem: 263 84
LayerCount: 2
Fore
SplineSet
263 471 m 0
 263 448 245 429 224 429 c 0
 202 429 179 447 179 469 c 0
 179 493 199 512 223 512 c 0
 247 512 263 491 263 471 c 0
405 391 m 1
 349 313 l 2
 341 301 321 297 307 297 c 0
 301 297 293 299 289 299 c 2
 95 301 l 2
 73 299 51 295 29 287 c 1
 87 359 l 2
 101 377 123 377 145 377 c 2
 341 377 l 2
 363 377 385 383 405 391 c 1
263 203 m 0
 263 183 245 163 224 163 c 0
 202 163 179 179 179 203 c 0
 179 227 199 245 223 245 c 0
 247 245 263 226 263 203 c 0
EndSplineSet
Validated: 1
EndChar

StartChar: ydieresis
Encoding: 255 255 213
Width: 576
GlyphClass: 2
Flags: MW
HStem: -210 71 468 20 550 126
VStem: 122 125 430 125
LayerCount: 2
Fore
SplineSet
546 468 m 1
 330 -48 l 2
 312 -92 266 -210 120 -210 c 0
 76 -210 34 -200 -8 -184 c 1
 84 -118 l 1
 100 -128 120 -136 140 -136 c 0
 206 -136 240 -72 260 -18 c 2
 272 10 l 1
 260 22 l 2
 240 42 230 60 218 86 c 2
 84 378 l 2
 66 418 52 448 8 468 c 1
 108 468 l 2
 132 468 146 468 158 438 c 2
 312 90 l 1
 420 360 l 2
 428 380 434 402 434 424 c 0
 434 444 422 454 404 468 c 1
 546 468 l 1
430 612 m 0
 430 578 402 550 368 550 c 0
 336 550 308 578 308 612 c 0
 308 644 336 672 368 672 c 0
 402 672 430 644 430 612 c 0
242 612 m 0
 242 578 216 550 182 550 c 0
 150 550 122 578 122 612 c 0
 122 644 150 672 182 672 c 0
 216 672 242 644 242 612 c 0
EndSplineSet
Validated: 1
EndChar

StartChar: Ydieresis
Encoding: 376 376 214
Width: 616
GlyphClass: 2
Flags: MW
HStem: 0 20 668 20 709 126
VStem: 149 125 362 102 457 125
LayerCount: 2
Fore
SplineSet
610 668 m 1xc8
 362 292 l 1
 362 120 l 2
 362 62 368 38 412 0 c 1
 216 0 l 1
 232 10 244 22 250 40 c 0
 260 68 260 100 260 130 c 2
 260 292 l 1
 84 574 l 2
 58 616 38 640 -6 668 c 1
 108 668 l 2
 126 668 146 666 156 650 c 2
 324 374 l 1
 456 574 l 2
 464 586 470 602 470 620 c 0
 470 640 452 658 434 668 c 1
 610 668 l 1xc8
457 771 m 0x34
 457 737 429 709 395 709 c 0
 363 709 335 737 335 771 c 0
 335 803 363 831 395 831 c 0
 429 831 457 803 457 771 c 0x34
269 771 m 0
 269 737 243 709 209 709 c 0
 177 709 149 737 149 771 c 0
 149 803 177 831 209 831 c 0
 243 831 269 803 269 771 c 0
EndSplineSet
Validated: 1
EndChar

StartChar: Acircumflex
Encoding: 194 194 215
Width: 742
GlyphClass: 2
Flags: MW
HStem: 0 20 252 64<252 458 252 484 228 458> 668 20 868 20
LayerCount: 2
Fore
SplineSet
732 0 m 1
 524 0 l 1
 538 8 560 18 560 36 c 0
 560 56 550 78 544 96 c 2
 484 252 l 1
 228 252 l 1
 170 96 l 2
 164 82 158 64 158 46 c 0
 158 24 176 10 196 0 c 1
 10 0 l 1
 66 34 80 78 104 136 c 2
 282 582 l 2
 288 598 294 614 294 632 c 0
 294 650 278 660 262 668 c 1
 422 668 l 1
 638 136 l 2
 660 80 678 34 732 0 c 1
458 316 m 1
 356 582 l 1
 252 316 l 1
 458 316 l 1
521 714 m 1
 461 716 407 744 357 776 c 1
 305 742 251 716 189 714 c 1
 357 868 l 1
 521 714 l 1
EndSplineSet
Validated: 1
EndChar

StartChar: Ecircumflex
Encoding: 202 202 216
Width: 544
GlyphClass: 2
Flags: MW
HStem: 0 71 400 71 668 71 868 20
VStem: 98 102<102 326 400 560 560 572>
LayerCount: 2
Fore
SplineSet
522 132 m 1
 476 0 l 1
 54 0 l 1
 70 10 82 22 90 40 c 0
 96 60 98 82 98 102 c 2
 98 560 l 2
 98 584 96 612 88 632 c 0
 80 648 68 660 54 668 c 1
 390 668 l 2
 404 668 416 668 428 674 c 1
 428 556 l 1
 390 592 350 596 300 596 c 0
 266 596 234 594 200 588 c 1
 200 400 l 1
 336 400 l 2
 348 400 358 400 370 406 c 1
 370 298 l 1
 352 324 320 326 290 326 c 2
 200 326 l 1
 200 86 l 1
 242 78 282 74 324 74 c 0
 396 74 464 88 522 132 c 1
431 714 m 5
 371 716 317 744 267 776 c 5
 215 742 161 716 99 714 c 5
 267 868 l 5
 431 714 l 5
EndSplineSet
Validated: 1
EndChar

StartChar: Aacute
Encoding: 193 193 217
Width: 742
GlyphClass: 2
Flags: MW
HStem: 0 20 252 64<252 458 252 484 228 458> 668 20 873 20
LayerCount: 2
Fore
SplineSet
732 0 m 1
 524 0 l 1
 538 8 560 18 560 36 c 0
 560 56 550 78 544 96 c 2
 484 252 l 1
 228 252 l 1
 170 96 l 2
 164 82 158 64 158 46 c 0
 158 24 176 10 196 0 c 1
 10 0 l 1
 66 34 80 78 104 136 c 2
 282 582 l 2
 288 598 294 614 294 632 c 0
 294 650 278 660 262 668 c 1
 422 668 l 1
 638 136 l 2
 660 80 678 34 732 0 c 1
458 316 m 1
 356 582 l 1
 252 316 l 1
 458 316 l 1
481 799 m 5
 205 717 l 5
 425 873 l 5
 481 799 l 5
EndSplineSet
Validated: 1
EndChar

StartChar: Edieresis
Encoding: 203 203 218
Width: 544
GlyphClass: 2
Flags: MW
HStem: 0 71 400 71 668 71 721 126
VStem: 98 102<102 326 400 560 560 572> 116 125 424 125
LayerCount: 2
Fore
SplineSet
522 132 m 1xe8
 476 0 l 1
 54 0 l 1
 70 10 82 22 90 40 c 0
 96 60 98 82 98 102 c 2
 98 560 l 2
 98 584 96 612 88 632 c 0
 80 648 68 660 54 668 c 1
 390 668 l 2
 404 668 416 668 428 674 c 1
 428 556 l 1
 390 592 350 596 300 596 c 0
 266 596 234 594 200 588 c 1
 200 400 l 1
 336 400 l 2
 348 400 358 400 370 406 c 1
 370 298 l 1
 352 324 320 326 290 326 c 2
 200 326 l 1
 200 86 l 1
 242 78 282 74 324 74 c 0
 396 74 464 88 522 132 c 1xe8
424 783 m 0x16
 424 749 396 721 362 721 c 0
 330 721 302 749 302 783 c 0
 302 815 330 843 362 843 c 0
 396 843 424 815 424 783 c 0x16
236 783 m 0
 236 749 210 721 176 721 c 0
 144 721 116 749 116 783 c 0
 116 815 144 843 176 843 c 0
 210 843 236 815 236 783 c 0
EndSplineSet
Validated: 1
EndChar

StartChar: Egrave
Encoding: 200 200 219
Width: 544
GlyphClass: 2
Flags: MW
HStem: 0 71 400 71 668 71 870 20
VStem: 98 102<102 326 400 560 560 572>
LayerCount: 2
Fore
SplineSet
522 132 m 1
 476 0 l 1
 54 0 l 1
 70 10 82 22 90 40 c 0
 96 60 98 82 98 102 c 2
 98 560 l 2
 98 584 96 612 88 632 c 0
 80 648 68 660 54 668 c 1
 390 668 l 2
 404 668 416 668 428 674 c 1
 428 556 l 1
 390 592 350 596 300 596 c 0
 266 596 234 594 200 588 c 1
 200 400 l 1
 336 400 l 2
 348 400 358 400 370 406 c 1
 370 298 l 1
 352 324 320 326 290 326 c 2
 200 326 l 1
 200 86 l 1
 242 78 282 74 324 74 c 0
 396 74 464 88 522 132 c 1
417 714 m 1
 141 796 l 1
 197 870 l 1
 417 714 l 1
EndSplineSet
Validated: 1
EndChar

StartChar: Iacute
Encoding: 205 205 220
Width: 304
GlyphClass: 2
Flags: MW
HStem: 0 20 668 20 876 20
VStem: 100 102<127 130 130 538>
LayerCount: 2
Fore
SplineSet
246 0 m 1
 54 0 l 1
 72 10 84 22 90 40 c 0
 98 60 100 84 100 106 c 2
 100 558 l 2
 100 582 98 612 88 632 c 0
 82 648 70 660 54 668 c 1
 246 668 l 1
 230 658 218 646 210 628 c 0
 204 608 200 582 200 562 c 0
 200 554 202 544 202 538 c 2
 202 130 l 2
 202 124 200 114 200 106 c 0
 200 82 204 56 212 36 c 0
 220 18 232 8 246 0 c 1
286 802 m 1
 10 720 l 1
 230 876 l 1
 286 802 l 1
EndSplineSet
Validated: 1
EndChar

StartChar: Icircumflex
Encoding: 206 206 221
Width: 304
GlyphClass: 2
Flags: MW
HStem: 0 20 668 20 874 20
VStem: 100 102<127 130 130 538>
LayerCount: 2
Fore
SplineSet
246 0 m 1
 54 0 l 1
 72 10 84 22 90 40 c 0
 98 60 100 84 100 106 c 2
 100 558 l 2
 100 582 98 612 88 632 c 0
 82 648 70 660 54 668 c 1
 246 668 l 1
 230 658 218 646 210 628 c 0
 204 608 200 582 200 562 c 0
 200 554 202 544 202 538 c 2
 202 130 l 2
 202 124 200 114 200 106 c 0
 200 82 204 56 212 36 c 0
 220 18 232 8 246 0 c 1
308 720 m 1
 248 722 194 750 144 782 c 1
 92 748 38 722 -24 720 c 1
 144 874 l 1
 308 720 l 1
EndSplineSet
Validated: 1
EndChar

StartChar: Idieresis
Encoding: 207 207 222
Width: 304
GlyphClass: 2
Flags: MW
HStem: 0 20 668 20 724 126
VStem: -7 125 100 102<127 130 130 538> 301 125
LayerCount: 2
Fore
SplineSet
246 0 m 1xc8
 54 0 l 1
 72 10 84 22 90 40 c 0
 98 60 100 84 100 106 c 2
 100 558 l 2
 100 582 98 612 88 632 c 0
 82 648 70 660 54 668 c 1
 246 668 l 1
 230 658 218 646 210 628 c 0
 204 608 200 582 200 562 c 0
 200 554 202 544 202 538 c 2
 202 130 l 2
 202 124 200 114 200 106 c 0
 200 82 204 56 212 36 c 0
 220 18 232 8 246 0 c 1xc8
301 786 m 0x34
 301 752 273 724 239 724 c 0
 207 724 179 752 179 786 c 0
 179 818 207 846 239 846 c 0
 273 846 301 818 301 786 c 0x34
113 786 m 0
 113 752 87 724 53 724 c 0
 21 724 -7 752 -7 786 c 0
 -7 818 21 846 53 846 c 0
 87 846 113 818 113 786 c 0
EndSplineSet
Validated: 1
EndChar

StartChar: Igrave
Encoding: 204 204 223
Width: 304
GlyphClass: 2
Flags: MW
HStem: 0 20 668 20 876 20
VStem: 100 102<127 130 130 538>
LayerCount: 2
Fore
SplineSet
246 0 m 1
 54 0 l 1
 72 10 84 22 90 40 c 0
 98 60 100 84 100 106 c 2
 100 558 l 2
 100 582 98 612 88 632 c 0
 82 648 70 660 54 668 c 1
 246 668 l 1
 230 658 218 646 210 628 c 0
 204 608 200 582 200 562 c 0
 200 554 202 544 202 538 c 2
 202 130 l 2
 202 124 200 114 200 106 c 0
 200 82 204 56 212 36 c 0
 220 18 232 8 246 0 c 1
285 720 m 1
 9 802 l 1
 65 876 l 1
 285 720 l 1
EndSplineSet
Validated: 1
EndChar

StartChar: Oacute
Encoding: 211 211 224
Width: 826
GlyphClass: 2
Flags: MW
HStem: -18 71 684 71 882 20
VStem: 40 114<252 422> 782 114
LayerCount: 2
Fore
SplineSet
782 334 m 0
 782 98 576 -18 404 -18 c 0
 296 -18 40 58 40 336 c 0
 40 508 184 684 418 684 c 0
 598 684 782 564 782 334 c 0
668 326 m 0
 668 516 532 612 410 612 c 0
 280 612 154 526 154 338 c 0
 154 166 286 56 408 56 c 0
 570 56 668 168 668 326 c 0
571 808 m 1
 295 726 l 1
 515 882 l 1
 571 808 l 1
EndSplineSet
Validated: 1
EndChar

StartChar: Ocircumflex
Encoding: 212 212 225
Width: 826
GlyphClass: 2
Flags: MW
HStem: -18 71 684 71 874 20
VStem: 40 114<252 422> 782 114
LayerCount: 2
Fore
SplineSet
782 334 m 0
 782 98 576 -18 404 -18 c 0
 296 -18 40 58 40 336 c 0
 40 508 184 684 418 684 c 0
 598 684 782 564 782 334 c 0
668 326 m 0
 668 516 532 612 410 612 c 0
 280 612 154 526 154 338 c 0
 154 166 286 56 408 56 c 0
 570 56 668 168 668 326 c 0
581 720 m 1
 521 722 467 750 417 782 c 1
 365 748 311 722 249 720 c 1
 417 874 l 1
 581 720 l 1
EndSplineSet
Validated: 1
EndChar

StartChar: Ograve
Encoding: 210 210 226
Width: 826
GlyphClass: 2
Flags: MW
HStem: -18 71 684 71 882 20
VStem: 40 114<252 422> 782 114
LayerCount: 2
Fore
SplineSet
782 334 m 0
 782 98 576 -18 404 -18 c 0
 296 -18 40 58 40 336 c 0
 40 508 184 684 418 684 c 0
 598 684 782 564 782 334 c 0
668 326 m 0
 668 516 532 612 410 612 c 0
 280 612 154 526 154 338 c 0
 154 166 286 56 408 56 c 0
 570 56 668 168 668 326 c 0
552 726 m 1
 276 808 l 1
 332 882 l 1
 552 726 l 1
EndSplineSet
Validated: 1
EndChar

StartChar: Uacute
Encoding: 218 218 227
Width: 732
GlyphClass: 2
Flags: MW
HStem: -18 71 666 20 873 20
VStem: 96 102<242 536> 630 102
LayerCount: 2
Fore
SplineSet
674 0 m 1
 528 0 l 1
 528 68 l 1
 482 8 402 -18 330 -18 c 0
 202 -18 96 48 96 242 c 2
 96 556 l 2
 96 580 94 612 84 632 c 0
 78 648 66 658 50 666 c 1
 242 666 l 1
 226 658 214 646 206 628 c 0
 200 608 196 584 196 562 c 0
 196 554 198 544 198 536 c 2
 198 242 l 2
 198 80 310 58 358 58 c 0
 416 58 528 84 528 208 c 2
 528 536 l 2
 528 568 528 604 516 632 c 0
 510 648 498 658 482 666 c 1
 674 666 l 1
 658 658 646 646 638 628 c 0
 632 608 628 586 628 564 c 0
 628 556 630 546 630 536 c 2
 630 130 l 2
 630 124 628 114 628 106 c 0
 628 82 632 56 640 34 c 0
 648 18 660 8 674 0 c 1
487 799 m 1
 211 717 l 1
 431 873 l 1
 487 799 l 1
EndSplineSet
Validated: 1
EndChar

StartChar: Ucircumflex
Encoding: 219 219 228
Width: 732
GlyphClass: 2
Flags: MW
HStem: -18 71 666 20 871 20
VStem: 96 102<242 536> 630 102
LayerCount: 2
Fore
SplineSet
674 0 m 1
 528 0 l 1
 528 68 l 1
 482 8 402 -18 330 -18 c 0
 202 -18 96 48 96 242 c 2
 96 556 l 2
 96 580 94 612 84 632 c 0
 78 648 66 658 50 666 c 1
 242 666 l 1
 226 658 214 646 206 628 c 0
 200 608 196 584 196 562 c 0
 196 554 198 544 198 536 c 2
 198 242 l 2
 198 80 310 58 358 58 c 0
 416 58 528 84 528 208 c 2
 528 536 l 2
 528 568 528 604 516 632 c 0
 510 648 498 658 482 666 c 1
 674 666 l 1
 658 658 646 646 638 628 c 0
 632 608 628 586 628 564 c 0
 628 556 630 546 630 536 c 2
 630 130 l 2
 630 124 628 114 628 106 c 0
 628 82 632 56 640 34 c 0
 648 18 660 8 674 0 c 1
521 717 m 1
 461 719 407 747 357 779 c 1
 305 745 251 719 189 717 c 1
 357 871 l 1
 521 717 l 1
EndSplineSet
Validated: 1
EndChar

StartChar: Ugrave
Encoding: 217 217 229
Width: 732
GlyphClass: 2
Flags: MW
HStem: -18 71 666 20 879 20
VStem: 96 102<242 536> 630 102
LayerCount: 2
Fore
SplineSet
674 0 m 1
 528 0 l 1
 528 68 l 1
 482 8 402 -18 330 -18 c 0
 202 -18 96 48 96 242 c 2
 96 556 l 2
 96 580 94 612 84 632 c 0
 78 648 66 658 50 666 c 1
 242 666 l 1
 226 658 214 646 206 628 c 0
 200 608 196 584 196 562 c 0
 196 554 198 544 198 536 c 2
 198 242 l 2
 198 80 310 58 358 58 c 0
 416 58 528 84 528 208 c 2
 528 536 l 2
 528 568 528 604 516 632 c 0
 510 648 498 658 482 666 c 1
 674 666 l 1
 658 658 646 646 638 628 c 0
 632 608 628 586 628 564 c 0
 628 556 630 546 630 536 c 2
 630 130 l 2
 630 124 628 114 628 106 c 0
 628 82 632 56 640 34 c 0
 648 18 660 8 674 0 c 1
489 723 m 1
 213 805 l 1
 269 879 l 1
 489 723 l 1
EndSplineSet
Validated: 1
EndChar

StartChar: Abreve
Encoding: 258 258 230
Width: 742
Flags: HW
HStem: 0 20 252 64<252 458 252 484 228 458> 668 20
LayerCount: 2
Fore
SplineSet
516 867 m 5
 352 712 l 5
 185 867 l 5
 247 865 301 839 352 806 c 5
 402 837 456 865 516 867 c 5
732 0 m 1
 524 0 l 1
 538 8 560 18 560 36 c 0
 560 56 550 78 544 96 c 2
 484 252 l 1
 228 252 l 1
 170 96 l 2
 164 82 158 64 158 46 c 0
 158 24 176 10 196 0 c 1
 10 0 l 1
 66 34 80 78 104 136 c 2
 282 582 l 2
 288 598 294 614 294 632 c 0
 294 650 278 660 262 668 c 1
 422 668 l 1
 638 136 l 2
 660 80 678 34 732 0 c 1
458 316 m 1
 356 582 l 1
 252 316 l 1
 458 316 l 1
EndSplineSet
Validated: 1
EndChar

StartChar: abreve
Encoding: 259 259 231
Width: 534
Flags: HW
HStem: -14 71 480 71
VStem: 34 102<108 160 108 163> 430 90
LayerCount: 2
Fore
SplineSet
400 684 m 5
 236 529 l 5
 69 684 l 5
 131 682 185 656 236 623 c 5
 286 654 340 682 400 684 c 5
516 60 m 1
 472 -6 l 1
 440 -4 408 -2 380 16 c 0
 340 38 340 82 340 124 c 2
 340 254 l 1
 314 242 290 234 262 228 c 2
 210 216 l 2
 170 206 136 182 136 138 c 0
 136 78 190 56 242 56 c 0
 268 56 294 62 320 68 c 1
 260 -8 l 1
 240 -12 218 -14 196 -14 c 0
 106 -14 34 52 34 144 c 0
 34 182 56 222 90 240 c 0
 182 294 338 268 338 346 c 0
 338 392 286 412 246 412 c 0
 194 412 150 396 102 374 c 1
 170 474 l 1
 196 480 222 480 248 480 c 0
 414 480 430 386 430 292 c 2
 430 162 l 2
 430 160 428 152 428 148 c 0
 428 122 432 96 454 78 c 0
 472 64 494 60 516 60 c 1
EndSplineSet
Validated: 1
EndChar

StartChar: Cacute
Encoding: 262 262 232
Width: 648
Flags: HW
HStem: -18 80 684 86
VStem: 40 114<262 422 262 442>
LayerCount: 2
Fore
SplineSet
481 799 m 5
 205 717 l 5
 425 873 l 5
 481 799 l 5
632 132 m 1
 580 14 l 1
 526 -10 472 -18 414 -18 c 0
 210 -18 40 100 40 334 c 0
 40 550 192 684 402 684 c 0
 462 684 522 672 580 658 c 1
 580 542 l 1
 518 578 460 598 386 598 c 0
 256 598 154 488 154 356 c 0
 154 168 286 66 406 66 c 0
 486 66 560 94 632 132 c 1
EndSplineSet
Validated: 1
EndChar

StartChar: Ccircumflex
Encoding: 264 264 233
Width: 648
Flags: HW
HStem: -18 80 684 86
VStem: 40 114<262 422 262 442>
LayerCount: 2
Fore
SplineSet
511 714 m 5
 451 716 397 744 347 776 c 5
 295 742 241 716 179 714 c 5
 347 868 l 5
 511 714 l 5
632 132 m 1
 580 14 l 1
 526 -10 472 -18 414 -18 c 0
 210 -18 40 100 40 334 c 0
 40 550 192 684 402 684 c 0
 462 684 522 672 580 658 c 1
 580 542 l 1
 518 578 460 598 386 598 c 0
 256 598 154 488 154 356 c 0
 154 168 286 66 406 66 c 0
 486 66 560 94 632 132 c 1
EndSplineSet
Validated: 1
EndChar

StartChar: cacute
Encoding: 263 263 234
Width: 502
Flags: HW
HStem: -14 71 480 71
VStem: 29 102<182 297 182 314>
LayerCount: 2
Fore
SplineSet
394 619 m 5
 118 537 l 5
 338 693 l 5
 394 619 l 5
493 104 m 1
 441 8 l 1
 401 -8 357 -14 313 -14 c 0
 203 -14 29 40 29 228 c 0
 29 400 185 480 317 480 c 0
 355 480 391 476 427 468 c 1
 427 364 l 1
 391 398 347 412 297 412 c 0
 199 412 131 346 131 248 c 0
 131 116 247 56 333 56 c 0
 391 56 445 72 493 104 c 1
EndSplineSet
Validated: 1
EndChar

StartChar: ccircumflex
Encoding: 265 265 235
Width: 502
Flags: HW
HStem: -14 71 480 71
VStem: 29 102<182 297 182 314>
LayerCount: 2
Fore
SplineSet
422 537 m 5
 362 539 308 567 258 599 c 5
 206 565 152 539 90 537 c 5
 258 691 l 5
 422 537 l 5
493 104 m 1
 441 8 l 1
 401 -8 357 -14 313 -14 c 0
 203 -14 29 40 29 228 c 0
 29 400 185 480 317 480 c 0
 355 480 391 476 427 468 c 1
 427 364 l 1
 391 398 347 412 297 412 c 0
 199 412 131 346 131 248 c 0
 131 116 247 56 333 56 c 0
 391 56 445 72 493 104 c 1
EndSplineSet
Validated: 1
EndChar

StartChar: cdotaccent
Encoding: 267 267 236
Width: 502
Flags: HW
HStem: -14 71 480 71
VStem: 29 102<182 297 182 314>
LayerCount: 2
Fore
SplineSet
353 631 m 4x36
 353 578 308 534 256 534 c 4
 203 534 159 578 159 631 c 4
 159 684 203 728 256 728 c 4
 309 728 353 684 353 631 c 4x36
493 104 m 1
 441 8 l 1
 401 -8 357 -14 313 -14 c 0
 203 -14 29 40 29 228 c 0
 29 400 185 480 317 480 c 0
 355 480 391 476 427 468 c 1
 427 364 l 1
 391 398 347 412 297 412 c 0
 199 412 131 346 131 248 c 0
 131 116 247 56 333 56 c 0
 391 56 445 72 493 104 c 1
EndSplineSet
Validated: 1
EndChar

StartChar: ccaron
Encoding: 269 269 237
Width: 502
Flags: HW
HStem: -14 71 480 71
VStem: 29 102<182 297 182 314>
LayerCount: 2
Fore
SplineSet
400 684 m 5
 236 529 l 5
 69 684 l 5
 131 682 185 656 236 623 c 5
 286 654 340 682 400 684 c 5
493 104 m 1
 441 8 l 1
 401 -8 357 -14 313 -14 c 0
 203 -14 29 40 29 228 c 0
 29 400 185 480 317 480 c 0
 355 480 391 476 427 468 c 1
 427 364 l 1
 391 398 347 412 297 412 c 0
 199 412 131 346 131 248 c 0
 131 116 247 56 333 56 c 0
 391 56 445 72 493 104 c 1
EndSplineSet
Validated: 1
EndChar

StartChar: Cdotaccent
Encoding: 266 266 238
Width: 648
Flags: HW
HStem: -18 80 684 86
VStem: 40 114<262 422 262 442>
LayerCount: 2
Fore
SplineSet
446 811 m 4
 446 758 401 714 349 714 c 4
 296 714 252 758 252 811 c 4
 252 864 296 908 349 908 c 4
 402 908 446 864 446 811 c 4
632 132 m 1
 580 14 l 1
 526 -10 472 -18 414 -18 c 0
 210 -18 40 100 40 334 c 0
 40 550 192 684 402 684 c 0
 462 684 522 672 580 658 c 1
 580 542 l 1
 518 578 460 598 386 598 c 0
 256 598 154 488 154 356 c 0
 154 168 286 66 406 66 c 0
 486 66 560 94 632 132 c 1
EndSplineSet
Validated: 1
EndChar

StartChar: Ccaron
Encoding: 268 268 239
Width: 648
Flags: HW
HStem: -18 80 684 86
VStem: 40 114<262 422 262 442>
LayerCount: 2
Fore
SplineSet
516 867 m 5
 352 712 l 5
 185 867 l 5
 247 865 301 839 352 806 c 5
 402 837 456 865 516 867 c 5
632 132 m 1
 580 14 l 1
 526 -10 472 -18 414 -18 c 0
 210 -18 40 100 40 334 c 0
 40 550 192 684 402 684 c 0
 462 684 522 672 580 658 c 1
 580 542 l 1
 518 578 460 598 386 598 c 0
 256 598 154 488 154 356 c 0
 154 168 286 66 406 66 c 0
 486 66 560 94 632 132 c 1
EndSplineSet
Validated: 1
EndChar

StartChar: Dcaron
Encoding: 270 270 240
Width: 722
Flags: HW
HStem: 4 71 668 71
VStem: 98 102<106 134 134 560 560 572> 678 114
LayerCount: 2
Fore
SplineSet
516 867 m 5
 352 712 l 5
 185 867 l 5
 247 865 301 839 352 806 c 5
 402 837 456 865 516 867 c 5
678 338 m 0
 678 154 550 16 334 4 c 0
 296 2 256 0 216 0 c 2
 54 0 l 1
 68 14 84 26 90 44 c 0
 96 64 98 84 98 106 c 2
 98 134 l 1
 98 560 l 2
 98 584 96 612 88 632 c 0
 80 648 68 660 54 668 c 1
 316 668 l 2
 512 668 678 546 678 338 c 0
562 322 m 0
 562 484 468 600 298 600 c 0
 244 600 200 590 200 590 c 1
 200 84 l 1
 232 78 266 76 298 76 c 0
 436 76 562 158 562 322 c 0
EndSplineSet
Validated: 1
EndChar

StartChar: dcaron
Encoding: 271 271 241
Width: 673
Flags: HW
HStem: -14 71 480 64
VStem: 40 102<194 292 194 296> 526 90
LayerCount: 2
Fore
SplineSet
668 668 m 5
 652 400 l 5
 584 400 l 5
 568 668 l 5
 668 668 l 5
564 0 m 1
 436 0 l 1
 436 230 l 2
 436 274 436 320 410 356 c 0
 382 394 336 416 290 416 c 0
 204 416 142 342 142 242 c 0
 142 146 218 58 316 58 c 0
 350 58 380 66 408 84 c 1
 350 -8 l 1
 328 -12 306 -14 284 -14 c 0
 148 -14 40 90 40 228 c 0
 40 364 136 480 266 480 c 0
 332 480 384 464 436 422 c 1
 436 580 l 2
 436 620 434 638 398 664 c 1
 468 664 l 2
 488 664 510 670 526 686 c 1
 526 100 l 2
 526 96 524 88 524 86 c 0
 524 48 528 28 564 0 c 1
EndSplineSet
Validated: 1
EndChar

StartChar: Ebreve
Encoding: 276 276 242
Width: 544
Flags: HW
HStem: 0 71 400 71 668 71
VStem: 98 102<102 326 400 560 560 572>
LayerCount: 2
Fore
SplineSet
416 867 m 5
 252 712 l 5
 85 867 l 5
 147 865 201 839 252 806 c 5
 302 837 356 865 416 867 c 5
522 132 m 1
 476 0 l 1
 54 0 l 1
 70 10 82 22 90 40 c 0
 96 60 98 82 98 102 c 2
 98 560 l 2
 98 584 96 612 88 632 c 0
 80 648 68 660 54 668 c 1
 390 668 l 2
 404 668 416 668 428 674 c 1
 428 556 l 1
 390 592 350 596 300 596 c 0
 266 596 234 594 200 588 c 1
 200 400 l 1
 336 400 l 2
 348 400 358 400 370 406 c 1
 370 298 l 1
 352 324 320 326 290 326 c 2
 200 326 l 1
 200 86 l 1
 242 78 282 74 324 74 c 0
 396 74 464 88 522 132 c 1
EndSplineSet
Validated: 1
EndChar

StartChar: Edotaccent
Encoding: 278 278 243
Width: 544
Flags: HW
HStem: 0 71 400 71 668 71
VStem: 98 102<102 326 400 560 560 572>
LayerCount: 2
Fore
SplineSet
356 811 m 4
 356 758 311 714 259 714 c 4
 206 714 162 758 162 811 c 4
 162 864 206 908 259 908 c 4
 312 908 356 864 356 811 c 4
522 132 m 1
 476 0 l 1
 54 0 l 1
 70 10 82 22 90 40 c 0
 96 60 98 82 98 102 c 2
 98 560 l 2
 98 584 96 612 88 632 c 0
 80 648 68 660 54 668 c 1
 390 668 l 2
 404 668 416 668 428 674 c 1
 428 556 l 1
 390 592 350 596 300 596 c 0
 266 596 234 594 200 588 c 1
 200 400 l 1
 336 400 l 2
 348 400 358 400 370 406 c 1
 370 298 l 1
 352 324 320 326 290 326 c 2
 200 326 l 1
 200 86 l 1
 242 78 282 74 324 74 c 0
 396 74 464 88 522 132 c 1
EndSplineSet
Validated: 1
EndChar

StartChar: Ecaron
Encoding: 282 282 244
Width: 544
Flags: W
HStem: 0 71 400 71 668 71
VStem: 98 102<102 326 400 560 560 572>
LayerCount: 2
Fore
SplineSet
416 867 m 5
 252 712 l 5
 85 867 l 5
 147 865 201 839 252 806 c 5
 302 837 356 865 416 867 c 5
522 132 m 1
 476 0 l 1
 54 0 l 1
 70 10 82 22 90 40 c 0
 96 60 98 82 98 102 c 2
 98 560 l 2
 98 584 96 612 88 632 c 0
 80 648 68 660 54 668 c 1
 390 668 l 2
 404 668 416 668 428 674 c 1
 428 556 l 1
 390 592 350 596 300 596 c 0
 266 596 234 594 200 588 c 1
 200 400 l 1
 336 400 l 2
 348 400 358 400 370 406 c 1
 370 298 l 1
 352 324 320 326 290 326 c 2
 200 326 l 1
 200 86 l 1
 242 78 282 74 324 74 c 0
 396 74 464 88 522 132 c 1
EndSplineSet
Validated: 1
EndChar

StartChar: ebreve
Encoding: 277 277 245
Width: 564
Flags: HW
HStem: -14 71 308 64 480 55
VStem: 38 114<159 308>
LayerCount: 2
Fore
SplineSet
442 684 m 5
 278 529 l 5
 111 684 l 5
 173 682 227 656 278 623 c 5
 328 654 382 682 442 684 c 5
520 108 m 1
 470 12 l 1
 422 -6 374 -14 324 -14 c 0
 164 -14 38 80 38 238 c 0
 38 368 142 480 278 480 c 0
 436 480 520 380 520 244 c 1
 148 244 l 1
 148 156 210 58 346 58 c 0
 410 58 466 72 520 108 c 1
414 308 m 1
 400 380 358 420 282 420 c 0
 216 420 166 372 152 308 c 1
 414 308 l 1
EndSplineSet
Validated: 1
EndChar

StartChar: edotaccent
Encoding: 279 279 246
Width: 564
Flags: HW
HStem: -14 71 308 64 480 55
VStem: 38 114<159 308>
LayerCount: 2
Fore
SplineSet
375 631 m 4x36
 375 578 330 534 278 534 c 4
 225 534 181 578 181 631 c 4
 181 684 225 728 278 728 c 4
 331 728 375 684 375 631 c 4x36
520 108 m 1
 470 12 l 1
 422 -6 374 -14 324 -14 c 0
 164 -14 38 80 38 238 c 0
 38 368 142 480 278 480 c 0
 436 480 520 380 520 244 c 1
 148 244 l 1
 148 156 210 58 346 58 c 0
 410 58 466 72 520 108 c 1
414 308 m 1
 400 380 358 420 282 420 c 0
 216 420 166 372 152 308 c 1
 414 308 l 1
EndSplineSet
Validated: 1
EndChar

StartChar: ecaron
Encoding: 283 283 247
Width: 564
Flags: W
HStem: -14 71 308 64 480 55
VStem: 38 114<159 308>
LayerCount: 2
Fore
SplineSet
442 684 m 5
 278 529 l 5
 111 684 l 5
 173 682 227 656 278 623 c 5
 328 654 382 682 442 684 c 5
520 108 m 1
 470 12 l 1
 422 -6 374 -14 324 -14 c 0
 164 -14 38 80 38 238 c 0
 38 368 142 480 278 480 c 0
 436 480 520 380 520 244 c 1
 148 244 l 1
 148 156 210 58 346 58 c 0
 410 58 466 72 520 108 c 1
414 308 m 1
 400 380 358 420 282 420 c 0
 216 420 166 372 152 308 c 1
 414 308 l 1
EndSplineSet
Validated: 1
EndChar

StartChar: Gcircumflex
Encoding: 284 284 248
Width: 762
Flags: HW
HStem: -18 71 684 71
VStem: 40 114<255 418 255 446> 690 102
LayerCount: 2
Fore
SplineSet
511 714 m 5
 451 716 397 744 347 776 c 5
 295 742 241 716 179 714 c 5
 347 868 l 5
 511 714 l 5
694 14 m 1
 684 12 672 10 660 8 c 0
 594 -6 526 -18 458 -18 c 0
 272 -18 40 76 40 322 c 0
 40 570 256 684 452 684 c 0
 508 684 564 676 618 666 c 1
 618 550 l 1
 600 566 548 612 434 612 c 0
 274 612 154 500 154 336 c 0
 154 174 300 56 456 56 c 0
 520 56 578 72 588 76 c 1
 588 230 l 2
 588 254 586 284 576 306 c 0
 570 322 558 332 542 340 c 1
 694 340 l 1
 690 330 690 280 690 280 c 1
 690 50 l 2
 690 38 690 26 694 14 c 1
EndSplineSet
Validated: 1
EndChar

StartChar: Gbreve
Encoding: 286 286 249
Width: 762
Flags: HW
HStem: -18 71 684 71
VStem: 40 114<255 418 255 446> 690 102
LayerCount: 2
Fore
SplineSet
516 867 m 5
 352 712 l 5
 185 867 l 5
 247 865 301 839 352 806 c 5
 402 837 456 865 516 867 c 5
694 14 m 1
 684 12 672 10 660 8 c 0
 594 -6 526 -18 458 -18 c 0
 272 -18 40 76 40 322 c 0
 40 570 256 684 452 684 c 0
 508 684 564 676 618 666 c 1
 618 550 l 1
 600 566 548 612 434 612 c 0
 274 612 154 500 154 336 c 0
 154 174 300 56 456 56 c 0
 520 56 578 72 588 76 c 1
 588 230 l 2
 588 254 586 284 576 306 c 0
 570 322 558 332 542 340 c 1
 694 340 l 1
 690 330 690 280 690 280 c 1
 690 50 l 2
 690 38 690 26 694 14 c 1
EndSplineSet
Validated: 1
EndChar

StartChar: Gdotaccent
Encoding: 288 288 250
Width: 762
Flags: HW
HStem: -18 71 684 71
VStem: 40 114<255 418 255 446> 690 102
LayerCount: 2
Fore
SplineSet
446 811 m 4
 446 758 401 714 349 714 c 4
 296 714 252 758 252 811 c 4
 252 864 296 908 349 908 c 4
 402 908 446 864 446 811 c 4
694 14 m 1
 684 12 672 10 660 8 c 0
 594 -6 526 -18 458 -18 c 0
 272 -18 40 76 40 322 c 0
 40 570 256 684 452 684 c 0
 508 684 564 676 618 666 c 1
 618 550 l 1
 600 566 548 612 434 612 c 0
 274 612 154 500 154 336 c 0
 154 174 300 56 456 56 c 0
 520 56 578 72 588 76 c 1
 588 230 l 2
 588 254 586 284 576 306 c 0
 570 322 558 332 542 340 c 1
 694 340 l 1
 690 330 690 280 690 280 c 1
 690 50 l 2
 690 38 690 26 694 14 c 1
EndSplineSet
Validated: 1
EndChar

StartChar: gcircumflex
Encoding: 285 285 251
Width: 606
Flags: HW
HStem: -240 64<258 313 258 343> 26 64 472 71
VStem: 70 102 506 114
LayerCount: 2
Fore
SplineSet
432 537 m 5
 372 539 318 567 268 599 c 5
 216 565 162 539 100 537 c 5
 268 691 l 5
 432 537 l 5
594 480 m 1
 566 416 l 2
 562 408 552 404 544 404 c 0
 506 404 470 410 434 416 c 1
 476 386 506 346 506 294 c 0
 506 202 414 154 330 140 c 0
 306 136 248 136 248 110 c 0
 248 90 278 88 290 88 c 2
 334 88 l 2
 468 88 578 44 578 -60 c 0
 578 -206 382 -240 304 -240 c 0
 158 -240 12 -194 12 -88 c 0
 12 -34 64 -14 112 -14 c 0
 132 -14 150 -18 166 -26 c 1
 140 -32 128 -48 128 -76 c 0
 128 -154 228 -176 288 -176 c 0
 338 -176 468 -164 468 -68 c 0
 468 20 334 26 272 26 c 2
 220 26 l 2
 210 24 198 24 188 24 c 0
 152 28 128 58 124 94 c 1
 122 96 l 1
 122 124 184 144 204 152 c 1
 178 154 70 202 70 302 c 0
 70 416 162 480 294 480 c 0
 320 480 346 478 372 476 c 0
 406 474 440 472 476 472 c 0
 514 472 554 476 594 480 c 1
394 302 m 0
 394 364 340 416 276 416 c 0
 222 416 176 382 176 324 c 0
 176 256 232 202 308 202 c 0
 360 202 394 248 394 302 c 0
EndSplineSet
Validated: 1
EndChar

StartChar: gbreve
Encoding: 287 287 252
Width: 606
Flags: W
HStem: -240 64<258 313 258 343> 26 64 472 71
VStem: 70 102 506 114
LayerCount: 2
Fore
SplineSet
442 684 m 5
 278 529 l 5
 111 684 l 5
 173 682 227 656 278 623 c 5
 328 654 382 682 442 684 c 5
594 480 m 1
 566 416 l 2
 562 408 552 404 544 404 c 0
 506 404 470 410 434 416 c 1
 476 386 506 346 506 294 c 0
 506 202 414 154 330 140 c 0
 306 136 248 136 248 110 c 0
 248 90 278 88 290 88 c 2
 334 88 l 2
 468 88 578 44 578 -60 c 0
 578 -206 382 -240 304 -240 c 0
 158 -240 12 -194 12 -88 c 0
 12 -34 64 -14 112 -14 c 0
 132 -14 150 -18 166 -26 c 1
 140 -32 128 -48 128 -76 c 0
 128 -154 228 -176 288 -176 c 0
 338 -176 468 -164 468 -68 c 0
 468 20 334 26 272 26 c 2
 220 26 l 2
 210 24 198 24 188 24 c 0
 152 28 128 58 124 94 c 1
 122 96 l 1
 122 124 184 144 204 152 c 1
 178 154 70 202 70 302 c 0
 70 416 162 480 294 480 c 0
 320 480 346 478 372 476 c 0
 406 474 440 472 476 472 c 0
 514 472 554 476 594 480 c 1
394 302 m 0
 394 364 340 416 276 416 c 0
 222 416 176 382 176 324 c 0
 176 256 232 202 308 202 c 0
 360 202 394 248 394 302 c 0
EndSplineSet
Validated: 1
EndChar

StartChar: gdotaccent
Encoding: 289 289 253
Width: 606
Flags: HW
HStem: -240 64<258 313 258 343> 26 64 472 71
VStem: 70 102 506 114
LayerCount: 2
Fore
SplineSet
383 631 m 4x36
 383 578 338 534 286 534 c 4
 233 534 189 578 189 631 c 4
 189 684 233 728 286 728 c 4
 339 728 383 684 383 631 c 4x36
594 480 m 1
 566 416 l 2
 562 408 552 404 544 404 c 0
 506 404 470 410 434 416 c 1
 476 386 506 346 506 294 c 0
 506 202 414 154 330 140 c 0
 306 136 248 136 248 110 c 0
 248 90 278 88 290 88 c 2
 334 88 l 2
 468 88 578 44 578 -60 c 0
 578 -206 382 -240 304 -240 c 0
 158 -240 12 -194 12 -88 c 0
 12 -34 64 -14 112 -14 c 0
 132 -14 150 -18 166 -26 c 1
 140 -32 128 -48 128 -76 c 0
 128 -154 228 -176 288 -176 c 0
 338 -176 468 -164 468 -68 c 0
 468 20 334 26 272 26 c 2
 220 26 l 2
 210 24 198 24 188 24 c 0
 152 28 128 58 124 94 c 1
 122 96 l 1
 122 124 184 144 204 152 c 1
 178 154 70 202 70 302 c 0
 70 416 162 480 294 480 c 0
 320 480 346 478 372 476 c 0
 406 474 440 472 476 472 c 0
 514 472 554 476 594 480 c 1
394 302 m 0
 394 364 340 416 276 416 c 0
 222 416 176 382 176 324 c 0
 176 256 232 202 308 202 c 0
 360 202 394 248 394 302 c 0
EndSplineSet
Validated: 1
EndChar

StartChar: Hcircumflex
Encoding: 292 292 254
Width: 774
Flags: HW
HStem: 0 20 400 80 668 20
VStem: 98 102<127 130 130 322 400 538> 666 102
LayerCount: 2
Fore
SplineSet
541 714 m 5
 481 716 427 744 377 776 c 5
 325 742 271 716 209 714 c 5
 377 868 l 5
 541 714 l 5
712 0 m 1
 520 0 l 1
 536 10 548 22 556 40 c 0
 562 60 564 82 564 102 c 2
 564 322 l 1
 200 322 l 1
 200 130 l 2
 200 124 198 114 198 108 c 0
 198 84 202 56 212 36 c 0
 218 18 230 8 246 0 c 1
 54 0 l 1
 70 10 82 22 90 40 c 0
 96 60 98 82 98 102 c 2
 98 560 l 2
 98 584 96 612 88 632 c 0
 80 648 68 660 54 668 c 1
 246 668 l 1
 228 658 216 646 210 628 c 0
 200 600 200 566 200 538 c 2
 200 400 l 1
 564 400 l 1
 564 560 l 2
 564 584 562 612 554 632 c 0
 546 648 534 660 520 668 c 1
 712 668 l 1
 694 658 682 646 676 628 c 0
 666 600 666 566 666 538 c 2
 666 130 l 2
 666 100 666 64 678 36 c 0
 684 18 696 8 712 0 c 1
EndSplineSet
Validated: 1
EndChar

StartChar: hcircumflex
Encoding: 293 293 255
Width: 576
Flags: HW
HStem: 0 20 480 71
VStem: 80 90<100 286 416 580 580 600> 492 90
LayerCount: 2
Fore
SplineSet
271 714 m 5
 211 716 157 744 107 776 c 5
 55 742 1 716 -61 714 c 5
 107 868 l 5
 271 714 l 5
532 0 m 1
 362 0 l 1
 400 28 402 50 402 88 c 2
 402 280 l 2
 402 310 402 340 382 366 c 0
 360 394 322 408 286 408 c 0
 252 408 212 398 188 368 c 0
 170 344 170 316 170 286 c 2
 170 100 l 2
 170 96 168 88 168 86 c 0
 168 46 172 28 210 0 c 1
 40 0 l 1
 72 32 80 22 80 100 c 2
 80 580 l 2
 80 620 78 636 40 664 c 1
 110 664 l 2
 132 664 154 670 170 686 c 1
 170 416 l 1
 204 460 266 480 318 480 c 0
 374 480 434 462 468 414 c 0
 490 384 492 346 492 310 c 2
 492 100 l 2
 492 50 492 32 532 0 c 1
EndSplineSet
Validated: 1
EndChar

StartChar: Itilde
Encoding: 296 296 256
Width: 304
Flags: HW
HStem: 0 20 668 20
VStem: 100 102<127 130 130 538>
LayerCount: 2
Fore
SplineSet
326 837 m 5
 308 783 292 721 224 721 c 4
 170 721 102 741 48 741 c 4
 18 741 -6 731 -30 715 c 5
 -14 757 2 817 56 817 c 4
 98 817 178 797 226 797 c 4
 264 797 300 809 326 837 c 5
246 0 m 1
 54 0 l 1
 72 10 84 22 90 40 c 0
 98 60 100 84 100 106 c 2
 100 558 l 2
 100 582 98 612 88 632 c 0
 82 648 70 660 54 668 c 1
 246 668 l 1
 230 658 218 646 210 628 c 0
 204 608 200 582 200 562 c 0
 200 554 202 544 202 538 c 2
 202 130 l 2
 202 124 200 114 200 106 c 0
 200 82 204 56 212 36 c 0
 220 18 232 8 246 0 c 1
EndSplineSet
Validated: 1
EndChar

StartChar: Ibreve
Encoding: 300 300 257
Width: 304
Flags: HW
HStem: 0 20 668 20
VStem: 100 102<127 130 130 538>
LayerCount: 2
Fore
SplineSet
317 867 m 5
 153 712 l 5
 -14 867 l 5
 48 865 102 839 153 806 c 5
 203 837 257 865 317 867 c 5
246 0 m 1
 54 0 l 1
 72 10 84 22 90 40 c 0
 98 60 100 84 100 106 c 2
 100 558 l 2
 100 582 98 612 88 632 c 0
 82 648 70 660 54 668 c 1
 246 668 l 1
 230 658 218 646 210 628 c 0
 204 608 200 582 200 562 c 0
 200 554 202 544 202 538 c 2
 202 130 l 2
 202 124 200 114 200 106 c 0
 200 82 204 56 212 36 c 0
 220 18 232 8 246 0 c 1
EndSplineSet
Validated: 1
EndChar

StartChar: itilde
Encoding: 297 297 258
Width: 262
Flags: HW
HStem: 0 20 654 126
VStem: 82 102
LayerCount: 2
Fore
SplineSet
316 647 m 5
 298 593 282 531 214 531 c 4
 160 531 92 551 38 551 c 4
 8 551 -16 541 -40 525 c 5
 -24 567 -8 627 46 627 c 4
 88 627 168 607 216 607 c 4
 254 607 290 619 316 647 c 5
212 0 m 1
 44 0 l 1
 80 28 82 48 82 86 c 2
 82 380 l 2
 82 418 80 440 44 468 c 1
 114 468 l 2
 136 468 158 470 174 486 c 1
 174 100 l 2
 174 96 172 90 172 86 c 0
 172 46 176 28 212 0 c 1
EndSplineSet
Validated: 1
EndChar

StartChar: ibreve
Encoding: 301 301 259
Width: 262
Flags: HW
HStem: 0 20 654 126
VStem: 82 102
LayerCount: 2
Fore
SplineSet
280 684 m 5
 116 529 l 5
 -51 684 l 5
 11 682 65 656 116 623 c 5
 166 654 220 682 280 684 c 5
212 0 m 1
 44 0 l 1
 80 28 82 48 82 86 c 2
 82 380 l 2
 82 418 80 440 44 468 c 1
 114 468 l 2
 136 468 158 470 174 486 c 1
 174 100 l 2
 174 96 172 90 172 86 c 0
 172 46 176 28 212 0 c 1
EndSplineSet
Validated: 1
EndChar

StartChar: Jcircumflex
Encoding: 308 308 260
Width: 294
Flags: HW
HStem: 668 20
VStem: 194 102
LayerCount: 2
Fore
SplineSet
311 714 m 5
 251 716 197 744 147 776 c 5
 95 742 41 716 -21 714 c 5
 147 868 l 5
 311 714 l 5
238 668 m 1
 222 658 210 646 202 628 c 0
 196 608 192 582 192 562 c 0
 192 554 194 544 194 538 c 2
 194 -42 l 2
 194 -106 186 -144 128 -182 c 0
 80 -212 26 -230 -32 -234 c 1
 4 -212 38 -184 62 -148 c 0
 92 -104 92 -52 92 0 c 2
 92 558 l 2
 92 582 90 612 80 632 c 0
 74 650 62 660 46 668 c 1
 238 668 l 1
EndSplineSet
Validated: 1
EndChar

StartChar: jcircumflex
Encoding: 309 309 261
Width: 252
Flags: HW
HStem: 658 126
VStem: 82 102
LayerCount: 2
Fore
SplineSet
287 537 m 5
 227 539 173 567 123 599 c 5
 71 565 17 539 -45 537 c 5
 123 691 l 5
 287 537 l 5
174 -50 m 2
 174 -90 170 -136 140 -166 c 0
 96 -208 36 -222 -22 -230 c 1
 8 -212 34 -192 52 -164 c 0
 82 -124 82 -66 82 -18 c 2
 82 380 l 2
 82 418 80 440 44 468 c 1
 114 468 l 2
 136 468 158 470 174 486 c 1
 174 -50 l 2
EndSplineSet
Validated: 1
EndChar

StartChar: Lacute
Encoding: 313 313 262
Width: 534
Flags: HW
HStem: 0 71 668 20
VStem: 98 102<102 538 82 560 82 572>
LayerCount: 2
Fore
SplineSet
325 799 m 5
 49 717 l 5
 269 873 l 5
 325 799 l 5
520 134 m 1
 468 0 l 1
 54 0 l 1
 70 10 82 22 90 40 c 0
 96 60 98 82 98 102 c 2
 98 560 l 2
 98 584 96 612 88 632 c 0
 80 648 68 660 54 668 c 1
 246 668 l 1
 228 658 216 646 210 628 c 0
 200 600 200 566 200 538 c 2
 200 82 l 1
 250 76 300 72 350 72 c 0
 390 72 434 84 470 102 c 0
 488 112 504 124 520 134 c 1
EndSplineSet
Validated: 1
EndChar

StartChar: lacute
Encoding: 314 314 263
Width: 252
Flags: HW
HStem: 0 20
VStem: 80 90<98 100 100 578 578 597>
LayerCount: 2
Fore
SplineSet
303 799 m 5
 27 717 l 5
 247 873 l 5
 303 799 l 5
210 0 m 1
 40 0 l 1
 78 28 80 50 80 88 c 2
 80 578 l 2
 80 616 78 636 40 664 c 1
 110 664 l 2
 132 664 154 670 170 686 c 1
 170 100 l 2
 170 96 168 88 168 86 c 0
 168 46 172 28 210 0 c 1
EndSplineSet
Validated: 1
EndChar

StartChar: Nacute
Encoding: 323 323 264
Width: 774
Flags: HW
HStem: 668 20
VStem: 98 77 666 77
LayerCount: 2
Fore
SplineSet
525 799 m 5
 249 717 l 5
 469 873 l 5
 525 799 l 5
720 668 m 1
 674 638 666 600 666 548 c 2
 666 -34 l 1
 606 -12 568 24 528 74 c 2
 172 524 l 1
 172 120 l 2
 172 68 180 30 226 0 c 1
 46 0 l 1
 92 30 98 68 98 120 c 2
 98 548 l 2
 98 600 92 638 46 668 c 1
 194 668 l 1
 200 654 210 642 218 630 c 2
 592 152 l 1
 592 548 l 2
 592 600 586 638 540 668 c 1
 720 668 l 1
EndSplineSet
Validated: 1
EndChar

StartChar: nacute
Encoding: 324 324 265
Width: 586
Flags: HW
HStem: 0 20 480 71
VStem: 82 90<86 88 66 380> 494 90
LayerCount: 2
Fore
SplineSet
432 616 m 5
 156 534 l 5
 376 690 l 5
 432 616 l 5
534 0 m 1
 368 0 l 1
 404 28 406 48 406 86 c 2
 406 262 l 2
 406 294 406 332 386 360 c 0
 364 390 322 406 286 406 c 0
 250 406 210 394 188 364 c 0
 176 346 174 326 174 304 c 2
 174 100 l 2
 174 96 172 90 172 86 c 0
 172 46 176 28 212 0 c 1
 44 0 l 1
 80 28 82 48 82 86 c 2
 82 380 l 2
 82 418 80 440 44 468 c 1
 108 468 l 2
 130 468 152 470 168 486 c 1
 168 402 l 1
 210 450 254 480 318 480 c 0
 374 480 436 458 470 412 c 0
 494 378 496 328 496 288 c 2
 496 100 l 2
 496 96 494 90 494 86 c 0
 494 46 498 28 534 0 c 1
EndSplineSet
Validated: 1
EndChar

StartChar: Ncaron
Encoding: 327 327 266
Width: 774
Flags: HW
HStem: 668 20
VStem: 98 77 666 77
LayerCount: 2
Fore
SplineSet
516 867 m 5
 352 712 l 5
 185 867 l 5
 247 865 301 839 352 806 c 5
 402 837 456 865 516 867 c 5
720 668 m 1
 674 638 666 600 666 548 c 2
 666 -34 l 1
 606 -12 568 24 528 74 c 2
 172 524 l 1
 172 120 l 2
 172 68 180 30 226 0 c 1
 46 0 l 1
 92 30 98 68 98 120 c 2
 98 548 l 2
 98 600 92 638 46 668 c 1
 194 668 l 1
 200 654 210 642 218 630 c 2
 592 152 l 1
 592 548 l 2
 592 600 586 638 540 668 c 1
 720 668 l 1
EndSplineSet
Validated: 1
EndChar

StartChar: ncaron
Encoding: 328 328 267
Width: 586
Flags: HW
HStem: 0 20 480 71
VStem: 82 90<86 88 66 380> 494 90
LayerCount: 2
Fore
SplineSet
440 684 m 5
 276 529 l 5
 109 684 l 5
 171 682 225 656 276 623 c 5
 326 654 380 682 440 684 c 5
534 0 m 1
 368 0 l 1
 404 28 406 48 406 86 c 2
 406 262 l 2
 406 294 406 332 386 360 c 0
 364 390 322 406 286 406 c 0
 250 406 210 394 188 364 c 0
 176 346 174 326 174 304 c 2
 174 100 l 2
 174 96 172 90 172 86 c 0
 172 46 176 28 212 0 c 1
 44 0 l 1
 80 28 82 48 82 86 c 2
 82 380 l 2
 82 418 80 440 44 468 c 1
 108 468 l 2
 130 468 152 470 168 486 c 1
 168 402 l 1
 210 450 254 480 318 480 c 0
 374 480 436 458 470 412 c 0
 494 378 496 328 496 288 c 2
 496 100 l 2
 496 96 494 90 494 86 c 0
 494 46 498 28 534 0 c 1
EndSplineSet
Validated: 1
EndChar

StartChar: Obreve
Encoding: 334 334 268
Width: 826
Flags: HW
HStem: -18 71 684 71
VStem: 40 114<252 422> 782 114
LayerCount: 2
Fore
SplineSet
576 867 m 5
 412 712 l 5
 245 867 l 5
 307 865 361 839 412 806 c 5
 462 837 516 865 576 867 c 5
782 334 m 0
 782 98 576 -18 404 -18 c 0
 296 -18 40 58 40 336 c 0
 40 508 184 684 418 684 c 0
 598 684 782 564 782 334 c 0
668 326 m 0
 668 516 532 612 410 612 c 0
 280 612 154 526 154 338 c 0
 154 166 286 56 408 56 c 0
 570 56 668 168 668 326 c 0
EndSplineSet
Validated: 1
EndChar

StartChar: obreve
Encoding: 335 335 269
Width: 606
Flags: HW
HStem: -14 71 482 71
VStem: 40 102<191 293 191 306> 560 102
LayerCount: 2
Fore
SplineSet
470 684 m 5
 306 529 l 5
 139 684 l 5
 201 682 255 656 306 623 c 5
 356 654 410 682 470 684 c 5
560 232 m 0
 560 72 418 -14 296 -14 c 0
 158 -14 40 86 40 230 c 0
 40 382 162 482 308 482 c 0
 436 482 560 388 560 232 c 0
458 212 m 0
 458 310 410 414 298 414 c 0
 204 414 142 338 142 248 c 0
 142 134 216 54 302 54 c 0
 384 54 458 116 458 212 c 0
EndSplineSet
Validated: 1
EndChar

StartChar: Racute
Encoding: 340 340 270
Width: 616
Flags: HW
HStem: -6 20 668 64
VStem: 98 102<127 130 127 130 130 560 560 572> 508 114
LayerCount: 2
Fore
SplineSet
415 799 m 5
 139 717 l 5
 359 873 l 5
 415 799 l 5
652 0 m 1
 622 -2 l 2
 604 -4 586 -6 568 -6 c 0
 530 -6 502 0 472 24 c 0
 416 68 348 164 306 222 c 0
 276 262 248 304 224 348 c 1
 306 362 394 398 394 494 c 0
 394 526 378 604 264 604 c 0
 242 604 222 602 200 598 c 1
 200 130 l 2
 200 124 198 114 198 108 c 0
 198 84 202 56 212 36 c 0
 218 20 230 8 246 0 c 1
 54 0 l 1
 70 10 82 22 90 40 c 0
 96 60 98 80 98 102 c 2
 98 130 l 1
 98 560 l 2
 98 584 96 612 88 632 c 0
 80 650 68 660 54 668 c 1
 294 668 l 2
 404 668 508 616 508 504 c 0
 508 378 368 334 342 326 c 1
 448 192 l 2
 502 124 562 52 640 8 c 1
 652 0 l 1
EndSplineSet
Validated: 1
EndChar

StartChar: racute
Encoding: 341 341 271
Width: 366
Flags: HW
HStem: 0 20 480 80
VStem: 82 90<86 88 66 380>
LayerCount: 2
Fore
SplineSet
344 619 m 5
 68 537 l 5
 288 693 l 5
 344 619 l 5
330 384 m 1
 316 396 298 400 280 400 c 0
 248 400 216 386 196 362 c 0
 176 336 174 300 174 268 c 2
 174 100 l 2
 174 96 172 90 172 86 c 0
 172 46 176 28 212 0 c 1
 44 0 l 1
 80 28 82 48 82 86 c 2
 82 380 l 2
 82 418 80 440 44 468 c 1
 114 468 l 2
 136 468 158 470 174 486 c 1
 174 404 l 1
 196 446 240 480 292 480 c 0
 304 480 318 480 330 478 c 1
 330 384 l 1
EndSplineSet
Validated: 1
EndChar

StartChar: Rcaron
Encoding: 344 344 272
Width: 616
Flags: HW
HStem: -6 20 668 64
VStem: 98 102<127 130 127 130 130 560 560 572> 508 114
LayerCount: 2
Fore
SplineSet
426 867 m 5
 262 712 l 5
 95 867 l 5
 157 865 211 839 262 806 c 5
 312 837 366 865 426 867 c 5
652 0 m 1
 622 -2 l 2
 604 -4 586 -6 568 -6 c 0
 530 -6 502 0 472 24 c 0
 416 68 348 164 306 222 c 0
 276 262 248 304 224 348 c 1
 306 362 394 398 394 494 c 0
 394 526 378 604 264 604 c 0
 242 604 222 602 200 598 c 1
 200 130 l 2
 200 124 198 114 198 108 c 0
 198 84 202 56 212 36 c 0
 218 20 230 8 246 0 c 1
 54 0 l 1
 70 10 82 22 90 40 c 0
 96 60 98 80 98 102 c 2
 98 130 l 1
 98 560 l 2
 98 584 96 612 88 632 c 0
 80 650 68 660 54 668 c 1
 294 668 l 2
 404 668 508 616 508 504 c 0
 508 378 368 334 342 326 c 1
 448 192 l 2
 502 124 562 52 640 8 c 1
 652 0 l 1
EndSplineSet
Validated: 1
EndChar

StartChar: rcaron
Encoding: 345 345 273
Width: 366
Flags: HW
HStem: 0 20 480 80
VStem: 82 90<86 88 66 380>
LayerCount: 2
Fore
SplineSet
345 684 m 5
 181 529 l 5
 14 684 l 5
 76 682 130 656 181 623 c 5
 231 654 285 682 345 684 c 5
330 384 m 1
 316 396 298 400 280 400 c 0
 248 400 216 386 196 362 c 0
 176 336 174 300 174 268 c 2
 174 100 l 2
 174 96 172 90 172 86 c 0
 172 46 176 28 212 0 c 1
 44 0 l 1
 80 28 82 48 82 86 c 2
 82 380 l 2
 82 418 80 440 44 468 c 1
 114 468 l 2
 136 468 158 470 174 486 c 1
 174 404 l 1
 196 446 240 480 292 480 c 0
 304 480 318 480 330 478 c 1
 330 384 l 1
EndSplineSet
Validated: 1
EndChar

StartChar: sacute
Encoding: 347 347 274
Width: 450
Flags: HW
HStem: -14 64<182 237 182 256> 482 55
VStem: 56 90 424 96
LayerCount: 2
Fore
SplineSet
421 619 m 5
 145 537 l 5
 365 693 l 5
 421 619 l 5
424 136 m 0
 424 34 302 -14 210 -14 c 0
 120 -14 78 8 64 12 c 1
 30 112 l 1
 86 78 148 50 216 50 c 0
 258 50 328 66 328 120 c 0
 328 222 56 192 56 346 c 0
 56 452 168 482 256 482 c 0
 294 482 332 478 368 468 c 1
 368 382 l 1
 332 404 290 422 248 422 c 0
 212 422 150 412 150 368 c 0
 150 266 424 316 424 136 c 0
EndSplineSet
Validated: 1
EndChar

StartChar: Sacute
Encoding: 346 346 275
Width: 564
Flags: HW
HStem: -18 80 684 71
VStem: 54 114<451 553 451 559> 520 114
LayerCount: 2
Fore
SplineSet
421 799 m 5
 145 717 l 5
 365 873 l 5
 421 799 l 5
520 190 m 0
 520 62 378 -18 260 -18 c 0
 194 -18 130 -8 66 14 c 1
 36 140 l 1
 104 86 180 60 266 60 c 0
 322 60 410 92 410 162 c 0
 410 322 54 290 54 506 c 0
 54 612 148 684 304 684 c 0
 356 684 410 676 462 662 c 1
 462 546 l 1
 420 588 360 612 302 612 c 0
 244 612 168 588 168 518 c 0
 168 384 520 384 520 190 c 0
EndSplineSet
Validated: 1
EndChar

StartChar: Scircumflex
Encoding: 348 348 276
Width: 564
Flags: HW
HStem: -18 80 684 71
VStem: 54 114<451 553 451 559> 520 114
LayerCount: 2
Fore
SplineSet
441 714 m 5
 381 716 327 744 277 776 c 5
 225 742 171 716 109 714 c 5
 277 868 l 5
 441 714 l 5
520 190 m 0
 520 62 378 -18 260 -18 c 0
 194 -18 130 -8 66 14 c 1
 36 140 l 1
 104 86 180 60 266 60 c 0
 322 60 410 92 410 162 c 0
 410 322 54 290 54 506 c 0
 54 612 148 684 304 684 c 0
 356 684 410 676 462 662 c 1
 462 546 l 1
 420 588 360 612 302 612 c 0
 244 612 168 588 168 518 c 0
 168 384 520 384 520 190 c 0
EndSplineSet
Validated: 1
EndChar

StartChar: scircumflex
Encoding: 349 349 277
Width: 450
Flags: HW
HStem: -14 64<182 237 182 256> 482 55
VStem: 56 90 424 96
LayerCount: 2
Fore
SplineSet
382 537 m 5
 322 539 268 567 218 599 c 5
 166 565 112 539 50 537 c 5
 218 691 l 5
 382 537 l 5
424 136 m 0
 424 34 302 -14 210 -14 c 0
 120 -14 78 8 64 12 c 1
 30 112 l 1
 86 78 148 50 216 50 c 0
 258 50 328 66 328 120 c 0
 328 222 56 192 56 346 c 0
 56 452 168 482 256 482 c 0
 294 482 332 478 368 468 c 1
 368 382 l 1
 332 404 290 422 248 422 c 0
 212 422 150 412 150 368 c 0
 150 266 424 316 424 136 c 0
EndSplineSet
Validated: 1
EndChar

StartChar: Tcaron
Encoding: 356 356 278
Width: 522
Flags: HW
HStem: 0 20 668 71
VStem: 206 102<102 120 120 586>
LayerCount: 2
Fore
SplineSet
426 867 m 5
 262 712 l 5
 95 867 l 5
 157 865 211 839 262 806 c 5
 312 837 366 865 426 867 c 5
524 674 m 1
 490 554 l 1
 472 590 432 592 394 592 c 0
 366 592 338 590 308 586 c 1
 308 120 l 2
 308 68 316 30 362 0 c 1
 160 0 l 1
 178 10 190 22 198 40 c 0
 204 60 206 82 206 102 c 2
 206 586 l 1
 174 590 140 592 108 592 c 0
 82 592 52 588 28 576 c 0
 16 570 4 562 -8 554 c 1
 30 674 l 1
 48 668 66 668 82 668 c 2
 488 668 l 2
 500 670 512 670 524 674 c 1
EndSplineSet
Validated: 1
EndChar

StartChar: tcaron
Encoding: 357 357 279
Width: 466
Flags: HW
HStem: 397 21G
VStem: 100 90<184 186 186 402>
LayerCount: 2
Fore
SplineSet
458 668 m 1
 442 400 l 1
 374 400 l 1
 358 668 l 1
 458 668 l 1
328 66 m 1
 276 -8 l 1
 266 -10 256 -14 246 -14 c 0
 206 -14 164 6 136 34 c 0
 102 68 98 116 98 162 c 0
 98 166 100 174 100 178 c 2
 100 402 l 1
 30 402 l 1
 30 438 l 1
 120 450 152 524 152 606 c 2
 152 618 l 1
 190 618 l 1
 190 468 l 1
 270 468 l 2
 276 468 282 466 288 466 c 0
 300 466 318 470 328 474 c 1
 328 382 l 1
 310 400 290 402 266 402 c 2
 190 402 l 1
 190 186 l 2
 190 182 188 174 188 170 c 0
 188 144 192 114 208 94 c 0
 226 70 256 56 284 56 c 0
 300 56 314 60 328 66 c 1
EndSplineSet
Validated: 1
EndChar

StartChar: ubreve
Encoding: 365 365 280
Width: 576
Flags: HW
HStem: -14 80<269 288> 486 20
VStem: 80 90<187 204 204 368 368 392> 494 90
LayerCount: 2
Fore
SplineSet
435 684 m 5
 271 529 l 5
 104 684 l 5
 166 682 220 656 271 623 c 5
 321 654 375 682 435 684 c 5
532 0 m 1
 406 0 l 1
 406 66 l 1
 364 10 322 -14 254 -14 c 0
 202 -14 142 10 110 56 c 0
 84 94 80 140 80 186 c 2
 80 368 l 2
 80 416 80 436 40 468 c 1
 110 468 l 2
 132 468 154 470 170 486 c 1
 170 204 l 2
 170 170 174 132 196 104 c 0
 218 76 252 66 286 66 c 0
 358 66 402 116 402 186 c 2
 402 380 l 2
 402 418 400 440 364 468 c 1
 434 468 l 2
 456 468 478 470 494 486 c 1
 494 100 l 2
 494 96 492 90 492 86 c 0
 492 46 496 28 532 0 c 1
EndSplineSet
Validated: 1
EndChar

StartChar: uring
Encoding: 367 367 281
Width: 576
Flags: HW
HStem: -14 80<269 288> 486 20
VStem: 80 90<187 204 204 368 368 392> 494 90
LayerCount: 2
Fore
SplineSet
353 631 m 4x36
 353 578 308 534 256 534 c 4
 203 534 159 578 159 631 c 4
 159 684 203 728 256 728 c 4
 309 728 353 684 353 631 c 4x36
311 630 m 4
 311 660 286 684 256 684 c 4
 227 684 202 660 202 630 c 4
 202 600 227 576 256 576 c 4
 286 576 311 600 311 630 c 4
532 0 m 1
 406 0 l 1
 406 66 l 1
 364 10 322 -14 254 -14 c 0
 202 -14 142 10 110 56 c 0
 84 94 80 140 80 186 c 2
 80 368 l 2
 80 416 80 436 40 468 c 1
 110 468 l 2
 132 468 154 470 170 486 c 1
 170 204 l 2
 170 170 174 132 196 104 c 0
 218 76 252 66 286 66 c 0
 358 66 402 116 402 186 c 2
 402 380 l 2
 402 418 400 440 364 468 c 1
 434 468 l 2
 456 468 478 470 494 486 c 1
 494 100 l 2
 494 96 492 90 492 86 c 0
 492 46 496 28 532 0 c 1
EndSplineSet
Validated: 1
EndChar

StartChar: Ubreve
Encoding: 364 364 282
Width: 732
Flags: HW
HStem: -18 71 666 20
VStem: 96 102<242 536> 630 102
LayerCount: 2
Fore
SplineSet
506 867 m 5
 342 712 l 5
 175 867 l 5
 237 865 291 839 342 806 c 5
 392 837 446 865 506 867 c 5
674 0 m 1
 528 0 l 1
 528 68 l 1
 482 8 402 -18 330 -18 c 0
 202 -18 96 48 96 242 c 2
 96 556 l 2
 96 580 94 612 84 632 c 0
 78 648 66 658 50 666 c 1
 242 666 l 1
 226 658 214 646 206 628 c 0
 200 608 196 584 196 562 c 0
 196 554 198 544 198 536 c 2
 198 242 l 2
 198 80 310 58 358 58 c 0
 416 58 528 84 528 208 c 2
 528 536 l 2
 528 568 528 604 516 632 c 0
 510 648 498 658 482 666 c 1
 674 666 l 1
 658 658 646 646 638 628 c 0
 632 608 628 586 628 564 c 0
 628 556 630 546 630 536 c 2
 630 130 l 2
 630 124 628 114 628 106 c 0
 628 82 632 56 640 34 c 0
 648 18 660 8 674 0 c 1
EndSplineSet
Validated: 1
EndChar

StartChar: Uring
Encoding: 366 366 283
Width: 732
Flags: HW
HStem: -18 71 666 20
VStem: 96 102<242 536> 630 102
LayerCount: 2
Fore
SplineSet
446 811 m 4
 446 758 401 714 349 714 c 4
 296 714 252 758 252 811 c 4
 252 864 296 908 349 908 c 4
 402 908 446 864 446 811 c 4
404 810 m 4
 404 840 379 864 349 864 c 4
 320 864 295 840 295 810 c 4
 295 780 320 756 349 756 c 4
 379 756 404 780 404 810 c 4
674 0 m 1
 528 0 l 1
 528 68 l 1
 482 8 402 -18 330 -18 c 0
 202 -18 96 48 96 242 c 2
 96 556 l 2
 96 580 94 612 84 632 c 0
 78 648 66 658 50 666 c 1
 242 666 l 1
 226 658 214 646 206 628 c 0
 200 608 196 584 196 562 c 0
 196 554 198 544 198 536 c 2
 198 242 l 2
 198 80 310 58 358 58 c 0
 416 58 528 84 528 208 c 2
 528 536 l 2
 528 568 528 604 516 632 c 0
 510 648 498 658 482 666 c 1
 674 666 l 1
 658 658 646 646 638 628 c 0
 632 608 628 586 628 564 c 0
 628 556 630 546 630 536 c 2
 630 130 l 2
 630 124 628 114 628 106 c 0
 628 82 632 56 640 34 c 0
 648 18 660 8 674 0 c 1
EndSplineSet
Validated: 1
EndChar

StartChar: wcircumflex
Encoding: 373 373 284
Width: 836
Flags: HW
HStem: 486 20
VStem: 476 102
LayerCount: 2
Fore
SplineSet
572 537 m 5
 512 539 458 567 408 599 c 5
 356 565 302 539 240 537 c 5
 408 691 l 5
 572 537 l 5
810 468 m 1
 608 -28 l 1
 550 4 532 22 510 84 c 2
 418 334 l 1
 280 -28 l 1
 220 4 198 20 174 84 c 2
 52 404 l 2
 42 430 26 450 6 468 c 1
 66 468 l 2
 88 468 108 472 128 486 c 1
 128 468 132 450 138 434 c 2
 260 112 l 1
 358 368 l 2
 364 386 372 406 372 426 c 0
 372 446 358 456 344 468 c 1
 476 468 l 1
 476 460 l 2
 476 444 480 430 486 416 c 2
 594 112 l 1
 694 368 l 2
 700 382 706 398 708 416 c 2
 708 418 l 2
 708 438 690 456 674 468 c 1
 810 468 l 1
EndSplineSet
Validated: 1
EndChar

StartChar: Wcircumflex
Encoding: 372 372 285
Width: 972
Flags: HW
HStem: 668 20
VStem: 548 102
LayerCount: 2
Fore
SplineSet
641 714 m 5
 581 716 527 744 477 776 c 5
 425 742 371 716 309 714 c 5
 477 868 l 5
 641 714 l 5
950 668 m 1
 736 -28 l 1
 700 -4 l 2
 638 38 630 54 606 124 c 2
 492 484 l 1
 334 -28 l 1
 320 -18 304 -6 288 4 c 0
 234 42 222 62 204 124 c 2
 76 522 l 2
 58 576 40 636 -6 668 c 1
 142 668 l 1
 142 660 l 2
 142 640 146 624 152 608 c 2
 306 124 l 1
 428 522 l 2
 436 546 444 576 444 602 c 0
 444 632 432 652 408 668 c 1
 552 668 l 1
 550 664 550 660 550 658 c 0
 550 654 548 646 548 642 c 0
 548 620 556 598 562 578 c 2
 708 128 l 1
 826 510 l 2
 834 536 846 566 846 594 c 0
 846 630 826 656 794 668 c 1
 950 668 l 1
EndSplineSet
Validated: 1
EndChar

StartChar: Ycircumflex
Encoding: 374 374 286
Width: 616
Flags: HW
HStem: 0 20 668 20
VStem: 362 102
LayerCount: 2
Fore
SplineSet
461 714 m 5
 401 716 347 744 297 776 c 5
 245 742 191 716 129 714 c 5
 297 868 l 5
 461 714 l 5
610 668 m 1
 362 292 l 1
 362 120 l 2
 362 62 368 38 412 0 c 1
 216 0 l 1
 232 10 244 22 250 40 c 0
 260 68 260 100 260 130 c 2
 260 292 l 1
 84 574 l 2
 58 616 38 640 -6 668 c 1
 108 668 l 2
 126 668 146 666 156 650 c 2
 324 374 l 1
 456 574 l 2
 464 586 470 602 470 620 c 0
 470 640 452 658 434 668 c 1
 610 668 l 1
EndSplineSet
Validated: 1
EndChar

StartChar: ycircumflex
Encoding: 375 375 287
Width: 576
Flags: HW
HStem: -210 71 468 20
LayerCount: 2
Fore
SplineSet
442 537 m 5
 382 539 328 567 278 599 c 5
 226 565 172 539 110 537 c 5
 278 691 l 5
 442 537 l 5
546 468 m 1
 330 -48 l 2
 312 -92 266 -210 120 -210 c 0
 76 -210 34 -200 -8 -184 c 1
 84 -118 l 1
 100 -128 120 -136 140 -136 c 0
 206 -136 240 -72 260 -18 c 2
 272 10 l 1
 260 22 l 2
 240 42 230 60 218 86 c 2
 84 378 l 2
 66 418 52 448 8 468 c 1
 108 468 l 2
 132 468 146 468 158 438 c 2
 312 90 l 1
 420 360 l 2
 428 380 434 402 434 424 c 0
 434 444 422 454 404 468 c 1
 546 468 l 1
EndSplineSet
Validated: 1
EndChar

StartChar: Zacute
Encoding: 377 377 288
Width: 638
Flags: HW
HStem: 0 71 668 71
LayerCount: 2
Fore
SplineSet
465 799 m 5
 189 717 l 5
 409 873 l 5
 465 799 l 5
612 128 m 1
 560 0 l 1
 24 0 l 1
 392 584 l 1
 332 590 272 594 212 594 c 0
 152 594 118 582 66 552 c 1
 116 668 l 1
 564 668 l 1
 200 86 l 1
 268 80 336 74 406 74 c 0
 452 74 500 80 544 96 c 0
 568 106 590 116 612 128 c 1
EndSplineSet
Validated: 1
EndChar

StartChar: zacute
Encoding: 378 378 289
Width: 522
Flags: HW
HStem: 0 71 397 21G
LayerCount: 2
Fore
SplineSet
421 619 m 5
 145 537 l 5
 365 693 l 5
 421 619 l 5
508 112 m 1
 452 0 l 1
 22 0 l 1
 302 392 l 1
 274 396 246 398 218 398 c 0
 160 398 102 398 52 364 c 1
 102 468 l 1
 462 468 l 1
 196 80 l 1
 244 74 294 72 344 72 c 0
 406 72 454 80 508 112 c 1
EndSplineSet
Validated: 1
EndChar

StartChar: zdotaccent
Encoding: 380 380 290
Width: 522
Flags: HW
HStem: 0 71 397 21G
LayerCount: 2
Fore
SplineSet
353 631 m 4x36
 353 578 308 534 256 534 c 4
 203 534 159 578 159 631 c 4
 159 684 203 728 256 728 c 4
 309 728 353 684 353 631 c 4x36
508 112 m 1
 452 0 l 1
 22 0 l 1
 302 392 l 1
 274 396 246 398 218 398 c 0
 160 398 102 398 52 364 c 1
 102 468 l 1
 462 468 l 1
 196 80 l 1
 244 74 294 72 344 72 c 0
 406 72 454 80 508 112 c 1
EndSplineSet
Validated: 1
EndChar

StartChar: Zdotaccent
Encoding: 379 379 291
Width: 638
Flags: HW
HStem: 0 71 668 71
LayerCount: 2
Fore
SplineSet
446 811 m 4
 446 758 401 714 349 714 c 4
 296 714 252 758 252 811 c 4
 252 864 296 908 349 908 c 4
 402 908 446 864 446 811 c 4
612 128 m 1
 560 0 l 1
 24 0 l 1
 392 584 l 1
 332 590 272 594 212 594 c 0
 152 594 118 582 66 552 c 1
 116 668 l 1
 564 668 l 1
 200 86 l 1
 268 80 336 74 406 74 c 0
 452 74 500 80 544 96 c 0
 568 106 590 116 612 128 c 1
EndSplineSet
Validated: 1
EndChar

StartChar: Aogonek
Encoding: 260 260 292
Width: 742
Flags: HW
HStem: 0 20 252 64<252 458 252 484 228 458> 668 20
LayerCount: 2
Fore
SplineSet
742 -120 m 5
 700 -178 l 5
 688 -178 l 6
 645 -178 604 -150 604 -105 c 4
 604 -60 630 -27 661 0 c 5
 731 0 l 5
 707 -21 677 -49 677 -84 c 4
 677 -112 707 -120 730 -120 c 6
 742 -120 l 5
732 0 m 1
 524 0 l 1
 538 8 560 18 560 36 c 0
 560 56 550 78 544 96 c 2
 484 252 l 1
 228 252 l 1
 170 96 l 2
 164 82 158 64 158 46 c 0
 158 24 176 10 196 0 c 1
 10 0 l 1
 66 34 80 78 104 136 c 2
 282 582 l 2
 288 598 294 614 294 632 c 0
 294 650 278 660 262 668 c 1
 422 668 l 1
 638 136 l 2
 660 80 678 34 732 0 c 1
458 316 m 1
 356 582 l 1
 252 316 l 1
 458 316 l 1
EndSplineSet
Validated: 5
EndChar

StartChar: aogonek
Encoding: 261 261 293
Width: 534
Flags: HW
HStem: -14 71 480 71
VStem: 34 102<108 160 108 163> 430 90
LayerCount: 2
Fore
SplineSet
482 -114 m 5
 440 -172 l 5
 428 -172 l 6
 385 -172 344 -144 344 -99 c 4
 344 -54 370 -21 401 6 c 5
 471 6 l 5
 447 -15 417 -43 417 -78 c 4
 417 -106 447 -114 470 -114 c 6
 482 -114 l 5
516 60 m 1
 472 -6 l 1
 440 -4 408 -2 380 16 c 0
 340 38 340 82 340 124 c 2
 340 254 l 1
 314 242 290 234 262 228 c 2
 210 216 l 2
 170 206 136 182 136 138 c 0
 136 78 190 56 242 56 c 0
 268 56 294 62 320 68 c 1
 260 -8 l 1
 240 -12 218 -14 196 -14 c 0
 106 -14 34 52 34 144 c 0
 34 182 56 222 90 240 c 0
 182 294 338 268 338 346 c 0
 338 392 286 412 246 412 c 0
 194 412 150 396 102 374 c 1
 170 474 l 1
 196 480 222 480 248 480 c 0
 414 480 430 386 430 292 c 2
 430 162 l 2
 430 160 428 152 428 148 c 0
 428 122 432 96 454 78 c 0
 472 64 494 60 516 60 c 1
EndSplineSet
Validated: 5
EndChar

StartChar: Eogonek
Encoding: 280 280 294
Width: 544
Flags: HW
HStem: 0 71 400 71 668 71
VStem: 98 102<102 326 400 560 560 572>
LayerCount: 2
Fore
SplineSet
482 -120 m 5
 440 -178 l 5
 428 -178 l 6
 385 -178 344 -150 344 -105 c 4
 344 -60 370 -27 401 0 c 5
 471 0 l 5
 447 -21 417 -49 417 -84 c 4
 417 -112 447 -120 470 -120 c 6
 482 -120 l 5
522 132 m 1
 476 0 l 1
 54 0 l 1
 70 10 82 22 90 40 c 0
 96 60 98 82 98 102 c 2
 98 560 l 2
 98 584 96 612 88 632 c 0
 80 648 68 660 54 668 c 1
 390 668 l 2
 404 668 416 668 428 674 c 1
 428 556 l 1
 390 592 350 596 300 596 c 0
 266 596 234 594 200 588 c 1
 200 400 l 1
 336 400 l 2
 348 400 358 400 370 406 c 1
 370 298 l 1
 352 324 320 326 290 326 c 2
 200 326 l 1
 200 86 l 1
 242 78 282 74 324 74 c 0
 396 74 464 88 522 132 c 1
EndSplineSet
Validated: 5
EndChar

StartChar: eogonek
Encoding: 281 281 295
Width: 564
Flags: HW
HStem: -14 71 308 64 480 55
VStem: 38 114<159 308>
LayerCount: 2
Fore
SplineSet
362 -120 m 5
 320 -178 l 5
 308 -178 l 6
 265 -178 224 -150 224 -105 c 4
 224 -60 250 -27 281 0 c 5
 351 0 l 5
 327 -21 297 -49 297 -84 c 4
 297 -112 327 -120 350 -120 c 6
 362 -120 l 5
520 108 m 1
 470 12 l 1
 422 -6 374 -14 324 -14 c 0
 164 -14 38 80 38 238 c 0
 38 368 142 480 278 480 c 0
 436 480 520 380 520 244 c 1
 148 244 l 1
 148 156 210 58 346 58 c 0
 410 58 466 72 520 108 c 1
414 308 m 1
 400 380 358 420 282 420 c 0
 216 420 166 372 152 308 c 1
 414 308 l 1
EndSplineSet
Validated: 5
EndChar

StartChar: Iogonek
Encoding: 302 302 296
Width: 304
Flags: HW
HStem: 0 20 668 20
VStem: 100 102<127 130 130 538>
LayerCount: 2
Fore
SplineSet
212 -120 m 5
 170 -178 l 5
 158 -178 l 6
 115 -178 74 -150 74 -105 c 4
 74 -60 100 -27 131 0 c 5
 201 0 l 5
 177 -21 147 -49 147 -84 c 4
 147 -112 177 -120 200 -120 c 6
 212 -120 l 5
246 0 m 1
 54 0 l 1
 72 10 84 22 90 40 c 0
 98 60 100 84 100 106 c 2
 100 558 l 2
 100 582 98 612 88 632 c 0
 82 648 70 660 54 668 c 1
 246 668 l 1
 230 658 218 646 210 628 c 0
 204 608 200 582 200 562 c 0
 200 554 202 544 202 538 c 2
 202 130 l 2
 202 124 200 114 200 106 c 0
 200 82 204 56 212 36 c 0
 220 18 232 8 246 0 c 1
EndSplineSet
Validated: 5
EndChar

StartChar: iogonek
Encoding: 303 303 297
Width: 262
Flags: HW
HStem: 0 20 654 126
VStem: 82 102
LayerCount: 2
Fore
SplineSet
192 -120 m 5
 150 -178 l 5
 138 -178 l 6
 95 -178 54 -150 54 -105 c 4
 54 -60 80 -27 111 0 c 5
 181 0 l 5
 157 -21 127 -49 127 -84 c 4
 127 -112 157 -120 180 -120 c 6
 192 -120 l 5
188 592 m 0
 188 558 160 528 126 528 c 0
 92 528 62 558 62 592 c 0
 62 626 92 654 126 654 c 0
 160 654 188 626 188 592 c 0
212 0 m 1
 44 0 l 1
 80 28 82 48 82 86 c 2
 82 380 l 2
 82 418 80 440 44 468 c 1
 114 468 l 2
 136 468 158 470 174 486 c 1
 174 100 l 2
 174 96 172 90 172 86 c 0
 172 46 176 28 212 0 c 1
EndSplineSet
Validated: 5
EndChar

StartChar: Eng
Encoding: 330 330 298
Width: 774
Flags: HW
HStem: 668 20
VStem: 98 77 666 77
LayerCount: 2
Fore
SplineSet
677 -115 m 5
 635 -173 l 5
 623 -173 l 6
 580 -173 539 -145 539 -100 c 4
 539 -55 565 -22 596 5 c 5
 666 5 l 5
 642 -16 612 -44 612 -79 c 4
 612 -107 642 -115 665 -115 c 6
 677 -115 l 5
720 668 m 1
 674 638 666 600 666 548 c 2
 666 -34 l 1
 606 -12 568 24 528 74 c 2
 172 524 l 1
 172 120 l 2
 172 68 180 30 226 0 c 1
 46 0 l 1
 92 30 98 68 98 120 c 2
 98 548 l 2
 98 600 92 638 46 668 c 1
 194 668 l 1
 200 654 210 642 218 630 c 2
 592 152 l 1
 592 548 l 2
 592 600 586 638 540 668 c 1
 720 668 l 1
EndSplineSet
Validated: 5
EndChar

StartChar: eng
Encoding: 331 331 299
Width: 586
Flags: HW
HStem: 0 20 480 71
VStem: 82 90<86 88 66 380> 494 90
LayerCount: 2
Fore
SplineSet
502 -120 m 5
 460 -178 l 5
 448 -178 l 6
 405 -178 364 -150 364 -105 c 4
 364 -60 390 -27 421 0 c 5
 491 0 l 5
 467 -21 437 -49 437 -84 c 4
 437 -112 467 -120 490 -120 c 6
 502 -120 l 5
534 0 m 1
 368 0 l 1
 404 28 406 48 406 86 c 2
 406 262 l 2
 406 294 406 332 386 360 c 0
 364 390 322 406 286 406 c 0
 250 406 210 394 188 364 c 0
 176 346 174 326 174 304 c 2
 174 100 l 2
 174 96 172 90 172 86 c 0
 172 46 176 28 212 0 c 1
 44 0 l 1
 80 28 82 48 82 86 c 2
 82 380 l 2
 82 418 80 440 44 468 c 1
 108 468 l 2
 130 468 152 470 168 486 c 1
 168 402 l 1
 210 450 254 480 318 480 c 0
 374 480 436 458 470 412 c 0
 494 378 496 328 496 288 c 2
 496 100 l 2
 496 96 494 90 494 86 c 0
 494 46 498 28 534 0 c 1
EndSplineSet
Validated: 5
EndChar

StartChar: Scedilla
Encoding: 350 350 300
Width: 564
Flags: HW
HStem: -18 80 684 71
VStem: 54 114<451 553 451 559> 520 114
LayerCount: 2
Fore
SplineSet
332 -120 m 5
 290 -178 l 5
 278 -178 l 6
 235 -178 194 -150 194 -105 c 4
 194 -60 220 -27 251 0 c 5
 321 0 l 5
 297 -21 267 -49 267 -84 c 4
 267 -112 297 -120 320 -120 c 6
 332 -120 l 5
520 190 m 0
 520 62 378 -18 260 -18 c 0
 194 -18 130 -8 66 14 c 1
 36 140 l 1
 104 86 180 60 266 60 c 0
 322 60 410 92 410 162 c 0
 410 322 54 290 54 506 c 0
 54 612 148 684 304 684 c 0
 356 684 410 676 462 662 c 1
 462 546 l 1
 420 588 360 612 302 612 c 0
 244 612 168 588 168 518 c 0
 168 384 520 384 520 190 c 0
EndSplineSet
Validated: 5
EndChar

StartChar: scedilla
Encoding: 351 351 301
Width: 450
Flags: HW
HStem: -14 64<182 237 182 256> 482 55
VStem: 56 90 424 96
LayerCount: 2
Fore
SplineSet
272 -120 m 5
 230 -178 l 5
 218 -178 l 6
 175 -178 134 -150 134 -105 c 4
 134 -60 160 -27 191 0 c 5
 261 0 l 5
 237 -21 207 -49 207 -84 c 4
 207 -112 237 -120 260 -120 c 6
 272 -120 l 5
424 136 m 0
 424 34 302 -14 210 -14 c 0
 120 -14 78 8 64 12 c 1
 30 112 l 1
 86 78 148 50 216 50 c 0
 258 50 328 66 328 120 c 0
 328 222 56 192 56 346 c 0
 56 452 168 482 256 482 c 0
 294 482 332 478 368 468 c 1
 368 382 l 1
 332 404 290 422 248 422 c 0
 212 422 150 412 150 368 c 0
 150 266 424 316 424 136 c 0
EndSplineSet
Validated: 5
EndChar

StartChar: Uogonek
Encoding: 370 370 302
Width: 732
Flags: HW
HStem: -18 71 666 20
VStem: 96 102<242 536> 630 102
LayerCount: 2
Fore
SplineSet
412 -120 m 5
 370 -178 l 5
 358 -178 l 6
 315 -178 274 -150 274 -105 c 4
 274 -60 300 -27 331 0 c 5
 401 0 l 5
 377 -21 347 -49 347 -84 c 4
 347 -112 377 -120 400 -120 c 6
 412 -120 l 5
674 0 m 1
 528 0 l 1
 528 68 l 1
 482 8 402 -18 330 -18 c 0
 202 -18 96 48 96 242 c 2
 96 556 l 2
 96 580 94 612 84 632 c 0
 78 648 66 658 50 666 c 1
 242 666 l 1
 226 658 214 646 206 628 c 0
 200 608 196 584 196 562 c 0
 196 554 198 544 198 536 c 2
 198 242 l 2
 198 80 310 58 358 58 c 0
 416 58 528 84 528 208 c 2
 528 536 l 2
 528 568 528 604 516 632 c 0
 510 648 498 658 482 666 c 1
 674 666 l 1
 658 658 646 646 638 628 c 0
 632 608 628 586 628 564 c 0
 628 556 630 546 630 536 c 2
 630 130 l 2
 630 124 628 114 628 106 c 0
 628 82 632 56 640 34 c 0
 648 18 660 8 674 0 c 1
EndSplineSet
Validated: 5
EndChar

StartChar: uogonek
Encoding: 371 371 303
Width: 576
Flags: HW
HStem: -14 80<269 288> 486 20
VStem: 80 90<187 204 204 368 368 392> 494 90
LayerCount: 2
Fore
SplineSet
322 -120 m 5
 280 -178 l 5
 268 -178 l 6
 225 -178 184 -150 184 -105 c 4
 184 -60 210 -27 241 0 c 5
 311 0 l 5
 287 -21 257 -49 257 -84 c 4
 257 -112 287 -120 310 -120 c 6
 322 -120 l 5
532 0 m 1
 406 0 l 1
 406 66 l 1
 364 10 322 -14 254 -14 c 0
 202 -14 142 10 110 56 c 0
 84 94 80 140 80 186 c 2
 80 368 l 2
 80 416 80 436 40 468 c 1
 110 468 l 2
 132 468 154 470 170 486 c 1
 170 204 l 2
 170 170 174 132 196 104 c 0
 218 76 252 66 286 66 c 0
 358 66 402 116 402 186 c 2
 402 380 l 2
 402 418 400 440 364 468 c 1
 434 468 l 2
 456 468 478 470 494 486 c 1
 494 100 l 2
 494 96 492 90 492 86 c 0
 492 46 496 28 532 0 c 1
EndSplineSet
Validated: 5
EndChar

StartChar: uni0122
Encoding: 290 290 304
Width: 762
Flags: HW
HStem: -18 71 684 71
VStem: 40 114<255 418 255 446> 690 102
LayerCount: 2
Fore
SplineSet
478 -82 m 5
 462 -350 l 5
 394 -350 l 5
 378 -82 l 5
 478 -82 l 5
694 14 m 1
 684 12 672 10 660 8 c 0
 594 -6 526 -18 458 -18 c 0
 272 -18 40 76 40 322 c 0
 40 570 256 684 452 684 c 0
 508 684 564 676 618 666 c 1
 618 550 l 1
 600 566 548 612 434 612 c 0
 274 612 154 500 154 336 c 0
 154 174 300 56 456 56 c 0
 520 56 578 72 588 76 c 1
 588 230 l 2
 588 254 586 284 576 306 c 0
 570 322 558 332 542 340 c 1
 694 340 l 1
 690 330 690 280 690 280 c 1
 690 50 l 2
 690 38 690 26 694 14 c 1
EndSplineSet
EndChar

StartChar: uni0123
Encoding: 291 291 305
Width: 606
Flags: HW
HStem: -240 64<258 313 258 343> 26 64 472 71
VStem: 70 102 506 114
LayerCount: 2
Fore
SplineSet
338 788 m 5
 322 520 l 5
 254 520 l 5
 238 788 l 5
 338 788 l 5
594 480 m 1
 566 416 l 2
 562 408 552 404 544 404 c 0
 506 404 470 410 434 416 c 1
 476 386 506 346 506 294 c 0
 506 202 414 154 330 140 c 0
 306 136 248 136 248 110 c 0
 248 90 278 88 290 88 c 2
 334 88 l 2
 468 88 578 44 578 -60 c 0
 578 -206 382 -240 304 -240 c 0
 158 -240 12 -194 12 -88 c 0
 12 -34 64 -14 112 -14 c 0
 132 -14 150 -18 166 -26 c 1
 140 -32 128 -48 128 -76 c 0
 128 -154 228 -176 288 -176 c 0
 338 -176 468 -164 468 -68 c 0
 468 20 334 26 272 26 c 2
 220 26 l 2
 210 24 198 24 188 24 c 0
 152 28 128 58 124 94 c 1
 122 96 l 1
 122 124 184 144 204 152 c 1
 178 154 70 202 70 302 c 0
 70 416 162 480 294 480 c 0
 320 480 346 478 372 476 c 0
 406 474 440 472 476 472 c 0
 514 472 554 476 594 480 c 1
394 302 m 0
 394 364 340 416 276 416 c 0
 222 416 176 382 176 324 c 0
 176 256 232 202 308 202 c 0
 360 202 394 248 394 302 c 0
EndSplineSet
EndChar

StartChar: Idotaccent
Encoding: 304 304 306
Width: 304
Flags: HW
HStem: 0 20 668 20
VStem: 100 102<127 130 130 538>
LayerCount: 2
Fore
SplineSet
243 801 m 4x36
 243 748 198 704 146 704 c 4
 93 704 49 748 49 801 c 4
 49 854 93 898 146 898 c 4
 199 898 243 854 243 801 c 4x36
246 0 m 1
 54 0 l 1
 72 10 84 22 90 40 c 0
 98 60 100 84 100 106 c 2
 100 558 l 2
 100 582 98 612 88 632 c 0
 82 648 70 660 54 668 c 1
 246 668 l 1
 230 658 218 646 210 628 c 0
 204 608 200 582 200 562 c 0
 200 554 202 544 202 538 c 2
 202 130 l 2
 202 124 200 114 200 106 c 0
 200 82 204 56 212 36 c 0
 220 18 232 8 246 0 c 1
EndSplineSet
EndChar

StartChar: uni0136
Encoding: 310 310 307
Width: 638
Flags: HW
HStem: -6 20 668 20
VStem: 98 102<127 130 130 538>
LayerCount: 2
Fore
SplineSet
398 -82 m 5
 382 -350 l 5
 314 -350 l 5
 298 -82 l 5
 398 -82 l 5
652 0 m 1
 620 -4 586 -6 554 -6 c 0
 516 -6 482 6 454 32 c 0
 438 46 426 64 412 82 c 2
 328 196 l 1
 218 348 l 1
 358 534 l 2
 372 554 408 600 408 624 c 0
 408 644 392 658 376 668 c 1
 558 668 l 1
 326 368 l 1
 346 340 l 1
 428 230 l 2
 464 180 502 128 546 84 c 0
 578 52 614 26 652 0 c 1
246 0 m 1
 54 0 l 1
 70 10 82 22 90 40 c 0
 96 60 98 82 98 102 c 2
 98 560 l 2
 98 584 96 612 88 632 c 0
 80 648 68 658 54 668 c 1
 246 668 l 1
 228 658 216 646 210 628 c 0
 200 600 200 566 200 538 c 2
 200 130 l 2
 200 124 198 114 198 108 c 0
 198 84 202 56 212 34 c 0
 218 18 230 8 246 0 c 1
EndSplineSet
EndChar

StartChar: uni0137
Encoding: 311 311 308
Width: 512
Flags: HW
HStem: -4 20
VStem: 80 90<98 100 100 578 578 597>
LayerCount: 2
Fore
SplineSet
328 -82 m 5
 312 -350 l 5
 244 -350 l 5
 228 -82 l 5
 328 -82 l 5
522 0 m 1
 502 -2 482 -4 462 -4 c 0
 364 -4 368 18 288 128 c 2
 200 246 l 2
 196 254 192 256 188 262 c 1
 280 362 l 2
 298 382 324 406 324 432 c 0
 324 448 316 458 306 468 c 1
 460 468 l 1
 290 272 l 1
 304 256 318 240 330 222 c 2
 420 106 l 2
 450 66 480 28 522 0 c 1
210 0 m 1
 40 0 l 1
 78 28 80 46 80 86 c 2
 80 578 l 2
 80 616 78 636 40 664 c 1
 110 664 l 2
 132 664 154 670 170 686 c 1
 170 100 l 2
 170 96 168 88 168 86 c 0
 168 46 172 28 210 0 c 1
EndSplineSet
EndChar

StartChar: uni013B
Encoding: 315 315 309
Width: 534
Flags: HW
HStem: 0 71 668 20
VStem: 98 102<102 538 82 560 82 572>
LayerCount: 2
Fore
SplineSet
348 -82 m 5
 332 -350 l 5
 264 -350 l 5
 248 -82 l 5
 348 -82 l 5
520 134 m 1
 468 0 l 1
 54 0 l 1
 70 10 82 22 90 40 c 0
 96 60 98 82 98 102 c 2
 98 560 l 2
 98 584 96 612 88 632 c 0
 80 648 68 660 54 668 c 1
 246 668 l 1
 228 658 216 646 210 628 c 0
 200 600 200 566 200 538 c 2
 200 82 l 1
 250 76 300 72 350 72 c 0
 390 72 434 84 470 102 c 0
 488 112 504 124 520 134 c 1
EndSplineSet
EndChar

StartChar: uni013C
Encoding: 316 316 310
Width: 252
Flags: HW
HStem: 0 20
VStem: 80 90<98 100 100 578 578 597>
LayerCount: 2
Fore
SplineSet
176 -82 m 5
 160 -350 l 5
 92 -350 l 5
 76 -82 l 5
 176 -82 l 5
210 0 m 1
 40 0 l 1
 78 28 80 50 80 88 c 2
 80 578 l 2
 80 616 78 636 40 664 c 1
 110 664 l 2
 132 664 154 670 170 686 c 1
 170 100 l 2
 170 96 168 88 168 86 c 0
 168 46 172 28 210 0 c 1
EndSplineSet
EndChar

StartChar: uni0145
Encoding: 325 325 311
Width: 774
Flags: HW
HStem: 668 20
VStem: 98 77 666 77
LayerCount: 2
Fore
SplineSet
428 -82 m 5
 412 -350 l 5
 344 -350 l 5
 328 -82 l 5
 428 -82 l 5
720 668 m 1
 674 638 666 600 666 548 c 2
 666 -34 l 1
 606 -12 568 24 528 74 c 2
 172 524 l 1
 172 120 l 2
 172 68 180 30 226 0 c 1
 46 0 l 1
 92 30 98 68 98 120 c 2
 98 548 l 2
 98 600 92 638 46 668 c 1
 194 668 l 1
 200 654 210 642 218 630 c 2
 592 152 l 1
 592 548 l 2
 592 600 586 638 540 668 c 1
 720 668 l 1
EndSplineSet
EndChar

StartChar: uni0146
Encoding: 326 326 312
Width: 586
Flags: HW
HStem: 0 20 480 71
VStem: 82 90<86 88 66 380> 494 90
LayerCount: 2
Fore
SplineSet
346 -82 m 5
 330 -350 l 5
 262 -350 l 5
 246 -82 l 5
 346 -82 l 5
534 0 m 1
 368 0 l 1
 404 28 406 48 406 86 c 2
 406 262 l 2
 406 294 406 332 386 360 c 0
 364 390 322 406 286 406 c 0
 250 406 210 394 188 364 c 0
 176 346 174 326 174 304 c 2
 174 100 l 2
 174 96 172 90 172 86 c 0
 172 46 176 28 212 0 c 1
 44 0 l 1
 80 28 82 48 82 86 c 2
 82 380 l 2
 82 418 80 440 44 468 c 1
 108 468 l 2
 130 468 152 470 168 486 c 1
 168 402 l 1
 210 450 254 480 318 480 c 0
 374 480 436 458 470 412 c 0
 494 378 496 328 496 288 c 2
 496 100 l 2
 496 96 494 90 494 86 c 0
 494 46 498 28 534 0 c 1
EndSplineSet
EndChar

StartChar: ohungarumlaut
Encoding: 337 337 313
Width: 606
Flags: HW
HStem: -14 71 482 71
VStem: 40 102<191 293 191 306> 560 102
LayerCount: 2
Fore
SplineSet
458 798 m 5
 442 530 l 5
 374 530 l 5
 358 798 l 5
 458 798 l 5
258 798 m 5
 242 530 l 5
 174 530 l 5
 158 798 l 5
 258 798 l 5
560 232 m 0
 560 72 418 -14 296 -14 c 0
 158 -14 40 86 40 230 c 0
 40 382 162 482 308 482 c 0
 436 482 560 388 560 232 c 0
458 212 m 0
 458 310 410 414 298 414 c 0
 204 414 142 338 142 248 c 0
 142 134 216 54 302 54 c 0
 384 54 458 116 458 212 c 0
EndSplineSet
EndChar

StartChar: Ohungarumlaut
Encoding: 336 336 314
Width: 826
Flags: HW
HStem: -18 71 684 71
VStem: 40 114<252 422> 782 114
LayerCount: 2
Fore
SplineSet
564 988 m 5
 548 720 l 5
 480 720 l 5
 464 988 l 5
 564 988 l 5
364 988 m 5
 348 720 l 5
 280 720 l 5
 264 988 l 5
 364 988 l 5
782 334 m 0
 782 98 576 -18 404 -18 c 0
 296 -18 40 58 40 336 c 0
 40 508 184 684 418 684 c 0
 598 684 782 564 782 334 c 0
668 326 m 0
 668 516 532 612 410 612 c 0
 280 612 154 526 154 338 c 0
 154 166 286 56 408 56 c 0
 570 56 668 168 668 326 c 0
EndSplineSet
EndChar

StartChar: uni0156
Encoding: 342 342 315
Width: 616
Flags: HW
HStem: -6 20 668 64
VStem: 98 102<127 130 127 130 130 560 560 572> 508 114
LayerCount: 2
Fore
SplineSet
398 -82 m 5
 382 -350 l 5
 314 -350 l 5
 298 -82 l 5
 398 -82 l 5
652 0 m 1
 622 -2 l 2
 604 -4 586 -6 568 -6 c 0
 530 -6 502 0 472 24 c 0
 416 68 348 164 306 222 c 0
 276 262 248 304 224 348 c 1
 306 362 394 398 394 494 c 0
 394 526 378 604 264 604 c 0
 242 604 222 602 200 598 c 1
 200 130 l 2
 200 124 198 114 198 108 c 0
 198 84 202 56 212 36 c 0
 218 20 230 8 246 0 c 1
 54 0 l 1
 70 10 82 22 90 40 c 0
 96 60 98 80 98 102 c 2
 98 130 l 1
 98 560 l 2
 98 584 96 612 88 632 c 0
 80 650 68 660 54 668 c 1
 294 668 l 2
 404 668 508 616 508 504 c 0
 508 378 368 334 342 326 c 1
 448 192 l 2
 502 124 562 52 640 8 c 1
 652 0 l 1
EndSplineSet
EndChar

StartChar: uni0157
Encoding: 343 343 316
Width: 366
Flags: HW
HStem: 0 20 480 80
VStem: 82 90<86 88 66 380>
LayerCount: 2
Fore
SplineSet
176 -82 m 5
 160 -350 l 5
 92 -350 l 5
 76 -82 l 5
 176 -82 l 5
330 384 m 1
 316 396 298 400 280 400 c 0
 248 400 216 386 196 362 c 0
 176 336 174 300 174 268 c 2
 174 100 l 2
 174 96 172 90 172 86 c 0
 172 46 176 28 212 0 c 1
 44 0 l 1
 80 28 82 48 82 86 c 2
 82 380 l 2
 82 418 80 440 44 468 c 1
 114 468 l 2
 136 468 158 470 174 486 c 1
 174 404 l 1
 196 446 240 480 292 480 c 0
 304 480 318 480 330 478 c 1
 330 384 l 1
EndSplineSet
EndChar

StartChar: uni0163
Encoding: 355 355 317
Width: 346
Flags: HW
HStem: 397 21G
VStem: 100 90<184 186 186 402>
LayerCount: 2
Fore
SplineSet
237 -105 m 5
 195 -163 l 5
 183 -163 l 6
 140 -163 99 -135 99 -90 c 4
 99 -45 125 -12 156 15 c 5
 226 15 l 5
 202 -6 172 -34 172 -69 c 4
 172 -97 202 -105 225 -105 c 6
 237 -105 l 5
328 66 m 1
 276 -8 l 1
 266 -10 256 -14 246 -14 c 0
 206 -14 164 6 136 34 c 0
 102 68 98 116 98 162 c 0
 98 166 100 174 100 178 c 2
 100 402 l 1
 30 402 l 1
 30 438 l 1
 120 450 152 524 152 606 c 2
 152 618 l 1
 190 618 l 1
 190 468 l 1
 270 468 l 2
 276 468 282 466 288 466 c 0
 300 466 318 470 328 474 c 1
 328 382 l 1
 310 400 290 402 266 402 c 2
 190 402 l 1
 190 186 l 2
 190 182 188 174 188 170 c 0
 188 144 192 114 208 94 c 0
 226 70 256 56 284 56 c 0
 300 56 314 60 328 66 c 1
EndSplineSet
EndChar

StartChar: uni0162
Encoding: 354 354 318
Width: 522
Flags: HW
HStem: 0 20 668 71
VStem: 206 102<102 120 120 586>
LayerCount: 2
Fore
SplineSet
327 -115 m 5
 285 -173 l 5
 273 -173 l 6
 230 -173 189 -145 189 -100 c 4
 189 -55 215 -22 246 5 c 5
 316 5 l 5
 292 -16 262 -44 262 -79 c 4
 262 -107 292 -115 315 -115 c 6
 327 -115 l 5
524 674 m 1
 490 554 l 1
 472 590 432 592 394 592 c 0
 366 592 338 590 308 586 c 1
 308 120 l 2
 308 68 316 30 362 0 c 1
 160 0 l 1
 178 10 190 22 198 40 c 0
 204 60 206 82 206 102 c 2
 206 586 l 1
 174 590 140 592 108 592 c 0
 82 592 52 588 28 576 c 0
 16 570 4 562 -8 554 c 1
 30 674 l 1
 48 668 66 668 82 668 c 2
 488 668 l 2
 500 670 512 670 524 674 c 1
EndSplineSet
EndChar

StartChar: Utilde
Encoding: 360 360 319
Width: 732
Flags: HWO
HStem: -18 71 666 20
VStem: 96 102<242 536> 630 102
LayerCount: 2
Fore
SplineSet
506 988 m 5
 490 720 l 5
 422 720 l 5
 406 988 l 5
 506 988 l 5
306 988 m 5
 290 720 l 5
 222 720 l 5
 206 988 l 5
 306 988 l 5
674 0 m 1
 528 0 l 1
 528 68 l 1
 482 8 402 -18 330 -18 c 0
 202 -18 96 48 96 242 c 2
 96 556 l 2
 96 580 94 612 84 632 c 0
 78 648 66 658 50 666 c 1
 242 666 l 1
 226 658 214 646 206 628 c 0
 200 608 196 584 196 562 c 0
 196 554 198 544 198 536 c 2
 198 242 l 2
 198 80 310 58 358 58 c 0
 416 58 528 84 528 208 c 2
 528 536 l 2
 528 568 528 604 516 632 c 0
 510 648 498 658 482 666 c 1
 674 666 l 1
 658 658 646 646 638 628 c 0
 632 608 628 586 628 564 c 0
 628 556 630 546 630 536 c 2
 630 130 l 2
 630 124 628 114 628 106 c 0
 628 82 632 56 640 34 c 0
 648 18 660 8 674 0 c 1
EndSplineSet
EndChar

StartChar: utilde
Encoding: 361 361 320
Width: 576
Flags: HW
HStem: -14 80<269 288> 486 20
VStem: 80 90<187 204 204 368 368 392> 494 90
LayerCount: 2
Fore
SplineSet
428 798 m 5
 412 530 l 5
 344 530 l 5
 328 798 l 5
 428 798 l 5
228 798 m 5
 212 530 l 5
 144 530 l 5
 128 798 l 5
 228 798 l 5
532 0 m 1
 406 0 l 1
 406 66 l 1
 364 10 322 -14 254 -14 c 0
 202 -14 142 10 110 56 c 0
 84 94 80 140 80 186 c 2
 80 368 l 2
 80 416 80 436 40 468 c 1
 110 468 l 2
 132 468 154 470 170 486 c 1
 170 204 l 2
 170 170 174 132 196 104 c 0
 218 76 252 66 286 66 c 0
 358 66 402 116 402 186 c 2
 402 380 l 2
 402 418 400 440 364 468 c 1
 434 468 l 2
 456 468 478 470 494 486 c 1
 494 100 l 2
 494 96 492 90 492 86 c 0
 492 46 496 28 532 0 c 1
EndSplineSet
EndChar

StartChar: Uhungarumlaut
Encoding: 368 368 321
Width: 732
Flags: W
HStem: -18 71 666 20
VStem: 96 102<242 536> 630 102
LayerCount: 2
Fore
SplineSet
506 988 m 5
 490 720 l 5
 422 720 l 5
 406 988 l 5
 506 988 l 5
306 988 m 5
 290 720 l 5
 222 720 l 5
 206 988 l 5
 306 988 l 5
674 0 m 1
 528 0 l 1
 528 68 l 1
 482 8 402 -18 330 -18 c 0
 202 -18 96 48 96 242 c 2
 96 556 l 2
 96 580 94 612 84 632 c 0
 78 648 66 658 50 666 c 1
 242 666 l 1
 226 658 214 646 206 628 c 0
 200 608 196 584 196 562 c 0
 196 554 198 544 198 536 c 2
 198 242 l 2
 198 80 310 58 358 58 c 0
 416 58 528 84 528 208 c 2
 528 536 l 2
 528 568 528 604 516 632 c 0
 510 648 498 658 482 666 c 1
 674 666 l 1
 658 658 646 646 638 628 c 0
 632 608 628 586 628 564 c 0
 628 556 630 546 630 536 c 2
 630 130 l 2
 630 124 628 114 628 106 c 0
 628 82 632 56 640 34 c 0
 648 18 660 8 674 0 c 1
EndSplineSet
EndChar

StartChar: uhungarumlaut
Encoding: 369 369 322
Width: 576
Flags: W
HStem: -14 80<269 288> 486 20
VStem: 80 90<187 204 204 368 368 392> 494 90
LayerCount: 2
Fore
SplineSet
428 798 m 5
 412 530 l 5
 344 530 l 5
 328 798 l 5
 428 798 l 5
228 798 m 5
 212 530 l 5
 144 530 l 5
 128 798 l 5
 228 798 l 5
532 0 m 1
 406 0 l 1
 406 66 l 1
 364 10 322 -14 254 -14 c 0
 202 -14 142 10 110 56 c 0
 84 94 80 140 80 186 c 2
 80 368 l 2
 80 416 80 436 40 468 c 1
 110 468 l 2
 132 468 154 470 170 486 c 1
 170 204 l 2
 170 170 174 132 196 104 c 0
 218 76 252 66 286 66 c 0
 358 66 402 116 402 186 c 2
 402 380 l 2
 402 418 400 440 364 468 c 1
 434 468 l 2
 456 468 478 470 494 486 c 1
 494 100 l 2
 494 96 492 90 492 86 c 0
 492 46 496 28 532 0 c 1
EndSplineSet
EndChar
